G04 #@! TF.GenerationSoftware,KiCad,Pcbnew,(6.0.1)*
G04 #@! TF.CreationDate,2022-06-02T08:59:42+05:30*
G04 #@! TF.ProjectId,BCD watch V1.0,42434420-7761-4746-9368-2056312e302e,rev?*
G04 #@! TF.SameCoordinates,Original*
G04 #@! TF.FileFunction,Copper,L2,Bot*
G04 #@! TF.FilePolarity,Positive*
%FSLAX46Y46*%
G04 Gerber Fmt 4.6, Leading zero omitted, Abs format (unit mm)*
G04 Created by KiCad (PCBNEW (6.0.1)) date 2022-06-02 08:59:42*
%MOMM*%
%LPD*%
G01*
G04 APERTURE LIST*
G04 Aperture macros list*
%AMRoundRect*
0 Rectangle with rounded corners*
0 $1 Rounding radius*
0 $2 $3 $4 $5 $6 $7 $8 $9 X,Y pos of 4 corners*
0 Add a 4 corners polygon primitive as box body*
4,1,4,$2,$3,$4,$5,$6,$7,$8,$9,$2,$3,0*
0 Add four circle primitives for the rounded corners*
1,1,$1+$1,$2,$3*
1,1,$1+$1,$4,$5*
1,1,$1+$1,$6,$7*
1,1,$1+$1,$8,$9*
0 Add four rect primitives between the rounded corners*
20,1,$1+$1,$2,$3,$4,$5,0*
20,1,$1+$1,$4,$5,$6,$7,0*
20,1,$1+$1,$6,$7,$8,$9,0*
20,1,$1+$1,$8,$9,$2,$3,0*%
G04 Aperture macros list end*
G04 #@! TA.AperFunction,SMDPad,CuDef*
%ADD10RoundRect,0.237500X0.237500X-0.250000X0.237500X0.250000X-0.237500X0.250000X-0.237500X-0.250000X0*%
G04 #@! TD*
G04 #@! TA.AperFunction,SMDPad,CuDef*
%ADD11RoundRect,0.237500X0.237500X-0.287500X0.237500X0.287500X-0.237500X0.287500X-0.237500X-0.287500X0*%
G04 #@! TD*
G04 #@! TA.AperFunction,SMDPad,CuDef*
%ADD12RoundRect,0.237500X-0.237500X0.300000X-0.237500X-0.300000X0.237500X-0.300000X0.237500X0.300000X0*%
G04 #@! TD*
G04 #@! TA.AperFunction,SMDPad,CuDef*
%ADD13RoundRect,0.237500X0.250000X0.237500X-0.250000X0.237500X-0.250000X-0.237500X0.250000X-0.237500X0*%
G04 #@! TD*
G04 #@! TA.AperFunction,SMDPad,CuDef*
%ADD14R,1.000000X1.000000*%
G04 #@! TD*
G04 #@! TA.AperFunction,SMDPad,CuDef*
%ADD15RoundRect,0.237500X-0.250000X-0.237500X0.250000X-0.237500X0.250000X0.237500X-0.250000X0.237500X0*%
G04 #@! TD*
G04 #@! TA.AperFunction,SMDPad,CuDef*
%ADD16RoundRect,0.237500X0.344715X-0.008839X-0.008839X0.344715X-0.344715X0.008839X0.008839X-0.344715X0*%
G04 #@! TD*
G04 #@! TA.AperFunction,SMDPad,CuDef*
%ADD17R,1.525000X0.700000*%
G04 #@! TD*
G04 #@! TA.AperFunction,SMDPad,CuDef*
%ADD18R,2.513000X3.402000*%
G04 #@! TD*
G04 #@! TA.AperFunction,SMDPad,CuDef*
%ADD19RoundRect,0.150000X0.512500X0.150000X-0.512500X0.150000X-0.512500X-0.150000X0.512500X-0.150000X0*%
G04 #@! TD*
G04 #@! TA.AperFunction,SMDPad,CuDef*
%ADD20R,3.100000X1.600000*%
G04 #@! TD*
G04 #@! TA.AperFunction,ViaPad*
%ADD21C,0.600000*%
G04 #@! TD*
G04 #@! TA.AperFunction,Conductor*
%ADD22C,0.250000*%
G04 #@! TD*
G04 APERTURE END LIST*
D10*
G04 #@! TO.P,R11,1*
G04 #@! TO.N,Net-(D10-Pad2)*
X67700000Y-46312500D03*
G04 #@! TO.P,R11,2*
G04 #@! TO.N,Net-(J1-Pad6)*
X67700000Y-44487500D03*
G04 #@! TD*
D11*
G04 #@! TO.P,D11,1,K*
G04 #@! TO.N,VBUS*
X65900000Y-49975000D03*
G04 #@! TO.P,D11,2,A*
G04 #@! TO.N,Net-(D11-Pad2)*
X65900000Y-48225000D03*
G04 #@! TD*
D12*
G04 #@! TO.P,C1,1*
G04 #@! TO.N,+BATT*
X78200000Y-61137500D03*
G04 #@! TO.P,C1,2*
G04 #@! TO.N,GND*
X78200000Y-62862500D03*
G04 #@! TD*
D13*
G04 #@! TO.P,R9,1*
G04 #@! TO.N,Net-(D9-Pad2)*
X66512500Y-68700000D03*
G04 #@! TO.P,R9,2*
G04 #@! TO.N,Net-(R9-Pad2)*
X64687500Y-68700000D03*
G04 #@! TD*
D14*
G04 #@! TO.P,TP4,1,1*
G04 #@! TO.N,Net-(TP4-Pad1)*
X72400000Y-68250000D03*
G04 #@! TD*
G04 #@! TO.P,TP1,1,1*
G04 #@! TO.N,GND*
X59400000Y-68250000D03*
G04 #@! TD*
D13*
G04 #@! TO.P,R14,1*
G04 #@! TO.N,GND*
X67912500Y-61600000D03*
G04 #@! TO.P,R14,2*
G04 #@! TO.N,volt*
X66087500Y-61600000D03*
G04 #@! TD*
D15*
G04 #@! TO.P,R13,1*
G04 #@! TO.N,volt*
X66087500Y-63500000D03*
G04 #@! TO.P,R13,2*
G04 #@! TO.N,+BATT*
X67912500Y-63500000D03*
G04 #@! TD*
D11*
G04 #@! TO.P,D10,1,K*
G04 #@! TO.N,VBUS*
X67700000Y-49975000D03*
G04 #@! TO.P,D10,2,A*
G04 #@! TO.N,Net-(D10-Pad2)*
X67700000Y-48225000D03*
G04 #@! TD*
D16*
G04 #@! TO.P,R10,1*
G04 #@! TO.N,GND*
X80145235Y-47945235D03*
G04 #@! TO.P,R10,2*
G04 #@! TO.N,Net-(J1-Pad2)*
X78854765Y-46654765D03*
G04 #@! TD*
D14*
G04 #@! TO.P,TP5,1,1*
G04 #@! TO.N,Net-(SW1-Pad1)*
X75500000Y-68250000D03*
G04 #@! TD*
D12*
G04 #@! TO.P,C2,1*
G04 #@! TO.N,+3V3*
X71399999Y-61100001D03*
G04 #@! TO.P,C2,2*
G04 #@! TO.N,GND*
X71399999Y-62825001D03*
G04 #@! TD*
D14*
G04 #@! TO.P,TP3,1,1*
G04 #@! TO.N,Net-(TP3-Pad1)*
X69600000Y-68250000D03*
G04 #@! TD*
D17*
G04 #@! TO.P,J1,1,TEMP1*
G04 #@! TO.N,GND*
X76512000Y-45195000D03*
G04 #@! TO.P,J1,2,PROG2*
G04 #@! TO.N,Net-(J1-Pad2)*
X76512000Y-46465000D03*
G04 #@! TO.P,J1,3,GND_3*
G04 #@! TO.N,GND*
X76512000Y-47735000D03*
G04 #@! TO.P,J1,4,VCC4*
G04 #@! TO.N,VBUS*
X76512000Y-49005000D03*
G04 #@! TO.P,J1,5,BAT*
G04 #@! TO.N,+BATT*
X71088000Y-49005000D03*
G04 #@! TO.P,J1,6,~{STDBY}*
G04 #@! TO.N,Net-(J1-Pad6)*
X71088000Y-47735000D03*
G04 #@! TO.P,J1,7,~{CHRG}*
G04 #@! TO.N,Net-(J1-Pad7)*
X71088000Y-46465000D03*
G04 #@! TO.P,J1,8,CE*
G04 #@! TO.N,VBUS*
X71088000Y-45195000D03*
D18*
G04 #@! TO.P,J1,9,EP*
G04 #@! TO.N,unconnected-(J1-Pad9)*
X73800000Y-47100000D03*
G04 #@! TD*
D19*
G04 #@! TO.P,U3,1,IN*
G04 #@! TO.N,+BATT*
X75904166Y-61020000D03*
G04 #@! TO.P,U3,2,GND*
G04 #@! TO.N,GND*
X75904166Y-61970000D03*
G04 #@! TO.P,U3,3,EN*
G04 #@! TO.N,+BATT*
X75904166Y-62920000D03*
G04 #@! TO.P,U3,4,BP*
G04 #@! TO.N,unconnected-(U3-Pad4)*
X73629166Y-62920000D03*
G04 #@! TO.P,U3,5,OUT*
G04 #@! TO.N,+3V3*
X73629166Y-61020000D03*
G04 #@! TD*
D14*
G04 #@! TO.P,TP6,1,1*
G04 #@! TO.N,Net-(R9-Pad2)*
X62300000Y-68250000D03*
G04 #@! TD*
G04 #@! TO.P,TP2,1,1*
G04 #@! TO.N,+3V3*
X56600000Y-68250000D03*
G04 #@! TD*
D20*
G04 #@! TO.P,U2,1,QB*
G04 #@! TO.N,Net-(R5-Pad1)*
X62145000Y-46710000D03*
G04 #@! TO.P,U2,2,QC*
G04 #@! TO.N,Net-(R2-Pad1)*
X62145000Y-49250000D03*
G04 #@! TO.P,U2,3,QD*
G04 #@! TO.N,Net-(R6-Pad1)*
X62145000Y-51790000D03*
G04 #@! TO.P,U2,4,QE*
G04 #@! TO.N,Net-(R3-Pad1)*
X62145000Y-54330000D03*
G04 #@! TO.P,U2,5,QF*
G04 #@! TO.N,Net-(R7-Pad1)*
X62145000Y-56870000D03*
G04 #@! TO.P,U2,6,QG*
G04 #@! TO.N,Net-(R4-Pad1)*
X62145000Y-59410000D03*
G04 #@! TO.P,U2,7,QH*
G04 #@! TO.N,Net-(R8-Pad1)*
X62145000Y-61950000D03*
G04 #@! TO.P,U2,8,GND*
G04 #@! TO.N,GND*
X62145000Y-64490000D03*
G04 #@! TO.P,U2,9,QH'*
G04 #@! TO.N,unconnected-(U2-Pad9)*
X53255000Y-64490000D03*
G04 #@! TO.P,U2,10,~{SRCLR}*
G04 #@! TO.N,+3V3*
X53255000Y-61950000D03*
G04 #@! TO.P,U2,11,SRCLK*
G04 #@! TO.N,Net-(TP4-Pad1)*
X53255000Y-59410000D03*
G04 #@! TO.P,U2,12,RCLK*
G04 #@! TO.N,Net-(U1-Pad2)*
X53255000Y-56870000D03*
G04 #@! TO.P,U2,13,~{OE}*
G04 #@! TO.N,GND*
X53255000Y-54330000D03*
G04 #@! TO.P,U2,14,SER*
G04 #@! TO.N,Net-(TP3-Pad1)*
X53255000Y-51790000D03*
G04 #@! TO.P,U2,15,QA*
G04 #@! TO.N,Net-(R1-Pad1)*
X53255000Y-49250000D03*
G04 #@! TO.P,U2,16,VCC*
G04 #@! TO.N,+3V3*
X53255000Y-46710000D03*
G04 #@! TD*
D10*
G04 #@! TO.P,R12,1*
G04 #@! TO.N,Net-(D11-Pad2)*
X65900000Y-46312500D03*
G04 #@! TO.P,R12,2*
G04 #@! TO.N,Net-(J1-Pad7)*
X65900000Y-44487500D03*
G04 #@! TD*
D21*
G04 #@! TO.N,GND*
X79100000Y-59300000D03*
X68400000Y-70100000D03*
X71100000Y-66800000D03*
X74200000Y-50700000D03*
X68200000Y-41500000D03*
X70600000Y-65100000D03*
X58100000Y-48900000D03*
X79000000Y-54000000D03*
X58400000Y-65800000D03*
G04 #@! TO.N,Net-(D9-Pad2)*
X68000000Y-68000000D03*
G04 #@! TO.N,Net-(R1-Pad1)*
X55880526Y-49243360D03*
G04 #@! TO.N,Net-(R2-Pad1)*
X59400000Y-51300000D03*
G04 #@! TO.N,Net-(R3-Pad1)*
X65300000Y-54400000D03*
G04 #@! TO.N,Net-(R4-Pad1)*
X64500000Y-58400000D03*
G04 #@! TO.N,Net-(R5-Pad1)*
X64500000Y-45900000D03*
G04 #@! TO.N,Net-(R6-Pad1)*
X64600000Y-49100000D03*
G04 #@! TO.N,Net-(R7-Pad1)*
X55400000Y-58400000D03*
G04 #@! TO.N,Net-(R8-Pad1)*
X66000000Y-60300000D03*
G04 #@! TO.N,Net-(R9-Pad2)*
X60900000Y-68300000D03*
G04 #@! TO.N,Net-(SW1-Pad1)*
X73900000Y-67000000D03*
G04 #@! TO.N,Net-(U1-Pad2)*
X56100000Y-57600000D03*
G04 #@! TO.N,Net-(TP3-Pad1)*
X69500000Y-66100000D03*
X55723887Y-51800890D03*
G04 #@! TO.N,Net-(TP4-Pad1)*
X58600000Y-62300000D03*
X72600000Y-66800000D03*
G04 #@! TO.N,VBUS*
X68300000Y-56200000D03*
X76900000Y-58100000D03*
X72900000Y-43700000D03*
X77900000Y-50400000D03*
X68500000Y-51000000D03*
G04 #@! TO.N,+BATT*
X75800000Y-65300000D03*
X74000000Y-65424500D03*
X71400000Y-53400000D03*
X71400000Y-51900000D03*
G04 #@! TO.N,volt*
X64700000Y-65700000D03*
G04 #@! TO.N,+3V3*
X59400000Y-60100000D03*
X65000000Y-59600000D03*
G04 #@! TD*
D22*
G04 #@! TO.N,GND*
X58400000Y-65800000D02*
X59710000Y-64490000D01*
X78300000Y-45000000D02*
X79200000Y-45000000D01*
X80600000Y-46900000D02*
X80600000Y-47490470D01*
X58100000Y-51800000D02*
X55400000Y-54500000D01*
X78200000Y-53200000D02*
X78200000Y-52600000D01*
X78200000Y-62862500D02*
X77862500Y-62862500D01*
X59400000Y-68250000D02*
X59400000Y-66800000D01*
X80145235Y-47945235D02*
X80145235Y-50654765D01*
X79600000Y-59800000D02*
X79100000Y-59300000D01*
X77600000Y-63900000D02*
X78200000Y-63300000D01*
X78105000Y-45195000D02*
X78300000Y-45000000D01*
X69500000Y-62500000D02*
X69500000Y-62700000D01*
X74300000Y-52600000D02*
X67700000Y-52600000D01*
X75230000Y-61970000D02*
X74700000Y-62500000D01*
X69625001Y-62825001D02*
X71399999Y-62825001D01*
X58100000Y-48900000D02*
X58100000Y-51800000D01*
X69500000Y-62700000D02*
X69625001Y-62825001D01*
X76970000Y-61970000D02*
X75904166Y-61970000D01*
X79590470Y-48500000D02*
X80145235Y-47945235D01*
X76512000Y-45112000D02*
X74100000Y-42700000D01*
X74500000Y-64100000D02*
X71900000Y-64100000D01*
X74800000Y-66300000D02*
X75100000Y-66000000D01*
X55400000Y-54500000D02*
X53425000Y-54500000D01*
X78200000Y-52600000D02*
X74300000Y-52600000D01*
X76512000Y-45195000D02*
X78105000Y-45195000D01*
X74000000Y-42600000D02*
X71900000Y-42600000D01*
X71300000Y-42100000D02*
X70700000Y-41500000D01*
X77862500Y-62862500D02*
X76970000Y-61970000D01*
X75904166Y-61970000D02*
X75230000Y-61970000D01*
X78200000Y-63300000D02*
X78200000Y-62862500D01*
X79137500Y-62862500D02*
X79600000Y-62400000D01*
X59400000Y-66800000D02*
X58400000Y-65800000D01*
X67912500Y-61600000D02*
X68600000Y-61600000D01*
X78400000Y-48500000D02*
X79590470Y-48500000D01*
X59400000Y-68800000D02*
X60600000Y-70000000D01*
X60700000Y-70100000D02*
X68400000Y-70100000D01*
X79600000Y-62400000D02*
X79600000Y-60500000D01*
X80400000Y-46200000D02*
X80400000Y-46700000D01*
X80400000Y-46700000D02*
X80600000Y-46900000D01*
X80145235Y-50654765D02*
X78200000Y-52600000D01*
X75100000Y-66000000D02*
X75100000Y-65000000D01*
X68600000Y-61600000D02*
X69500000Y-62500000D01*
X59400000Y-68250000D02*
X59400000Y-68800000D01*
X73200000Y-65800000D02*
X73700000Y-66300000D01*
X71399999Y-63599999D02*
X71399999Y-62825001D01*
X70700000Y-41500000D02*
X68200000Y-41500000D01*
X78200000Y-62862500D02*
X79137500Y-62862500D01*
X79000000Y-54000000D02*
X78200000Y-53200000D01*
X71800000Y-42600000D02*
X71300000Y-42100000D01*
X71900000Y-64100000D02*
X71399999Y-63599999D01*
X79600000Y-60500000D02*
X79600000Y-59800000D01*
X71900000Y-42600000D02*
X71800000Y-42600000D01*
X74100000Y-42700000D02*
X74000000Y-42600000D01*
X74700000Y-62500000D02*
X74700000Y-63900000D01*
X77635000Y-47735000D02*
X78400000Y-48500000D01*
X74300000Y-52600000D02*
X74300000Y-50800000D01*
X76512000Y-47735000D02*
X77635000Y-47735000D01*
X76200000Y-63900000D02*
X77600000Y-63900000D01*
X53425000Y-54500000D02*
X53255000Y-54330000D01*
X75100000Y-65000000D02*
X76200000Y-63900000D01*
X72100000Y-65800000D02*
X73200000Y-65800000D01*
X74300000Y-50800000D02*
X74200000Y-50700000D01*
X59710000Y-64490000D02*
X62145000Y-64490000D01*
X76512000Y-45195000D02*
X76512000Y-45112000D01*
X71100000Y-66800000D02*
X72100000Y-65800000D01*
X73700000Y-66300000D02*
X74800000Y-66300000D01*
X71100000Y-66800000D02*
X71100000Y-65600000D01*
X74700000Y-63900000D02*
X74500000Y-64100000D01*
X71100000Y-65600000D02*
X70600000Y-65100000D01*
X80600000Y-47490470D02*
X80145235Y-47945235D01*
X79200000Y-45000000D02*
X80400000Y-46200000D01*
X60600000Y-70000000D02*
X60700000Y-70100000D01*
G04 #@! TO.N,Net-(D9-Pad2)*
X68000000Y-68000000D02*
X67300000Y-68700000D01*
X67300000Y-68700000D02*
X66512500Y-68700000D01*
G04 #@! TO.N,Net-(R1-Pad1)*
X53255000Y-49250000D02*
X55873886Y-49250000D01*
X55873886Y-49250000D02*
X55880526Y-49243360D01*
G04 #@! TO.N,Net-(R2-Pad1)*
X59400000Y-49900000D02*
X60050000Y-49250000D01*
X60050000Y-49250000D02*
X62145000Y-49250000D01*
X59400000Y-51300000D02*
X59400000Y-49900000D01*
G04 #@! TO.N,Net-(R3-Pad1)*
X65230000Y-54330000D02*
X62145000Y-54330000D01*
X65300000Y-54400000D02*
X65230000Y-54330000D01*
G04 #@! TO.N,Net-(R4-Pad1)*
X63490000Y-59410000D02*
X62145000Y-59410000D01*
X64500000Y-58400000D02*
X63490000Y-59410000D01*
G04 #@! TO.N,Net-(R5-Pad1)*
X62145000Y-46710000D02*
X62790000Y-46710000D01*
X63600000Y-45900000D02*
X64500000Y-45900000D01*
X62790000Y-46710000D02*
X63600000Y-45900000D01*
G04 #@! TO.N,Net-(R6-Pad1)*
X64600000Y-51300000D02*
X64110000Y-51790000D01*
X64600000Y-49100000D02*
X64600000Y-51300000D01*
X64110000Y-51790000D02*
X62145000Y-51790000D01*
G04 #@! TO.N,Net-(R7-Pad1)*
X55400000Y-58400000D02*
X58000000Y-58400000D01*
X58000000Y-58400000D02*
X59530000Y-56870000D01*
X59530000Y-56870000D02*
X62145000Y-56870000D01*
G04 #@! TO.N,Net-(R8-Pad1)*
X64550000Y-60450000D02*
X63050000Y-61950000D01*
X65850000Y-60450000D02*
X64550000Y-60450000D01*
X66000000Y-60300000D02*
X65850000Y-60450000D01*
X63050000Y-61950000D02*
X62145000Y-61950000D01*
G04 #@! TO.N,Net-(R9-Pad2)*
X60900000Y-68300000D02*
X62250000Y-68300000D01*
X64187500Y-69200000D02*
X64687500Y-68700000D01*
X62250000Y-68300000D02*
X62300000Y-68250000D01*
X62300000Y-68250000D02*
X62300000Y-68600000D01*
X62900000Y-69200000D02*
X64187500Y-69200000D01*
X62300000Y-68600000D02*
X62900000Y-69200000D01*
G04 #@! TO.N,Net-(SW1-Pad1)*
X75100000Y-67000000D02*
X75500000Y-67400000D01*
X73900000Y-67000000D02*
X75100000Y-67000000D01*
X75500000Y-67400000D02*
X75500000Y-68250000D01*
G04 #@! TO.N,Net-(U1-Pad2)*
X53255000Y-56870000D02*
X55370000Y-56870000D01*
X55370000Y-56870000D02*
X56100000Y-57600000D01*
G04 #@! TO.N,Net-(TP3-Pad1)*
X55722997Y-51800000D02*
X55723887Y-51800890D01*
X55556444Y-51800000D02*
X55600000Y-51800000D01*
X54027194Y-51812194D02*
X55544250Y-51812194D01*
X54005000Y-51790000D02*
X54027194Y-51812194D01*
X55600000Y-51800000D02*
X55722997Y-51800000D01*
X55544250Y-51812194D02*
X55556444Y-51800000D01*
X69500000Y-66100000D02*
X69500000Y-68150000D01*
X53255000Y-51790000D02*
X54005000Y-51790000D01*
X69500000Y-68150000D02*
X69600000Y-68250000D01*
G04 #@! TO.N,Net-(TP4-Pad1)*
X58300000Y-62300000D02*
X58600000Y-62300000D01*
X58100000Y-61800000D02*
X58100000Y-62100000D01*
X58100000Y-62100000D02*
X58250000Y-62250000D01*
X58100000Y-60500000D02*
X58100000Y-61800000D01*
X58250000Y-62250000D02*
X58300000Y-62300000D01*
X72600000Y-66800000D02*
X72600000Y-68050000D01*
X58000000Y-60400000D02*
X58100000Y-60500000D01*
X72600000Y-68050000D02*
X72400000Y-68250000D01*
X57010000Y-59410000D02*
X58000000Y-60400000D01*
X53255000Y-59410000D02*
X57010000Y-59410000D01*
G04 #@! TO.N,Net-(D10-Pad2)*
X67700000Y-46312500D02*
X67700000Y-48225000D01*
G04 #@! TO.N,Net-(D11-Pad2)*
X65900000Y-48225000D02*
X65900000Y-46312500D01*
G04 #@! TO.N,Net-(J1-Pad2)*
X76512000Y-46465000D02*
X78665000Y-46465000D01*
X78665000Y-46465000D02*
X78854765Y-46654765D01*
G04 #@! TO.N,VBUS*
X65900000Y-49975000D02*
X67700000Y-49975000D01*
X71405000Y-45195000D02*
X72900000Y-43700000D01*
X68300000Y-58000000D02*
X68200000Y-58100000D01*
X68200000Y-58100000D02*
X66800000Y-58100000D01*
X71088000Y-45195000D02*
X71405000Y-45195000D01*
X77900000Y-50400000D02*
X77200000Y-50400000D01*
X67700000Y-49975000D02*
X67700000Y-50200000D01*
X76512000Y-49712000D02*
X76512000Y-49005000D01*
X77200000Y-50400000D02*
X76512000Y-49712000D01*
X76900000Y-58100000D02*
X68200000Y-58100000D01*
X68300000Y-56200000D02*
X68300000Y-58000000D01*
X67700000Y-50200000D02*
X68500000Y-51000000D01*
G04 #@! TO.N,+BATT*
X75904166Y-63295834D02*
X75400000Y-63800000D01*
X75400000Y-63800000D02*
X75400000Y-63900000D01*
X74700000Y-64724500D02*
X74700000Y-64600000D01*
X71088000Y-49388000D02*
X71088000Y-51588000D01*
X71088000Y-51588000D02*
X71400000Y-51900000D01*
X75800000Y-65300000D02*
X76600000Y-64500000D01*
X71400000Y-53400000D02*
X72700000Y-54700000D01*
X75400000Y-63900000D02*
X74700000Y-64600000D01*
X76600000Y-64500000D02*
X78800000Y-64500000D01*
X75904166Y-62920000D02*
X75904166Y-63295834D01*
X80200000Y-58700000D02*
X79400000Y-57900000D01*
X78082500Y-61020000D02*
X78200000Y-61137500D01*
X79400000Y-57900000D02*
X78200000Y-57900000D01*
X78200000Y-57900000D02*
X78200000Y-61137500D01*
X71088000Y-49005000D02*
X71088000Y-49388000D01*
X78200000Y-55500000D02*
X78200000Y-57900000D01*
X67912500Y-63500000D02*
X69900000Y-63500000D01*
X80200000Y-63100000D02*
X80200000Y-58700000D01*
X75904166Y-61020000D02*
X78082500Y-61020000D01*
X78800000Y-64500000D02*
X80200000Y-63100000D01*
X74700000Y-64600000D02*
X71000000Y-64600000D01*
X74000000Y-65424500D02*
X74700000Y-64724500D01*
X77400000Y-54700000D02*
X78200000Y-55500000D01*
X69900000Y-63500000D02*
X71000000Y-64600000D01*
X72700000Y-54700000D02*
X77400000Y-54700000D01*
G04 #@! TO.N,Net-(J1-Pad6)*
X68087500Y-44487500D02*
X68900000Y-45300000D01*
X67700000Y-44487500D02*
X68087500Y-44487500D01*
X69435000Y-47735000D02*
X71088000Y-47735000D01*
X68900000Y-45300000D02*
X68900000Y-47200000D01*
X68900000Y-47200000D02*
X69435000Y-47735000D01*
G04 #@! TO.N,Net-(J1-Pad7)*
X69965000Y-46465000D02*
X71088000Y-46465000D01*
X66400000Y-43300000D02*
X68300000Y-43300000D01*
X69500000Y-44500000D02*
X69500000Y-46000000D01*
X69500000Y-46000000D02*
X69965000Y-46465000D01*
X68300000Y-43300000D02*
X69500000Y-44500000D01*
X65900000Y-43800000D02*
X66400000Y-43300000D01*
X65900000Y-44487500D02*
X65900000Y-43800000D01*
G04 #@! TO.N,volt*
X66087500Y-61600000D02*
X66087500Y-63500000D01*
X64700000Y-64887500D02*
X65193750Y-64393750D01*
X64700000Y-65700000D02*
X64700000Y-64887500D01*
X65193750Y-64393750D02*
X66087500Y-63500000D01*
G04 #@! TO.N,+3V3*
X59700000Y-63200000D02*
X59200000Y-63700000D01*
X70400000Y-59600000D02*
X65000000Y-59600000D01*
X50800000Y-47700000D02*
X50800000Y-47200000D01*
X52745978Y-61900000D02*
X50600000Y-61900000D01*
X71399999Y-61100001D02*
X73549165Y-61100001D01*
X55550000Y-61950000D02*
X56600000Y-63000000D01*
X59400000Y-60100000D02*
X59700000Y-60400000D01*
X56600000Y-63000000D02*
X56600000Y-63700000D01*
X73549165Y-61100001D02*
X73629166Y-61020000D01*
X50800000Y-47200000D02*
X51290000Y-46710000D01*
X53255000Y-61950000D02*
X55550000Y-61950000D01*
X70600000Y-59800000D02*
X70400000Y-59600000D01*
X59700000Y-60400000D02*
X59700000Y-63200000D01*
X51290000Y-46710000D02*
X53255000Y-46710000D01*
X52795978Y-61950000D02*
X52745978Y-61900000D01*
X49800000Y-61100000D02*
X49800000Y-48700000D01*
X56600000Y-63700000D02*
X56600000Y-68250000D01*
X59200000Y-63700000D02*
X56600000Y-63700000D01*
X49800000Y-48700000D02*
X50800000Y-47700000D01*
X53255000Y-61950000D02*
X52795978Y-61950000D01*
X71399999Y-60599999D02*
X70600000Y-59800000D01*
X50600000Y-61900000D02*
X49800000Y-61100000D01*
X71399999Y-61100001D02*
X71399999Y-60599999D01*
G04 #@! TD*
G04 #@! TA.AperFunction,Conductor*
G04 #@! TO.N,GND*
G36*
X68029858Y-51658624D02*
G01*
X68086876Y-51695935D01*
X68133159Y-51726222D01*
X68139763Y-51728678D01*
X68139765Y-51728679D01*
X68296558Y-51786990D01*
X68296560Y-51786990D01*
X68303168Y-51789448D01*
X68377054Y-51799307D01*
X68411312Y-51803878D01*
X68476189Y-51832714D01*
X68515177Y-51892047D01*
X68520647Y-51928771D01*
X68520647Y-53212056D01*
X68500645Y-53280177D01*
X68446989Y-53326670D01*
X68394647Y-53338056D01*
X65446647Y-53338056D01*
X65378526Y-53318054D01*
X65332033Y-53264398D01*
X65320647Y-53212056D01*
X65320647Y-51764056D01*
X65340649Y-51695935D01*
X65394305Y-51649442D01*
X65446647Y-51638056D01*
X67960865Y-51638056D01*
X68029858Y-51658624D01*
G37*
G04 #@! TD.AperFunction*
G04 #@! TD*
G04 #@! TA.AperFunction,Conductor*
G04 #@! TO.N,VBUS*
G36*
X68455400Y-57190204D02*
G01*
X68501893Y-57243860D01*
X68513279Y-57296202D01*
X68513279Y-58744202D01*
X68493277Y-58812323D01*
X68439621Y-58858816D01*
X68387279Y-58870202D01*
X65439279Y-58870202D01*
X65371158Y-58850200D01*
X65324665Y-58796544D01*
X65313279Y-58744202D01*
X65313279Y-57296202D01*
X65333281Y-57228081D01*
X65386937Y-57181588D01*
X65439279Y-57170202D01*
X68387279Y-57170202D01*
X68455400Y-57190204D01*
G37*
G04 #@! TD.AperFunction*
G04 #@! TD*
M02*
