G04 #@! TF.GenerationSoftware,KiCad,Pcbnew,(6.0.1)*
G04 #@! TF.CreationDate,2022-06-02T08:59:42+05:30*
G04 #@! TF.ProjectId,BCD watch V1.0,42434420-7761-4746-9368-2056312e302e,rev?*
G04 #@! TF.SameCoordinates,Original*
G04 #@! TF.FileFunction,Legend,Top*
G04 #@! TF.FilePolarity,Positive*
%FSLAX46Y46*%
G04 Gerber Fmt 4.6, Leading zero omitted, Abs format (unit mm)*
G04 Created by KiCad (PCBNEW (6.0.1)) date 2022-06-02 08:59:42*
%MOMM*%
%LPD*%
G01*
G04 APERTURE LIST*
%ADD10C,0.150000*%
%ADD11C,0.120000*%
%ADD12C,0.010000*%
G04 APERTURE END LIST*
D10*
X73028571Y-48861904D02*
X72571428Y-48861904D01*
X72800000Y-48861904D02*
X72800000Y-48061904D01*
X72723809Y-48176190D01*
X72647619Y-48252380D01*
X72571428Y-48290476D01*
X69571428Y-48138095D02*
X69609523Y-48100000D01*
X69685714Y-48061904D01*
X69876190Y-48061904D01*
X69952380Y-48100000D01*
X69990476Y-48138095D01*
X70028571Y-48214285D01*
X70028571Y-48290476D01*
X69990476Y-48404761D01*
X69533333Y-48861904D01*
X70028571Y-48861904D01*
X66952380Y-48328571D02*
X66952380Y-48861904D01*
X66761904Y-48023809D02*
X66571428Y-48595238D01*
X67066666Y-48595238D01*
X60895238Y-47152380D02*
X60895238Y-46152380D01*
X60895238Y-46628571D02*
X61466666Y-46628571D01*
X61466666Y-47152380D02*
X61466666Y-46152380D01*
X62085714Y-47152380D02*
X61990476Y-47104761D01*
X61942857Y-47057142D01*
X61895238Y-46961904D01*
X61895238Y-46676190D01*
X61942857Y-46580952D01*
X61990476Y-46533333D01*
X62085714Y-46485714D01*
X62228571Y-46485714D01*
X62323809Y-46533333D01*
X62371428Y-46580952D01*
X62419047Y-46676190D01*
X62419047Y-46961904D01*
X62371428Y-47057142D01*
X62323809Y-47104761D01*
X62228571Y-47152380D01*
X62085714Y-47152380D01*
X63276190Y-46485714D02*
X63276190Y-47152380D01*
X62847619Y-46485714D02*
X62847619Y-47009523D01*
X62895238Y-47104761D01*
X62990476Y-47152380D01*
X63133333Y-47152380D01*
X63228571Y-47104761D01*
X63276190Y-47057142D01*
X63752380Y-47152380D02*
X63752380Y-46485714D01*
X63752380Y-46676190D02*
X63800000Y-46580952D01*
X63847619Y-46533333D01*
X63942857Y-46485714D01*
X64038095Y-46485714D01*
X64323809Y-47104761D02*
X64419047Y-47152380D01*
X64609523Y-47152380D01*
X64704761Y-47104761D01*
X64752380Y-47009523D01*
X64752380Y-46961904D01*
X64704761Y-46866666D01*
X64609523Y-46819047D01*
X64466666Y-46819047D01*
X64371428Y-46771428D01*
X64323809Y-46676190D01*
X64323809Y-46628571D01*
X64371428Y-46533333D01*
X64466666Y-46485714D01*
X64609523Y-46485714D01*
X64704761Y-46533333D01*
X66509523Y-47252380D02*
X66509523Y-46252380D01*
X66842857Y-46966666D01*
X67176190Y-46252380D01*
X67176190Y-47252380D01*
X67652380Y-47252380D02*
X67652380Y-46585714D01*
X67652380Y-46252380D02*
X67604761Y-46300000D01*
X67652380Y-46347619D01*
X67700000Y-46300000D01*
X67652380Y-46252380D01*
X67652380Y-46347619D01*
X68128571Y-46585714D02*
X68128571Y-47252380D01*
X68128571Y-46680952D02*
X68176190Y-46633333D01*
X68271428Y-46585714D01*
X68414285Y-46585714D01*
X68509523Y-46633333D01*
X68557142Y-46728571D01*
X68557142Y-47252380D01*
X69461904Y-46585714D02*
X69461904Y-47252380D01*
X69033333Y-46585714D02*
X69033333Y-47109523D01*
X69080952Y-47204761D01*
X69176190Y-47252380D01*
X69319047Y-47252380D01*
X69414285Y-47204761D01*
X69461904Y-47157142D01*
X69795238Y-46585714D02*
X70176190Y-46585714D01*
X69938095Y-46252380D02*
X69938095Y-47109523D01*
X69985714Y-47204761D01*
X70080952Y-47252380D01*
X70176190Y-47252380D01*
X70890476Y-47204761D02*
X70795238Y-47252380D01*
X70604761Y-47252380D01*
X70509523Y-47204761D01*
X70461904Y-47109523D01*
X70461904Y-46728571D01*
X70509523Y-46633333D01*
X70604761Y-46585714D01*
X70795238Y-46585714D01*
X70890476Y-46633333D01*
X70938095Y-46728571D01*
X70938095Y-46823809D01*
X70461904Y-46919047D01*
X57352380Y-48061904D02*
X57847619Y-48061904D01*
X57580952Y-48366666D01*
X57695238Y-48366666D01*
X57771428Y-48404761D01*
X57809523Y-48442857D01*
X57847619Y-48519047D01*
X57847619Y-48709523D01*
X57809523Y-48785714D01*
X57771428Y-48823809D01*
X57695238Y-48861904D01*
X57466666Y-48861904D01*
X57390476Y-48823809D01*
X57352380Y-48785714D01*
X58152380Y-48138095D02*
X58190476Y-48100000D01*
X58266666Y-48061904D01*
X58457142Y-48061904D01*
X58533333Y-48100000D01*
X58571428Y-48138095D01*
X58609523Y-48214285D01*
X58609523Y-48290476D01*
X58571428Y-48404761D01*
X58114285Y-48861904D01*
X58609523Y-48861904D01*
X63823809Y-48404761D02*
X63747619Y-48366666D01*
X63709523Y-48328571D01*
X63671428Y-48252380D01*
X63671428Y-48214285D01*
X63709523Y-48138095D01*
X63747619Y-48100000D01*
X63823809Y-48061904D01*
X63976190Y-48061904D01*
X64052380Y-48100000D01*
X64090476Y-48138095D01*
X64128571Y-48214285D01*
X64128571Y-48252380D01*
X64090476Y-48328571D01*
X64052380Y-48366666D01*
X63976190Y-48404761D01*
X63823809Y-48404761D01*
X63747619Y-48442857D01*
X63709523Y-48480952D01*
X63671428Y-48557142D01*
X63671428Y-48709523D01*
X63709523Y-48785714D01*
X63747619Y-48823809D01*
X63823809Y-48861904D01*
X63976190Y-48861904D01*
X64052380Y-48823809D01*
X64090476Y-48785714D01*
X64128571Y-48709523D01*
X64128571Y-48557142D01*
X64090476Y-48480952D01*
X64052380Y-48442857D01*
X63976190Y-48404761D01*
X60747619Y-48861904D02*
X60290476Y-48861904D01*
X60519047Y-48861904D02*
X60519047Y-48061904D01*
X60442857Y-48176190D01*
X60366666Y-48252380D01*
X60290476Y-48290476D01*
X61433333Y-48061904D02*
X61280952Y-48061904D01*
X61204761Y-48100000D01*
X61166666Y-48138095D01*
X61090476Y-48252380D01*
X61052380Y-48404761D01*
X61052380Y-48709523D01*
X61090476Y-48785714D01*
X61128571Y-48823809D01*
X61204761Y-48861904D01*
X61357142Y-48861904D01*
X61433333Y-48823809D01*
X61471428Y-48785714D01*
X61509523Y-48709523D01*
X61509523Y-48519047D01*
X61471428Y-48442857D01*
X61433333Y-48404761D01*
X61357142Y-48366666D01*
X61204761Y-48366666D01*
X61128571Y-48404761D01*
X61090476Y-48442857D01*
X61052380Y-48519047D01*
G04 #@! TO.C,R3*
X17648640Y-63141666D02*
X17172450Y-63475000D01*
X17648640Y-63713095D02*
X16648640Y-63713095D01*
X16648640Y-63332142D01*
X16696260Y-63236904D01*
X16743879Y-63189285D01*
X16839117Y-63141666D01*
X16981974Y-63141666D01*
X17077212Y-63189285D01*
X17124831Y-63236904D01*
X17172450Y-63332142D01*
X17172450Y-63713095D01*
X16648640Y-62808333D02*
X16648640Y-62189285D01*
X17029593Y-62522619D01*
X17029593Y-62379761D01*
X17077212Y-62284523D01*
X17124831Y-62236904D01*
X17220069Y-62189285D01*
X17458164Y-62189285D01*
X17553402Y-62236904D01*
X17601021Y-62284523D01*
X17648640Y-62379761D01*
X17648640Y-62665476D01*
X17601021Y-62760714D01*
X17553402Y-62808333D01*
G04 #@! TO.C,R5*
X127252380Y-55166666D02*
X126776190Y-55500000D01*
X127252380Y-55738095D02*
X126252380Y-55738095D01*
X126252380Y-55357142D01*
X126300000Y-55261904D01*
X126347619Y-55214285D01*
X126442857Y-55166666D01*
X126585714Y-55166666D01*
X126680952Y-55214285D01*
X126728571Y-55261904D01*
X126776190Y-55357142D01*
X126776190Y-55738095D01*
X126252380Y-54261904D02*
X126252380Y-54738095D01*
X126728571Y-54785714D01*
X126680952Y-54738095D01*
X126633333Y-54642857D01*
X126633333Y-54404761D01*
X126680952Y-54309523D01*
X126728571Y-54261904D01*
X126823809Y-54214285D01*
X127061904Y-54214285D01*
X127157142Y-54261904D01*
X127204761Y-54309523D01*
X127252380Y-54404761D01*
X127252380Y-54642857D01*
X127204761Y-54738095D01*
X127157142Y-54785714D01*
G04 #@! TO.C,D9*
X22761904Y-81452380D02*
X22761904Y-80452380D01*
X23000000Y-80452380D01*
X23142857Y-80500000D01*
X23238095Y-80595238D01*
X23285714Y-80690476D01*
X23333333Y-80880952D01*
X23333333Y-81023809D01*
X23285714Y-81214285D01*
X23238095Y-81309523D01*
X23142857Y-81404761D01*
X23000000Y-81452380D01*
X22761904Y-81452380D01*
X23809523Y-81452380D02*
X24000000Y-81452380D01*
X24095238Y-81404761D01*
X24142857Y-81357142D01*
X24238095Y-81214285D01*
X24285714Y-81023809D01*
X24285714Y-80642857D01*
X24238095Y-80547619D01*
X24190476Y-80500000D01*
X24095238Y-80452380D01*
X23904761Y-80452380D01*
X23809523Y-80500000D01*
X23761904Y-80547619D01*
X23714285Y-80642857D01*
X23714285Y-80880952D01*
X23761904Y-80976190D01*
X23809523Y-81023809D01*
X23904761Y-81071428D01*
X24095238Y-81071428D01*
X24190476Y-81023809D01*
X24238095Y-80976190D01*
X24285714Y-80880952D01*
G04 #@! TO.C,D3*
X124546543Y-40063095D02*
X123546543Y-40063095D01*
X123546543Y-39825000D01*
X123594163Y-39682142D01*
X123689401Y-39586904D01*
X123784639Y-39539285D01*
X123975115Y-39491666D01*
X124117972Y-39491666D01*
X124308448Y-39539285D01*
X124403686Y-39586904D01*
X124498924Y-39682142D01*
X124546543Y-39825000D01*
X124546543Y-40063095D01*
X123546543Y-39158333D02*
X123546543Y-38539285D01*
X123927496Y-38872619D01*
X123927496Y-38729761D01*
X123975115Y-38634523D01*
X124022734Y-38586904D01*
X124117972Y-38539285D01*
X124356067Y-38539285D01*
X124451305Y-38586904D01*
X124498924Y-38634523D01*
X124546543Y-38729761D01*
X124546543Y-39015476D01*
X124498924Y-39110714D01*
X124451305Y-39158333D01*
G04 #@! TO.C,SW1*
X90766666Y-82404761D02*
X90909523Y-82452380D01*
X91147619Y-82452380D01*
X91242857Y-82404761D01*
X91290476Y-82357142D01*
X91338095Y-82261904D01*
X91338095Y-82166666D01*
X91290476Y-82071428D01*
X91242857Y-82023809D01*
X91147619Y-81976190D01*
X90957142Y-81928571D01*
X90861904Y-81880952D01*
X90814285Y-81833333D01*
X90766666Y-81738095D01*
X90766666Y-81642857D01*
X90814285Y-81547619D01*
X90861904Y-81500000D01*
X90957142Y-81452380D01*
X91195238Y-81452380D01*
X91338095Y-81500000D01*
X91671428Y-81452380D02*
X91909523Y-82452380D01*
X92100000Y-81738095D01*
X92290476Y-82452380D01*
X92528571Y-81452380D01*
X93433333Y-82452380D02*
X92861904Y-82452380D01*
X93147619Y-82452380D02*
X93147619Y-81452380D01*
X93052380Y-81595238D01*
X92957142Y-81690476D01*
X92861904Y-81738095D01*
G04 #@! TO.C,D4*
X113656748Y-24663095D02*
X112656748Y-24663095D01*
X112656748Y-24425000D01*
X112704368Y-24282142D01*
X112799606Y-24186904D01*
X112894844Y-24139285D01*
X113085320Y-24091666D01*
X113228177Y-24091666D01*
X113418653Y-24139285D01*
X113513891Y-24186904D01*
X113609129Y-24282142D01*
X113656748Y-24425000D01*
X113656748Y-24663095D01*
X112990082Y-23234523D02*
X113656748Y-23234523D01*
X112609129Y-23472619D02*
X113323415Y-23710714D01*
X113323415Y-23091666D01*
G04 #@! TO.C,D6*
X26782007Y-47243056D02*
X25782007Y-47243056D01*
X25782007Y-47004961D01*
X25829627Y-46862103D01*
X25924865Y-46766865D01*
X26020103Y-46719246D01*
X26210579Y-46671627D01*
X26353436Y-46671627D01*
X26543912Y-46719246D01*
X26639150Y-46766865D01*
X26734388Y-46862103D01*
X26782007Y-47004961D01*
X26782007Y-47243056D01*
X25782007Y-45814484D02*
X25782007Y-46004961D01*
X25829627Y-46100199D01*
X25877246Y-46147818D01*
X26020103Y-46243056D01*
X26210579Y-46290675D01*
X26591531Y-46290675D01*
X26686769Y-46243056D01*
X26734388Y-46195437D01*
X26782007Y-46100199D01*
X26782007Y-45909722D01*
X26734388Y-45814484D01*
X26686769Y-45766865D01*
X26591531Y-45719246D01*
X26353436Y-45719246D01*
X26258198Y-45766865D01*
X26210579Y-45814484D01*
X26162960Y-45909722D01*
X26162960Y-46100199D01*
X26210579Y-46195437D01*
X26258198Y-46243056D01*
X26353436Y-46290675D01*
G04 #@! TO.C,R6*
X14252380Y-64291666D02*
X13776190Y-64625000D01*
X14252380Y-64863095D02*
X13252380Y-64863095D01*
X13252380Y-64482142D01*
X13300000Y-64386904D01*
X13347619Y-64339285D01*
X13442857Y-64291666D01*
X13585714Y-64291666D01*
X13680952Y-64339285D01*
X13728571Y-64386904D01*
X13776190Y-64482142D01*
X13776190Y-64863095D01*
X13252380Y-63434523D02*
X13252380Y-63625000D01*
X13300000Y-63720238D01*
X13347619Y-63767857D01*
X13490476Y-63863095D01*
X13680952Y-63910714D01*
X14061904Y-63910714D01*
X14157142Y-63863095D01*
X14204761Y-63815476D01*
X14252380Y-63720238D01*
X14252380Y-63529761D01*
X14204761Y-63434523D01*
X14157142Y-63386904D01*
X14061904Y-63339285D01*
X13823809Y-63339285D01*
X13728571Y-63386904D01*
X13680952Y-63434523D01*
X13633333Y-63529761D01*
X13633333Y-63720238D01*
X13680952Y-63815476D01*
X13728571Y-63863095D01*
X13823809Y-63910714D01*
G04 #@! TO.C,D1*
X23652380Y-59738095D02*
X22652380Y-59738095D01*
X22652380Y-59500000D01*
X22700000Y-59357142D01*
X22795238Y-59261904D01*
X22890476Y-59214285D01*
X23080952Y-59166666D01*
X23223809Y-59166666D01*
X23414285Y-59214285D01*
X23509523Y-59261904D01*
X23604761Y-59357142D01*
X23652380Y-59500000D01*
X23652380Y-59738095D01*
X23652380Y-58214285D02*
X23652380Y-58785714D01*
X23652380Y-58500000D02*
X22652380Y-58500000D01*
X22795238Y-58595238D01*
X22890476Y-58690476D01*
X22938095Y-58785714D01*
G04 #@! TO.C,D5*
X128882007Y-38063916D02*
X127882007Y-38063916D01*
X127882007Y-37825821D01*
X127929627Y-37682963D01*
X128024865Y-37587725D01*
X128120103Y-37540106D01*
X128310579Y-37492487D01*
X128453436Y-37492487D01*
X128643912Y-37540106D01*
X128739150Y-37587725D01*
X128834388Y-37682963D01*
X128882007Y-37825821D01*
X128882007Y-38063916D01*
X127882007Y-36587725D02*
X127882007Y-37063916D01*
X128358198Y-37111535D01*
X128310579Y-37063916D01*
X128262960Y-36968678D01*
X128262960Y-36730582D01*
X128310579Y-36635344D01*
X128358198Y-36587725D01*
X128453436Y-36540106D01*
X128691531Y-36540106D01*
X128786769Y-36587725D01*
X128834388Y-36635344D01*
X128882007Y-36730582D01*
X128882007Y-36968678D01*
X128834388Y-37063916D01*
X128786769Y-37111535D01*
G04 #@! TO.C,R8*
X111052380Y-18366666D02*
X110576190Y-18700000D01*
X111052380Y-18938095D02*
X110052380Y-18938095D01*
X110052380Y-18557142D01*
X110100000Y-18461904D01*
X110147619Y-18414285D01*
X110242857Y-18366666D01*
X110385714Y-18366666D01*
X110480952Y-18414285D01*
X110528571Y-18461904D01*
X110576190Y-18557142D01*
X110576190Y-18938095D01*
X110480952Y-17795238D02*
X110433333Y-17890476D01*
X110385714Y-17938095D01*
X110290476Y-17985714D01*
X110242857Y-17985714D01*
X110147619Y-17938095D01*
X110100000Y-17890476D01*
X110052380Y-17795238D01*
X110052380Y-17604761D01*
X110100000Y-17509523D01*
X110147619Y-17461904D01*
X110242857Y-17414285D01*
X110290476Y-17414285D01*
X110385714Y-17461904D01*
X110433333Y-17509523D01*
X110480952Y-17604761D01*
X110480952Y-17795238D01*
X110528571Y-17890476D01*
X110576190Y-17938095D01*
X110671428Y-17985714D01*
X110861904Y-17985714D01*
X110957142Y-17938095D01*
X111004761Y-17890476D01*
X111052380Y-17795238D01*
X111052380Y-17604761D01*
X111004761Y-17509523D01*
X110957142Y-17461904D01*
X110861904Y-17414285D01*
X110671428Y-17414285D01*
X110576190Y-17461904D01*
X110528571Y-17509523D01*
X110480952Y-17604761D01*
G04 #@! TO.C,R4*
X18752380Y-43444166D02*
X18276190Y-43777500D01*
X18752380Y-44015595D02*
X17752380Y-44015595D01*
X17752380Y-43634642D01*
X17800000Y-43539404D01*
X17847619Y-43491785D01*
X17942857Y-43444166D01*
X18085714Y-43444166D01*
X18180952Y-43491785D01*
X18228571Y-43539404D01*
X18276190Y-43634642D01*
X18276190Y-44015595D01*
X18085714Y-42587023D02*
X18752380Y-42587023D01*
X17704761Y-42825119D02*
X18419047Y-43063214D01*
X18419047Y-42444166D01*
G04 #@! TO.C,D2*
X110452380Y-78238095D02*
X109452380Y-78238095D01*
X109452380Y-78000000D01*
X109500000Y-77857142D01*
X109595238Y-77761904D01*
X109690476Y-77714285D01*
X109880952Y-77666666D01*
X110023809Y-77666666D01*
X110214285Y-77714285D01*
X110309523Y-77761904D01*
X110404761Y-77857142D01*
X110452380Y-78000000D01*
X110452380Y-78238095D01*
X109547619Y-77285714D02*
X109500000Y-77238095D01*
X109452380Y-77142857D01*
X109452380Y-76904761D01*
X109500000Y-76809523D01*
X109547619Y-76761904D01*
X109642857Y-76714285D01*
X109738095Y-76714285D01*
X109880952Y-76761904D01*
X110452380Y-77333333D01*
X110452380Y-76714285D01*
G04 #@! TO.C,U1*
X18834355Y-67227380D02*
X18834355Y-68036904D01*
X18881974Y-68132142D01*
X18929593Y-68179761D01*
X19024831Y-68227380D01*
X19215307Y-68227380D01*
X19310545Y-68179761D01*
X19358164Y-68132142D01*
X19405783Y-68036904D01*
X19405783Y-67227380D01*
X20405783Y-68227380D02*
X19834355Y-68227380D01*
X20120069Y-68227380D02*
X20120069Y-67227380D01*
X20024831Y-67370238D01*
X19929593Y-67465476D01*
X19834355Y-67513095D01*
G04 #@! TO.C,D8*
X111852380Y-23138095D02*
X110852380Y-23138095D01*
X110852380Y-22900000D01*
X110900000Y-22757142D01*
X110995238Y-22661904D01*
X111090476Y-22614285D01*
X111280952Y-22566666D01*
X111423809Y-22566666D01*
X111614285Y-22614285D01*
X111709523Y-22661904D01*
X111804761Y-22757142D01*
X111852380Y-22900000D01*
X111852380Y-23138095D01*
X111280952Y-21995238D02*
X111233333Y-22090476D01*
X111185714Y-22138095D01*
X111090476Y-22185714D01*
X111042857Y-22185714D01*
X110947619Y-22138095D01*
X110900000Y-22090476D01*
X110852380Y-21995238D01*
X110852380Y-21804761D01*
X110900000Y-21709523D01*
X110947619Y-21661904D01*
X111042857Y-21614285D01*
X111090476Y-21614285D01*
X111185714Y-21661904D01*
X111233333Y-21709523D01*
X111280952Y-21804761D01*
X111280952Y-21995238D01*
X111328571Y-22090476D01*
X111376190Y-22138095D01*
X111471428Y-22185714D01*
X111661904Y-22185714D01*
X111757142Y-22138095D01*
X111804761Y-22090476D01*
X111852380Y-21995238D01*
X111852380Y-21804761D01*
X111804761Y-21709523D01*
X111757142Y-21661904D01*
X111661904Y-21614285D01*
X111471428Y-21614285D01*
X111376190Y-21661904D01*
X111328571Y-21709523D01*
X111280952Y-21804761D01*
G04 #@! TO.C,D7*
X25452380Y-41615595D02*
X24452380Y-41615595D01*
X24452380Y-41377500D01*
X24500000Y-41234642D01*
X24595238Y-41139404D01*
X24690476Y-41091785D01*
X24880952Y-41044166D01*
X25023809Y-41044166D01*
X25214285Y-41091785D01*
X25309523Y-41139404D01*
X25404761Y-41234642D01*
X25452380Y-41377500D01*
X25452380Y-41615595D01*
X24452380Y-40710833D02*
X24452380Y-40044166D01*
X25452380Y-40472738D01*
G04 #@! TO.C,R2*
X18048640Y-60641666D02*
X17572450Y-60975000D01*
X18048640Y-61213095D02*
X17048640Y-61213095D01*
X17048640Y-60832142D01*
X17096260Y-60736904D01*
X17143879Y-60689285D01*
X17239117Y-60641666D01*
X17381974Y-60641666D01*
X17477212Y-60689285D01*
X17524831Y-60736904D01*
X17572450Y-60832142D01*
X17572450Y-61213095D01*
X17143879Y-60260714D02*
X17096260Y-60213095D01*
X17048640Y-60117857D01*
X17048640Y-59879761D01*
X17096260Y-59784523D01*
X17143879Y-59736904D01*
X17239117Y-59689285D01*
X17334355Y-59689285D01*
X17477212Y-59736904D01*
X18048640Y-60308333D01*
X18048640Y-59689285D01*
G04 #@! TO.C,R1*
X99256120Y-56191666D02*
X98779930Y-56525000D01*
X99256120Y-56763095D02*
X98256120Y-56763095D01*
X98256120Y-56382142D01*
X98303740Y-56286904D01*
X98351359Y-56239285D01*
X98446597Y-56191666D01*
X98589454Y-56191666D01*
X98684692Y-56239285D01*
X98732311Y-56286904D01*
X98779930Y-56382142D01*
X98779930Y-56763095D01*
X99256120Y-55239285D02*
X99256120Y-55810714D01*
X99256120Y-55525000D02*
X98256120Y-55525000D01*
X98398978Y-55620238D01*
X98494216Y-55715476D01*
X98541835Y-55810714D01*
G04 #@! TO.C,R7*
X24552380Y-43266666D02*
X24076190Y-43600000D01*
X24552380Y-43838095D02*
X23552380Y-43838095D01*
X23552380Y-43457142D01*
X23600000Y-43361904D01*
X23647619Y-43314285D01*
X23742857Y-43266666D01*
X23885714Y-43266666D01*
X23980952Y-43314285D01*
X24028571Y-43361904D01*
X24076190Y-43457142D01*
X24076190Y-43838095D01*
X23552380Y-42933333D02*
X23552380Y-42266666D01*
X24552380Y-42695238D01*
D11*
G04 #@! TO.C,R3*
X64422500Y-55554724D02*
X64422500Y-55045276D01*
X63377500Y-55554724D02*
X63377500Y-55045276D01*
G04 #@! TO.C,R5*
X70422500Y-55554724D02*
X70422500Y-55045276D01*
X69377500Y-55554724D02*
X69377500Y-55045276D01*
G04 #@! TO.C,D9*
X66400000Y-66365000D02*
X63940000Y-66365000D01*
X63940000Y-66365000D02*
X63940000Y-67835000D01*
X63940000Y-67835000D02*
X66400000Y-67835000D01*
G04 #@! TO.C,D3*
X63159163Y-50425000D02*
X63159163Y-52885000D01*
X63159163Y-52885000D02*
X64629163Y-52885000D01*
X64629163Y-52885000D02*
X64629163Y-50425000D01*
G04 #@! TO.C,SW1*
X72150000Y-64620000D02*
X72640000Y-64130000D01*
X69250000Y-64620000D02*
X72150000Y-64620000D01*
X69250000Y-59180000D02*
X68760000Y-59670000D01*
X67980000Y-62940000D02*
X67980000Y-60860000D01*
X73420000Y-62940000D02*
X73420000Y-60860000D01*
X69250000Y-64620000D02*
X68760000Y-64130000D01*
X69250000Y-59180000D02*
X72150000Y-59180000D01*
X72150000Y-59180000D02*
X72640000Y-59670000D01*
G04 #@! TO.C,D4*
X66169368Y-50425000D02*
X66169368Y-52885000D01*
X66169368Y-52885000D02*
X67639368Y-52885000D01*
X67639368Y-52885000D02*
X67639368Y-50425000D01*
D12*
G04 #@! TO.C,G\u002A\u002A\u002A*
X54510051Y-41813805D02*
X54525207Y-41814497D01*
X54525207Y-41814497D02*
X54672862Y-41820757D01*
X54672862Y-41820757D02*
X54417411Y-42032424D01*
X54417411Y-42032424D02*
X53766089Y-42599319D01*
X53766089Y-42599319D02*
X53146209Y-43194549D01*
X53146209Y-43194549D02*
X52557916Y-43817942D01*
X52557916Y-43817942D02*
X52001352Y-44469328D01*
X52001352Y-44469328D02*
X51476663Y-45148534D01*
X51476663Y-45148534D02*
X50983993Y-45855391D01*
X50983993Y-45855391D02*
X50523487Y-46589725D01*
X50523487Y-46589725D02*
X50403392Y-46794924D01*
X50403392Y-46794924D02*
X50298739Y-46981833D01*
X50298739Y-46981833D02*
X50182566Y-47198653D01*
X50182566Y-47198653D02*
X50059464Y-47436146D01*
X50059464Y-47436146D02*
X49934024Y-47685074D01*
X49934024Y-47685074D02*
X49810837Y-47936201D01*
X49810837Y-47936201D02*
X49694495Y-48180288D01*
X49694495Y-48180288D02*
X49589589Y-48408100D01*
X49589589Y-48408100D02*
X49500710Y-48610397D01*
X49500710Y-48610397D02*
X49498644Y-48615257D01*
X49498644Y-48615257D02*
X49181738Y-49414788D01*
X49181738Y-49414788D02*
X48905625Y-50223817D01*
X48905625Y-50223817D02*
X48670262Y-51040972D01*
X48670262Y-51040972D02*
X48475608Y-51864882D01*
X48475608Y-51864882D02*
X48321620Y-52694177D01*
X48321620Y-52694177D02*
X48208256Y-53527485D01*
X48208256Y-53527485D02*
X48135476Y-54363436D01*
X48135476Y-54363436D02*
X48103236Y-55200659D01*
X48103236Y-55200659D02*
X48111495Y-56037782D01*
X48111495Y-56037782D02*
X48160211Y-56873436D01*
X48160211Y-56873436D02*
X48249342Y-57706249D01*
X48249342Y-57706249D02*
X48378845Y-58534850D01*
X48378845Y-58534850D02*
X48548680Y-59357869D01*
X48548680Y-59357869D02*
X48758805Y-60173935D01*
X48758805Y-60173935D02*
X49009176Y-60981676D01*
X49009176Y-60981676D02*
X49299753Y-61779722D01*
X49299753Y-61779722D02*
X49630493Y-62566702D01*
X49630493Y-62566702D02*
X49945635Y-63230840D01*
X49945635Y-63230840D02*
X50343868Y-63980055D01*
X50343868Y-63980055D02*
X50778266Y-64708748D01*
X50778266Y-64708748D02*
X51247455Y-65415256D01*
X51247455Y-65415256D02*
X51750061Y-66097917D01*
X51750061Y-66097917D02*
X52284707Y-66755066D01*
X52284707Y-66755066D02*
X52850019Y-67385039D01*
X52850019Y-67385039D02*
X53444622Y-67986174D01*
X53444622Y-67986174D02*
X54067141Y-68556806D01*
X54067141Y-68556806D02*
X54716202Y-69095272D01*
X54716202Y-69095272D02*
X54929043Y-69260334D01*
X54929043Y-69260334D02*
X55127236Y-69411507D01*
X55127236Y-69411507D02*
X54793418Y-69411507D01*
X54793418Y-69411507D02*
X54476384Y-69156430D01*
X54476384Y-69156430D02*
X54347912Y-69051844D01*
X54347912Y-69051844D02*
X54203518Y-68932306D01*
X54203518Y-68932306D02*
X54057194Y-68809518D01*
X54057194Y-68809518D02*
X53922931Y-68695181D01*
X53922931Y-68695181D02*
X53863017Y-68643381D01*
X53863017Y-68643381D02*
X53729781Y-68524156D01*
X53729781Y-68524156D02*
X53574445Y-68379739D01*
X53574445Y-68379739D02*
X53403269Y-68216364D01*
X53403269Y-68216364D02*
X53222516Y-68040267D01*
X53222516Y-68040267D02*
X53038449Y-67857682D01*
X53038449Y-67857682D02*
X52857328Y-67674842D01*
X52857328Y-67674842D02*
X52685417Y-67497984D01*
X52685417Y-67497984D02*
X52528977Y-67333341D01*
X52528977Y-67333341D02*
X52394271Y-67187147D01*
X52394271Y-67187147D02*
X52345401Y-67132431D01*
X52345401Y-67132431D02*
X51782302Y-66463055D01*
X51782302Y-66463055D02*
X51255600Y-65772348D01*
X51255600Y-65772348D02*
X50765664Y-65061125D01*
X50765664Y-65061125D02*
X50312863Y-64330199D01*
X50312863Y-64330199D02*
X49897563Y-63580386D01*
X49897563Y-63580386D02*
X49520132Y-62812498D01*
X49520132Y-62812498D02*
X49180940Y-62027352D01*
X49180940Y-62027352D02*
X48880353Y-61225760D01*
X48880353Y-61225760D02*
X48618739Y-60408537D01*
X48618739Y-60408537D02*
X48396466Y-59576498D01*
X48396466Y-59576498D02*
X48213903Y-58730456D01*
X48213903Y-58730456D02*
X48071417Y-57871226D01*
X48071417Y-57871226D02*
X48033881Y-57589924D01*
X48033881Y-57589924D02*
X48005001Y-57350883D01*
X48005001Y-57350883D02*
X47981038Y-57130056D01*
X47981038Y-57130056D02*
X47961583Y-56919943D01*
X47961583Y-56919943D02*
X47946227Y-56713046D01*
X47946227Y-56713046D02*
X47934560Y-56501867D01*
X47934560Y-56501867D02*
X47926172Y-56278907D01*
X47926172Y-56278907D02*
X47920656Y-56036669D01*
X47920656Y-56036669D02*
X47917600Y-55767653D01*
X47917600Y-55767653D02*
X47916596Y-55464361D01*
X47916596Y-55464361D02*
X47916592Y-55441507D01*
X47916592Y-55441507D02*
X47917467Y-55135517D01*
X47917467Y-55135517D02*
X47920364Y-54864332D01*
X47920364Y-54864332D02*
X47925695Y-54620453D01*
X47925695Y-54620453D02*
X47933866Y-54396380D01*
X47933866Y-54396380D02*
X47945289Y-54184617D01*
X47945289Y-54184617D02*
X47960372Y-53977664D01*
X47960372Y-53977664D02*
X47979525Y-53768023D01*
X47979525Y-53768023D02*
X48003157Y-53548196D01*
X48003157Y-53548196D02*
X48031677Y-53310684D01*
X48031677Y-53310684D02*
X48033881Y-53293090D01*
X48033881Y-53293090D02*
X48162403Y-52436825D01*
X48162403Y-52436825D02*
X48331130Y-51592154D01*
X48331130Y-51592154D02*
X48539414Y-50760293D01*
X48539414Y-50760293D02*
X48786610Y-49942457D01*
X48786610Y-49942457D02*
X49072071Y-49139863D01*
X49072071Y-49139863D02*
X49395150Y-48353724D01*
X49395150Y-48353724D02*
X49755199Y-47585258D01*
X49755199Y-47585258D02*
X50151572Y-46835679D01*
X50151572Y-46835679D02*
X50583623Y-46106204D01*
X50583623Y-46106204D02*
X51050705Y-45398047D01*
X51050705Y-45398047D02*
X51552170Y-44712425D01*
X51552170Y-44712425D02*
X52087372Y-44050553D01*
X52087372Y-44050553D02*
X52655664Y-43413646D01*
X52655664Y-43413646D02*
X53256399Y-42802921D01*
X53256399Y-42802921D02*
X53888931Y-42219592D01*
X53888931Y-42219592D02*
X53958267Y-42159024D01*
X53958267Y-42159024D02*
X54081599Y-42051758D01*
X54081599Y-42051758D02*
X54177697Y-41968847D01*
X54177697Y-41968847D02*
X54251586Y-41907236D01*
X54251586Y-41907236D02*
X54308294Y-41863870D01*
X54308294Y-41863870D02*
X54352847Y-41835695D01*
X54352847Y-41835695D02*
X54390272Y-41819656D01*
X54390272Y-41819656D02*
X54425597Y-41812697D01*
X54425597Y-41812697D02*
X54463848Y-41811765D01*
X54463848Y-41811765D02*
X54510051Y-41813805D01*
X54510051Y-41813805D02*
X54510051Y-41813805D01*
G36*
X54510051Y-41813805D02*
G01*
X54525207Y-41814497D01*
X54672862Y-41820757D01*
X54417411Y-42032424D01*
X53766089Y-42599319D01*
X53146209Y-43194549D01*
X52557916Y-43817942D01*
X52001352Y-44469328D01*
X51476663Y-45148534D01*
X50983993Y-45855391D01*
X50523487Y-46589725D01*
X50403392Y-46794924D01*
X50298739Y-46981833D01*
X50182566Y-47198653D01*
X50059464Y-47436146D01*
X49934024Y-47685074D01*
X49810837Y-47936201D01*
X49694495Y-48180288D01*
X49589589Y-48408100D01*
X49500710Y-48610397D01*
X49498644Y-48615257D01*
X49181738Y-49414788D01*
X48905625Y-50223817D01*
X48670262Y-51040972D01*
X48475608Y-51864882D01*
X48321620Y-52694177D01*
X48208256Y-53527485D01*
X48135476Y-54363436D01*
X48103236Y-55200659D01*
X48111495Y-56037782D01*
X48160211Y-56873436D01*
X48249342Y-57706249D01*
X48378845Y-58534850D01*
X48548680Y-59357869D01*
X48758805Y-60173935D01*
X49009176Y-60981676D01*
X49299753Y-61779722D01*
X49630493Y-62566702D01*
X49945635Y-63230840D01*
X50343868Y-63980055D01*
X50778266Y-64708748D01*
X51247455Y-65415256D01*
X51750061Y-66097917D01*
X52284707Y-66755066D01*
X52850019Y-67385039D01*
X53444622Y-67986174D01*
X54067141Y-68556806D01*
X54716202Y-69095272D01*
X54929043Y-69260334D01*
X55127236Y-69411507D01*
X54793418Y-69411507D01*
X54476384Y-69156430D01*
X54347912Y-69051844D01*
X54203518Y-68932306D01*
X54057194Y-68809518D01*
X53922931Y-68695181D01*
X53863017Y-68643381D01*
X53729781Y-68524156D01*
X53574445Y-68379739D01*
X53403269Y-68216364D01*
X53222516Y-68040267D01*
X53038449Y-67857682D01*
X52857328Y-67674842D01*
X52685417Y-67497984D01*
X52528977Y-67333341D01*
X52394271Y-67187147D01*
X52345401Y-67132431D01*
X51782302Y-66463055D01*
X51255600Y-65772348D01*
X50765664Y-65061125D01*
X50312863Y-64330199D01*
X49897563Y-63580386D01*
X49520132Y-62812498D01*
X49180940Y-62027352D01*
X48880353Y-61225760D01*
X48618739Y-60408537D01*
X48396466Y-59576498D01*
X48213903Y-58730456D01*
X48071417Y-57871226D01*
X48033881Y-57589924D01*
X48005001Y-57350883D01*
X47981038Y-57130056D01*
X47961583Y-56919943D01*
X47946227Y-56713046D01*
X47934560Y-56501867D01*
X47926172Y-56278907D01*
X47920656Y-56036669D01*
X47917600Y-55767653D01*
X47916596Y-55464361D01*
X47916592Y-55441507D01*
X47917467Y-55135517D01*
X47920364Y-54864332D01*
X47925695Y-54620453D01*
X47933866Y-54396380D01*
X47945289Y-54184617D01*
X47960372Y-53977664D01*
X47979525Y-53768023D01*
X48003157Y-53548196D01*
X48031677Y-53310684D01*
X48033881Y-53293090D01*
X48162403Y-52436825D01*
X48331130Y-51592154D01*
X48539414Y-50760293D01*
X48786610Y-49942457D01*
X49072071Y-49139863D01*
X49395150Y-48353724D01*
X49755199Y-47585258D01*
X50151572Y-46835679D01*
X50583623Y-46106204D01*
X51050705Y-45398047D01*
X51552170Y-44712425D01*
X52087372Y-44050553D01*
X52655664Y-43413646D01*
X53256399Y-42802921D01*
X53888931Y-42219592D01*
X53958267Y-42159024D01*
X54081599Y-42051758D01*
X54177697Y-41968847D01*
X54251586Y-41907236D01*
X54308294Y-41863870D01*
X54352847Y-41835695D01*
X54390272Y-41819656D01*
X54425597Y-41812697D01*
X54463848Y-41811765D01*
X54510051Y-41813805D01*
G37*
X54510051Y-41813805D02*
X54525207Y-41814497D01*
X54672862Y-41820757D01*
X54417411Y-42032424D01*
X53766089Y-42599319D01*
X53146209Y-43194549D01*
X52557916Y-43817942D01*
X52001352Y-44469328D01*
X51476663Y-45148534D01*
X50983993Y-45855391D01*
X50523487Y-46589725D01*
X50403392Y-46794924D01*
X50298739Y-46981833D01*
X50182566Y-47198653D01*
X50059464Y-47436146D01*
X49934024Y-47685074D01*
X49810837Y-47936201D01*
X49694495Y-48180288D01*
X49589589Y-48408100D01*
X49500710Y-48610397D01*
X49498644Y-48615257D01*
X49181738Y-49414788D01*
X48905625Y-50223817D01*
X48670262Y-51040972D01*
X48475608Y-51864882D01*
X48321620Y-52694177D01*
X48208256Y-53527485D01*
X48135476Y-54363436D01*
X48103236Y-55200659D01*
X48111495Y-56037782D01*
X48160211Y-56873436D01*
X48249342Y-57706249D01*
X48378845Y-58534850D01*
X48548680Y-59357869D01*
X48758805Y-60173935D01*
X49009176Y-60981676D01*
X49299753Y-61779722D01*
X49630493Y-62566702D01*
X49945635Y-63230840D01*
X50343868Y-63980055D01*
X50778266Y-64708748D01*
X51247455Y-65415256D01*
X51750061Y-66097917D01*
X52284707Y-66755066D01*
X52850019Y-67385039D01*
X53444622Y-67986174D01*
X54067141Y-68556806D01*
X54716202Y-69095272D01*
X54929043Y-69260334D01*
X55127236Y-69411507D01*
X54793418Y-69411507D01*
X54476384Y-69156430D01*
X54347912Y-69051844D01*
X54203518Y-68932306D01*
X54057194Y-68809518D01*
X53922931Y-68695181D01*
X53863017Y-68643381D01*
X53729781Y-68524156D01*
X53574445Y-68379739D01*
X53403269Y-68216364D01*
X53222516Y-68040267D01*
X53038449Y-67857682D01*
X52857328Y-67674842D01*
X52685417Y-67497984D01*
X52528977Y-67333341D01*
X52394271Y-67187147D01*
X52345401Y-67132431D01*
X51782302Y-66463055D01*
X51255600Y-65772348D01*
X50765664Y-65061125D01*
X50312863Y-64330199D01*
X49897563Y-63580386D01*
X49520132Y-62812498D01*
X49180940Y-62027352D01*
X48880353Y-61225760D01*
X48618739Y-60408537D01*
X48396466Y-59576498D01*
X48213903Y-58730456D01*
X48071417Y-57871226D01*
X48033881Y-57589924D01*
X48005001Y-57350883D01*
X47981038Y-57130056D01*
X47961583Y-56919943D01*
X47946227Y-56713046D01*
X47934560Y-56501867D01*
X47926172Y-56278907D01*
X47920656Y-56036669D01*
X47917600Y-55767653D01*
X47916596Y-55464361D01*
X47916592Y-55441507D01*
X47917467Y-55135517D01*
X47920364Y-54864332D01*
X47925695Y-54620453D01*
X47933866Y-54396380D01*
X47945289Y-54184617D01*
X47960372Y-53977664D01*
X47979525Y-53768023D01*
X48003157Y-53548196D01*
X48031677Y-53310684D01*
X48033881Y-53293090D01*
X48162403Y-52436825D01*
X48331130Y-51592154D01*
X48539414Y-50760293D01*
X48786610Y-49942457D01*
X49072071Y-49139863D01*
X49395150Y-48353724D01*
X49755199Y-47585258D01*
X50151572Y-46835679D01*
X50583623Y-46106204D01*
X51050705Y-45398047D01*
X51552170Y-44712425D01*
X52087372Y-44050553D01*
X52655664Y-43413646D01*
X53256399Y-42802921D01*
X53888931Y-42219592D01*
X53958267Y-42159024D01*
X54081599Y-42051758D01*
X54177697Y-41968847D01*
X54251586Y-41907236D01*
X54308294Y-41863870D01*
X54352847Y-41835695D01*
X54390272Y-41819656D01*
X54425597Y-41812697D01*
X54463848Y-41811765D01*
X54510051Y-41813805D01*
X76824145Y-41972367D02*
X77253332Y-42347646D01*
X77253332Y-42347646D02*
X77687182Y-42754901D01*
X77687182Y-42754901D02*
X78117563Y-43185755D01*
X78117563Y-43185755D02*
X78536345Y-43631829D01*
X78536345Y-43631829D02*
X78935397Y-44084746D01*
X78935397Y-44084746D02*
X79280620Y-44503425D01*
X79280620Y-44503425D02*
X79795340Y-45183373D01*
X79795340Y-45183373D02*
X80273814Y-45884134D01*
X80273814Y-45884134D02*
X80715782Y-46604223D01*
X80715782Y-46604223D02*
X81120986Y-47342155D01*
X81120986Y-47342155D02*
X81489165Y-48096447D01*
X81489165Y-48096447D02*
X81820060Y-48865614D01*
X81820060Y-48865614D02*
X82113410Y-49648173D01*
X82113410Y-49648173D02*
X82368956Y-50442638D01*
X82368956Y-50442638D02*
X82586438Y-51247526D01*
X82586438Y-51247526D02*
X82765597Y-52061352D01*
X82765597Y-52061352D02*
X82906173Y-52882633D01*
X82906173Y-52882633D02*
X83007905Y-53709883D01*
X83007905Y-53709883D02*
X83070535Y-54541619D01*
X83070535Y-54541619D02*
X83093803Y-55376356D01*
X83093803Y-55376356D02*
X83077448Y-56212611D01*
X83077448Y-56212611D02*
X83021211Y-57048898D01*
X83021211Y-57048898D02*
X82924832Y-57883735D01*
X82924832Y-57883735D02*
X82788052Y-58715635D01*
X82788052Y-58715635D02*
X82610610Y-59543116D01*
X82610610Y-59543116D02*
X82392248Y-60364693D01*
X82392248Y-60364693D02*
X82176470Y-61050770D01*
X82176470Y-61050770D02*
X81879284Y-61866340D01*
X81879284Y-61866340D02*
X81544420Y-62662837D01*
X81544420Y-62662837D02*
X81172234Y-63439615D01*
X81172234Y-63439615D02*
X80763078Y-64196023D01*
X80763078Y-64196023D02*
X80317307Y-64931413D01*
X80317307Y-64931413D02*
X79835274Y-65645136D01*
X79835274Y-65645136D02*
X79317333Y-66336544D01*
X79317333Y-66336544D02*
X79242755Y-66430548D01*
X79242755Y-66430548D02*
X78711628Y-67063122D01*
X78711628Y-67063122D02*
X78145136Y-67676047D01*
X78145136Y-67676047D02*
X77547234Y-68265357D01*
X77547234Y-68265357D02*
X76921878Y-68827088D01*
X76921878Y-68827088D02*
X76512469Y-69167548D01*
X76512469Y-69167548D02*
X76210008Y-69411507D01*
X76210008Y-69411507D02*
X76044238Y-69411507D01*
X76044238Y-69411507D02*
X75966778Y-69409411D01*
X75966778Y-69409411D02*
X75915343Y-69403734D01*
X75915343Y-69403734D02*
X75897218Y-69395395D01*
X75897218Y-69395395D02*
X75898575Y-69393153D01*
X75898575Y-69393153D02*
X75921826Y-69374199D01*
X75921826Y-69374199D02*
X75972070Y-69334573D01*
X75972070Y-69334573D02*
X76042741Y-69279413D01*
X76042741Y-69279413D02*
X76127275Y-69213855D01*
X76127275Y-69213855D02*
X76162100Y-69186951D01*
X76162100Y-69186951D02*
X76424394Y-68981073D01*
X76424394Y-68981073D02*
X76669203Y-68781163D01*
X76669203Y-68781163D02*
X76904376Y-68580261D01*
X76904376Y-68580261D02*
X77137762Y-68371406D01*
X77137762Y-68371406D02*
X77377210Y-68147639D01*
X77377210Y-68147639D02*
X77630569Y-67901998D01*
X77630569Y-67901998D02*
X77793112Y-67740634D01*
X77793112Y-67740634D02*
X78022731Y-67508573D01*
X78022731Y-67508573D02*
X78227582Y-67295971D01*
X78227582Y-67295971D02*
X78415000Y-67094689D01*
X78415000Y-67094689D02*
X78592319Y-66896588D01*
X78592319Y-66896588D02*
X78766873Y-66693529D01*
X78766873Y-66693529D02*
X78945997Y-66477374D01*
X78945997Y-66477374D02*
X79072215Y-66321174D01*
X79072215Y-66321174D02*
X79591431Y-65639519D01*
X79591431Y-65639519D02*
X80075452Y-64934885D01*
X80075452Y-64934885D02*
X80523594Y-64208660D01*
X80523594Y-64208660D02*
X80935172Y-63462231D01*
X80935172Y-63462231D02*
X81309504Y-62696986D01*
X81309504Y-62696986D02*
X81645904Y-61914311D01*
X81645904Y-61914311D02*
X81943690Y-61115594D01*
X81943690Y-61115594D02*
X82202177Y-60302223D01*
X82202177Y-60302223D02*
X82395538Y-59579754D01*
X82395538Y-59579754D02*
X82525713Y-59013221D01*
X82525713Y-59013221D02*
X82633862Y-58464766D01*
X82633862Y-58464766D02*
X82721044Y-57925372D01*
X82721044Y-57925372D02*
X82788323Y-57386019D01*
X82788323Y-57386019D02*
X82836758Y-56837690D01*
X82836758Y-56837690D02*
X82867410Y-56271364D01*
X82867410Y-56271364D02*
X82881342Y-55678025D01*
X82881342Y-55678025D02*
X82882473Y-55441507D01*
X82882473Y-55441507D02*
X82881881Y-55166362D01*
X82881881Y-55166362D02*
X82879850Y-54925805D01*
X82879850Y-54925805D02*
X82875994Y-54712101D01*
X82875994Y-54712101D02*
X82869929Y-54517517D01*
X82869929Y-54517517D02*
X82861270Y-54334319D01*
X82861270Y-54334319D02*
X82849633Y-54154774D01*
X82849633Y-54154774D02*
X82834632Y-53971150D01*
X82834632Y-53971150D02*
X82815883Y-53775711D01*
X82815883Y-53775711D02*
X82793002Y-53560726D01*
X82793002Y-53560726D02*
X82785601Y-53494174D01*
X82785601Y-53494174D02*
X82669992Y-52651713D01*
X82669992Y-52651713D02*
X82513211Y-51817235D01*
X82513211Y-51817235D02*
X82315934Y-50992341D01*
X82315934Y-50992341D02*
X82078838Y-50178634D01*
X82078838Y-50178634D02*
X81802599Y-49377717D01*
X81802599Y-49377717D02*
X81487894Y-48591190D01*
X81487894Y-48591190D02*
X81135401Y-47820658D01*
X81135401Y-47820658D02*
X80745796Y-47067721D01*
X80745796Y-47067721D02*
X80319756Y-46333982D01*
X80319756Y-46333982D02*
X79857957Y-45621043D01*
X79857957Y-45621043D02*
X79361078Y-44930507D01*
X79361078Y-44930507D02*
X78945179Y-44403090D01*
X78945179Y-44403090D02*
X78739734Y-44157529D01*
X78739734Y-44157529D02*
X78533035Y-43920674D01*
X78533035Y-43920674D02*
X78317116Y-43683786D01*
X78317116Y-43683786D02*
X78084013Y-43438129D01*
X78084013Y-43438129D02*
X77825761Y-43174966D01*
X77825761Y-43174966D02*
X77823850Y-43173046D01*
X77823850Y-43173046D02*
X77632011Y-42981591D01*
X77632011Y-42981591D02*
X77461186Y-42814267D01*
X77461186Y-42814267D02*
X77303736Y-42664042D01*
X77303736Y-42664042D02*
X77152023Y-42523882D01*
X77152023Y-42523882D02*
X76998408Y-42386755D01*
X76998408Y-42386755D02*
X76835254Y-42245627D01*
X76835254Y-42245627D02*
X76654921Y-42093466D01*
X76654921Y-42093466D02*
X76616611Y-42061499D01*
X76616611Y-42061499D02*
X76327655Y-41820757D01*
X76327655Y-41820757D02*
X76478297Y-41814526D01*
X76478297Y-41814526D02*
X76628940Y-41808295D01*
X76628940Y-41808295D02*
X76824145Y-41972367D01*
X76824145Y-41972367D02*
X76824145Y-41972367D01*
G36*
X76824145Y-41972367D02*
G01*
X77253332Y-42347646D01*
X77687182Y-42754901D01*
X78117563Y-43185755D01*
X78536345Y-43631829D01*
X78935397Y-44084746D01*
X79280620Y-44503425D01*
X79795340Y-45183373D01*
X80273814Y-45884134D01*
X80715782Y-46604223D01*
X81120986Y-47342155D01*
X81489165Y-48096447D01*
X81820060Y-48865614D01*
X82113410Y-49648173D01*
X82368956Y-50442638D01*
X82586438Y-51247526D01*
X82765597Y-52061352D01*
X82906173Y-52882633D01*
X83007905Y-53709883D01*
X83070535Y-54541619D01*
X83093803Y-55376356D01*
X83077448Y-56212611D01*
X83021211Y-57048898D01*
X82924832Y-57883735D01*
X82788052Y-58715635D01*
X82610610Y-59543116D01*
X82392248Y-60364693D01*
X82176470Y-61050770D01*
X81879284Y-61866340D01*
X81544420Y-62662837D01*
X81172234Y-63439615D01*
X80763078Y-64196023D01*
X80317307Y-64931413D01*
X79835274Y-65645136D01*
X79317333Y-66336544D01*
X79242755Y-66430548D01*
X78711628Y-67063122D01*
X78145136Y-67676047D01*
X77547234Y-68265357D01*
X76921878Y-68827088D01*
X76512469Y-69167548D01*
X76210008Y-69411507D01*
X76044238Y-69411507D01*
X75966778Y-69409411D01*
X75915343Y-69403734D01*
X75897218Y-69395395D01*
X75898575Y-69393153D01*
X75921826Y-69374199D01*
X75972070Y-69334573D01*
X76042741Y-69279413D01*
X76127275Y-69213855D01*
X76162100Y-69186951D01*
X76424394Y-68981073D01*
X76669203Y-68781163D01*
X76904376Y-68580261D01*
X77137762Y-68371406D01*
X77377210Y-68147639D01*
X77630569Y-67901998D01*
X77793112Y-67740634D01*
X78022731Y-67508573D01*
X78227582Y-67295971D01*
X78415000Y-67094689D01*
X78592319Y-66896588D01*
X78766873Y-66693529D01*
X78945997Y-66477374D01*
X79072215Y-66321174D01*
X79591431Y-65639519D01*
X80075452Y-64934885D01*
X80523594Y-64208660D01*
X80935172Y-63462231D01*
X81309504Y-62696986D01*
X81645904Y-61914311D01*
X81943690Y-61115594D01*
X82202177Y-60302223D01*
X82395538Y-59579754D01*
X82525713Y-59013221D01*
X82633862Y-58464766D01*
X82721044Y-57925372D01*
X82788323Y-57386019D01*
X82836758Y-56837690D01*
X82867410Y-56271364D01*
X82881342Y-55678025D01*
X82882473Y-55441507D01*
X82881881Y-55166362D01*
X82879850Y-54925805D01*
X82875994Y-54712101D01*
X82869929Y-54517517D01*
X82861270Y-54334319D01*
X82849633Y-54154774D01*
X82834632Y-53971150D01*
X82815883Y-53775711D01*
X82793002Y-53560726D01*
X82785601Y-53494174D01*
X82669992Y-52651713D01*
X82513211Y-51817235D01*
X82315934Y-50992341D01*
X82078838Y-50178634D01*
X81802599Y-49377717D01*
X81487894Y-48591190D01*
X81135401Y-47820658D01*
X80745796Y-47067721D01*
X80319756Y-46333982D01*
X79857957Y-45621043D01*
X79361078Y-44930507D01*
X78945179Y-44403090D01*
X78739734Y-44157529D01*
X78533035Y-43920674D01*
X78317116Y-43683786D01*
X78084013Y-43438129D01*
X77825761Y-43174966D01*
X77823850Y-43173046D01*
X77632011Y-42981591D01*
X77461186Y-42814267D01*
X77303736Y-42664042D01*
X77152023Y-42523882D01*
X76998408Y-42386755D01*
X76835254Y-42245627D01*
X76654921Y-42093466D01*
X76616611Y-42061499D01*
X76327655Y-41820757D01*
X76478297Y-41814526D01*
X76628940Y-41808295D01*
X76824145Y-41972367D01*
G37*
X76824145Y-41972367D02*
X77253332Y-42347646D01*
X77687182Y-42754901D01*
X78117563Y-43185755D01*
X78536345Y-43631829D01*
X78935397Y-44084746D01*
X79280620Y-44503425D01*
X79795340Y-45183373D01*
X80273814Y-45884134D01*
X80715782Y-46604223D01*
X81120986Y-47342155D01*
X81489165Y-48096447D01*
X81820060Y-48865614D01*
X82113410Y-49648173D01*
X82368956Y-50442638D01*
X82586438Y-51247526D01*
X82765597Y-52061352D01*
X82906173Y-52882633D01*
X83007905Y-53709883D01*
X83070535Y-54541619D01*
X83093803Y-55376356D01*
X83077448Y-56212611D01*
X83021211Y-57048898D01*
X82924832Y-57883735D01*
X82788052Y-58715635D01*
X82610610Y-59543116D01*
X82392248Y-60364693D01*
X82176470Y-61050770D01*
X81879284Y-61866340D01*
X81544420Y-62662837D01*
X81172234Y-63439615D01*
X80763078Y-64196023D01*
X80317307Y-64931413D01*
X79835274Y-65645136D01*
X79317333Y-66336544D01*
X79242755Y-66430548D01*
X78711628Y-67063122D01*
X78145136Y-67676047D01*
X77547234Y-68265357D01*
X76921878Y-68827088D01*
X76512469Y-69167548D01*
X76210008Y-69411507D01*
X76044238Y-69411507D01*
X75966778Y-69409411D01*
X75915343Y-69403734D01*
X75897218Y-69395395D01*
X75898575Y-69393153D01*
X75921826Y-69374199D01*
X75972070Y-69334573D01*
X76042741Y-69279413D01*
X76127275Y-69213855D01*
X76162100Y-69186951D01*
X76424394Y-68981073D01*
X76669203Y-68781163D01*
X76904376Y-68580261D01*
X77137762Y-68371406D01*
X77377210Y-68147639D01*
X77630569Y-67901998D01*
X77793112Y-67740634D01*
X78022731Y-67508573D01*
X78227582Y-67295971D01*
X78415000Y-67094689D01*
X78592319Y-66896588D01*
X78766873Y-66693529D01*
X78945997Y-66477374D01*
X79072215Y-66321174D01*
X79591431Y-65639519D01*
X80075452Y-64934885D01*
X80523594Y-64208660D01*
X80935172Y-63462231D01*
X81309504Y-62696986D01*
X81645904Y-61914311D01*
X81943690Y-61115594D01*
X82202177Y-60302223D01*
X82395538Y-59579754D01*
X82525713Y-59013221D01*
X82633862Y-58464766D01*
X82721044Y-57925372D01*
X82788323Y-57386019D01*
X82836758Y-56837690D01*
X82867410Y-56271364D01*
X82881342Y-55678025D01*
X82882473Y-55441507D01*
X82881881Y-55166362D01*
X82879850Y-54925805D01*
X82875994Y-54712101D01*
X82869929Y-54517517D01*
X82861270Y-54334319D01*
X82849633Y-54154774D01*
X82834632Y-53971150D01*
X82815883Y-53775711D01*
X82793002Y-53560726D01*
X82785601Y-53494174D01*
X82669992Y-52651713D01*
X82513211Y-51817235D01*
X82315934Y-50992341D01*
X82078838Y-50178634D01*
X81802599Y-49377717D01*
X81487894Y-48591190D01*
X81135401Y-47820658D01*
X80745796Y-47067721D01*
X80319756Y-46333982D01*
X79857957Y-45621043D01*
X79361078Y-44930507D01*
X78945179Y-44403090D01*
X78739734Y-44157529D01*
X78533035Y-43920674D01*
X78317116Y-43683786D01*
X78084013Y-43438129D01*
X77825761Y-43174966D01*
X77823850Y-43173046D01*
X77632011Y-42981591D01*
X77461186Y-42814267D01*
X77303736Y-42664042D01*
X77152023Y-42523882D01*
X76998408Y-42386755D01*
X76835254Y-42245627D01*
X76654921Y-42093466D01*
X76616611Y-42061499D01*
X76327655Y-41820757D01*
X76478297Y-41814526D01*
X76628940Y-41808295D01*
X76824145Y-41972367D01*
D11*
G04 #@! TO.C,D6*
X73635000Y-52885000D02*
X73635000Y-50425000D01*
X72165000Y-50425000D02*
X72165000Y-52885000D01*
X72165000Y-52885000D02*
X73635000Y-52885000D01*
G04 #@! TO.C,R6*
X72277500Y-55467224D02*
X72277500Y-54957776D01*
X73322500Y-55467224D02*
X73322500Y-54957776D01*
G04 #@! TO.C,D1*
X57168740Y-52885000D02*
X58638740Y-52885000D01*
X58638740Y-52885000D02*
X58638740Y-50425000D01*
X57168740Y-50425000D02*
X57168740Y-52885000D01*
G04 #@! TO.C,D5*
X69152430Y-50425000D02*
X69152430Y-52885000D01*
X70622430Y-52885000D02*
X70622430Y-50425000D01*
X69152430Y-52885000D02*
X70622430Y-52885000D01*
G04 #@! TO.C,R8*
X70222500Y-43954724D02*
X70222500Y-43445276D01*
X69177500Y-43954724D02*
X69177500Y-43445276D01*
G04 #@! TO.C,R4*
X67322500Y-55554724D02*
X67322500Y-55045276D01*
X66277500Y-55554724D02*
X66277500Y-55045276D01*
G04 #@! TO.C,D2*
X60206569Y-50470000D02*
X60206569Y-52930000D01*
X61676569Y-52930000D02*
X61676569Y-50470000D01*
X60206569Y-52930000D02*
X61676569Y-52930000D01*
D10*
G04 #@! TO.C,U1*
X56850000Y-64655000D02*
X62350000Y-64655000D01*
X62350000Y-64655000D02*
X62350000Y-64355000D01*
X56850000Y-59145000D02*
X62350000Y-59145000D01*
X62350000Y-59145000D02*
X62350000Y-59445000D01*
X56850000Y-59145000D02*
X56850000Y-59350000D01*
X56850000Y-59350000D02*
X55100000Y-59350000D01*
X56850000Y-64655000D02*
X56850000Y-64355000D01*
D11*
G04 #@! TO.C,D8*
X66465000Y-42900000D02*
X66465000Y-45360000D01*
X67935000Y-45360000D02*
X67935000Y-42900000D01*
X66465000Y-45360000D02*
X67935000Y-45360000D01*
G04 #@! TO.C,D7*
X64735000Y-45360000D02*
X64735000Y-42900000D01*
X63265000Y-45360000D02*
X64735000Y-45360000D01*
X63265000Y-42900000D02*
X63265000Y-45360000D01*
G04 #@! TO.C,R2*
X60377500Y-55454724D02*
X60377500Y-54945276D01*
X61422500Y-55454724D02*
X61422500Y-54945276D01*
G04 #@! TO.C,R1*
X58422500Y-55354724D02*
X58422500Y-54845276D01*
X57377500Y-55354724D02*
X57377500Y-54845276D01*
G04 #@! TO.C,R7*
X62122500Y-43467776D02*
X62122500Y-43977224D01*
X61077500Y-43467776D02*
X61077500Y-43977224D01*
G04 #@! TD*
M02*
