M48
; DRILL file {KiCad (6.0.1)} date Thu Jun  2 08:59:46 2022
; FORMAT={3:3/ absolute / metric / suppress leading zeros}
; #@! TF.CreationDate,2022-06-02T08:59:46+05:30
; #@! TF.GenerationSoftware,Kicad,Pcbnew,(6.0.1)
; #@! TF.FileFunction,MixedPlating,1,2
FMAT,2
METRIC,TZ
; #@! TA.AperFunction,Plated,PTH,ViaDrill
T1C0.400
%
G90
G05
T1
X55400Y-58400
X55724Y-51801
X55881Y-49243
X56100Y-57600
X58100Y-48900
X58400Y-65800
X58600Y-62300
X59400Y-51300
X59400Y-60100
X60900Y-68300
X64500Y-45900
X64500Y-58400
X64600Y-49100
X64700Y-65700
X65000Y-59600
X65300Y-54400
X66000Y-60300
X68000Y-68000
X68200Y-41500
X68300Y-56200
X68400Y-70100
X68500Y-51000
X69500Y-66100
X70600Y-65100
X71100Y-66800
X71400Y-51900
X71400Y-53400
X72600Y-66800
X72900Y-43700
X73900Y-67000
X74000Y-65424
X74200Y-50700
X75800Y-65300
X76900Y-58100
X77900Y-50400
X79000Y-54000
X79100Y-59300
T0
M30
