G04 #@! TF.GenerationSoftware,KiCad,Pcbnew,(6.0.1)*
G04 #@! TF.CreationDate,2022-06-02T08:59:42+05:30*
G04 #@! TF.ProjectId,BCD watch V1.0,42434420-7761-4746-9368-2056312e302e,rev?*
G04 #@! TF.SameCoordinates,Original*
G04 #@! TF.FileFunction,Copper,L1,Top*
G04 #@! TF.FilePolarity,Positive*
%FSLAX46Y46*%
G04 Gerber Fmt 4.6, Leading zero omitted, Abs format (unit mm)*
G04 Created by KiCad (PCBNEW (6.0.1)) date 2022-06-02 08:59:42*
%MOMM*%
%LPD*%
G01*
G04 APERTURE LIST*
G04 Aperture macros list*
%AMRoundRect*
0 Rectangle with rounded corners*
0 $1 Rounding radius*
0 $2 $3 $4 $5 $6 $7 $8 $9 X,Y pos of 4 corners*
0 Add a 4 corners polygon primitive as box body*
4,1,4,$2,$3,$4,$5,$6,$7,$8,$9,$2,$3,0*
0 Add four circle primitives for the rounded corners*
1,1,$1+$1,$2,$3*
1,1,$1+$1,$4,$5*
1,1,$1+$1,$6,$7*
1,1,$1+$1,$8,$9*
0 Add four rect primitives between the rounded corners*
20,1,$1+$1,$2,$3,$4,$5,0*
20,1,$1+$1,$4,$5,$6,$7,0*
20,1,$1+$1,$6,$7,$8,$9,0*
20,1,$1+$1,$8,$9,$2,$3,0*%
G04 Aperture macros list end*
G04 #@! TA.AperFunction,EtchedComponent*
%ADD10C,0.010000*%
G04 #@! TD*
G04 #@! TA.AperFunction,SMDPad,CuDef*
%ADD11RoundRect,0.237500X0.237500X-0.250000X0.237500X0.250000X-0.237500X0.250000X-0.237500X-0.250000X0*%
G04 #@! TD*
G04 #@! TA.AperFunction,SMDPad,CuDef*
%ADD12RoundRect,0.237500X-0.287500X-0.237500X0.287500X-0.237500X0.287500X0.237500X-0.287500X0.237500X0*%
G04 #@! TD*
G04 #@! TA.AperFunction,SMDPad,CuDef*
%ADD13RoundRect,0.237500X0.237500X-0.287500X0.237500X0.287500X-0.237500X0.287500X-0.237500X-0.287500X0*%
G04 #@! TD*
G04 #@! TA.AperFunction,SMDPad,CuDef*
%ADD14R,1.800000X1.100000*%
G04 #@! TD*
G04 #@! TA.AperFunction,SMDPad,CuDef*
%ADD15R,1.700000X0.650000*%
G04 #@! TD*
G04 #@! TA.AperFunction,SMDPad,CuDef*
%ADD16RoundRect,0.237500X-0.237500X0.250000X-0.237500X-0.250000X0.237500X-0.250000X0.237500X0.250000X0*%
G04 #@! TD*
G04 #@! TA.AperFunction,ViaPad*
%ADD17C,0.600000*%
G04 #@! TD*
G04 #@! TA.AperFunction,Conductor*
%ADD18C,0.250000*%
G04 #@! TD*
G04 APERTURE END LIST*
D10*
G04 #@! TO.C,G\u002A\u002A\u002A*
X56693919Y-41811527D02*
X57106455Y-41811740D01*
X57106455Y-41811740D02*
X57478654Y-41811998D01*
X57478654Y-41811998D02*
X57812509Y-41812326D01*
X57812509Y-41812326D02*
X58110016Y-41812749D01*
X58110016Y-41812749D02*
X58373171Y-41813292D01*
X58373171Y-41813292D02*
X58603968Y-41813979D01*
X58603968Y-41813979D02*
X58804402Y-41814836D01*
X58804402Y-41814836D02*
X58976469Y-41815888D01*
X58976469Y-41815888D02*
X59122163Y-41817160D01*
X59122163Y-41817160D02*
X59243480Y-41818677D01*
X59243480Y-41818677D02*
X59342415Y-41820464D01*
X59342415Y-41820464D02*
X59420963Y-41822546D01*
X59420963Y-41822546D02*
X59481120Y-41824947D01*
X59481120Y-41824947D02*
X59524879Y-41827693D01*
X59524879Y-41827693D02*
X59554237Y-41830809D01*
X59554237Y-41830809D02*
X59571188Y-41834320D01*
X59571188Y-41834320D02*
X59577728Y-41838250D01*
X59577728Y-41838250D02*
X59575852Y-41842626D01*
X59575852Y-41842626D02*
X59567555Y-41847471D01*
X59567555Y-41847471D02*
X59567434Y-41847528D01*
X59567434Y-41847528D02*
X59213687Y-42015134D01*
X59213687Y-42015134D02*
X58893451Y-42171755D01*
X58893451Y-42171755D02*
X58600445Y-42320849D01*
X58600445Y-42320849D02*
X58328386Y-42465876D01*
X58328386Y-42465876D02*
X58070992Y-42610297D01*
X58070992Y-42610297D02*
X57821983Y-42757571D01*
X57821983Y-42757571D02*
X57575077Y-42911157D01*
X57575077Y-42911157D02*
X57323992Y-43074515D01*
X57323992Y-43074515D02*
X57249684Y-43124087D01*
X57249684Y-43124087D02*
X56605656Y-43581016D01*
X56605656Y-43581016D02*
X55990101Y-44068498D01*
X55990101Y-44068498D02*
X55403838Y-44585183D01*
X55403838Y-44585183D02*
X54847688Y-45129722D01*
X54847688Y-45129722D02*
X54322470Y-45700765D01*
X54322470Y-45700765D02*
X53829004Y-46296962D01*
X53829004Y-46296962D02*
X53368110Y-46916965D01*
X53368110Y-46916965D02*
X52940607Y-47559422D01*
X52940607Y-47559422D02*
X52547317Y-48222985D01*
X52547317Y-48222985D02*
X52189058Y-48906304D01*
X52189058Y-48906304D02*
X51866650Y-49608029D01*
X51866650Y-49608029D02*
X51580914Y-50326810D01*
X51580914Y-50326810D02*
X51332669Y-51061299D01*
X51332669Y-51061299D02*
X51122735Y-51810145D01*
X51122735Y-51810145D02*
X50951933Y-52571998D01*
X50951933Y-52571998D02*
X50821081Y-53345510D01*
X50821081Y-53345510D02*
X50763580Y-53801090D01*
X50763580Y-53801090D02*
X50735285Y-54073796D01*
X50735285Y-54073796D02*
X50713411Y-54325876D01*
X50713411Y-54325876D02*
X50697328Y-54569335D01*
X50697328Y-54569335D02*
X50686406Y-54816176D01*
X50686406Y-54816176D02*
X50680014Y-55078401D01*
X50680014Y-55078401D02*
X50677521Y-55368014D01*
X50677521Y-55368014D02*
X50677434Y-55441507D01*
X50677434Y-55441507D02*
X50678261Y-55619197D01*
X50678261Y-55619197D02*
X50680590Y-55801977D01*
X50680590Y-55801977D02*
X50684192Y-55980088D01*
X50684192Y-55980088D02*
X50688835Y-56143773D01*
X50688835Y-56143773D02*
X50694291Y-56283274D01*
X50694291Y-56283274D02*
X50699456Y-56376448D01*
X50699456Y-56376448D02*
X50774476Y-57176652D01*
X50774476Y-57176652D02*
X50889963Y-57965829D01*
X50889963Y-57965829D02*
X51045549Y-58742983D01*
X51045549Y-58742983D02*
X51240865Y-59507120D01*
X51240865Y-59507120D02*
X51475542Y-60257243D01*
X51475542Y-60257243D02*
X51749212Y-60992358D01*
X51749212Y-60992358D02*
X52061506Y-61711468D01*
X52061506Y-61711468D02*
X52412056Y-62413579D01*
X52412056Y-62413579D02*
X52800491Y-63097694D01*
X52800491Y-63097694D02*
X53226445Y-63762819D01*
X53226445Y-63762819D02*
X53659612Y-64368360D01*
X53659612Y-64368360D02*
X54152348Y-64987503D01*
X54152348Y-64987503D02*
X54674887Y-65576815D01*
X54674887Y-65576815D02*
X55226368Y-66135648D01*
X55226368Y-66135648D02*
X55805929Y-66663357D01*
X55805929Y-66663357D02*
X56412708Y-67159293D01*
X56412708Y-67159293D02*
X57045843Y-67622809D01*
X57045843Y-67622809D02*
X57704471Y-68053260D01*
X57704471Y-68053260D02*
X58387732Y-68449998D01*
X58387732Y-68449998D02*
X59094763Y-68812376D01*
X59094763Y-68812376D02*
X59824702Y-69139747D01*
X59824702Y-69139747D02*
X60237176Y-69305243D01*
X60237176Y-69305243D02*
X60509350Y-69409997D01*
X60509350Y-69409997D02*
X54138184Y-69409891D01*
X54138184Y-69409891D02*
X53841850Y-69154962D01*
X53841850Y-69154962D02*
X53178050Y-68557221D01*
X53178050Y-68557221D02*
X52549950Y-67936766D01*
X52549950Y-67936766D02*
X51957392Y-67293382D01*
X51957392Y-67293382D02*
X51400217Y-66626854D01*
X51400217Y-66626854D02*
X50878267Y-65936966D01*
X50878267Y-65936966D02*
X50391383Y-65223505D01*
X50391383Y-65223505D02*
X49939407Y-64486256D01*
X49939407Y-64486256D02*
X49522179Y-63725003D01*
X49522179Y-63725003D02*
X49139542Y-62939532D01*
X49139542Y-62939532D02*
X48967973Y-62553507D01*
X48967973Y-62553507D02*
X48672856Y-61827266D01*
X48672856Y-61827266D02*
X48412403Y-61097142D01*
X48412403Y-61097142D02*
X48185599Y-60358950D01*
X48185599Y-60358950D02*
X47991429Y-59608506D01*
X47991429Y-59608506D02*
X47828878Y-58841625D01*
X47828878Y-58841625D02*
X47696932Y-58054122D01*
X47696932Y-58054122D02*
X47594575Y-57241812D01*
X47594575Y-57241812D02*
X47541035Y-56669174D01*
X47541035Y-56669174D02*
X47533465Y-56547692D01*
X47533465Y-56547692D02*
X47527177Y-56390505D01*
X47527177Y-56390505D02*
X47522171Y-56204222D01*
X47522171Y-56204222D02*
X47518448Y-55995450D01*
X47518448Y-55995450D02*
X47516007Y-55770798D01*
X47516007Y-55770798D02*
X47514849Y-55536876D01*
X47514849Y-55536876D02*
X47514974Y-55300291D01*
X47514974Y-55300291D02*
X47516381Y-55067652D01*
X47516381Y-55067652D02*
X47519071Y-54845568D01*
X47519071Y-54845568D02*
X47523043Y-54640646D01*
X47523043Y-54640646D02*
X47528297Y-54459497D01*
X47528297Y-54459497D02*
X47534835Y-54308728D01*
X47534835Y-54308728D02*
X47541035Y-54213840D01*
X47541035Y-54213840D02*
X47616840Y-53437754D01*
X47616840Y-53437754D02*
X47716772Y-52691123D01*
X47716772Y-52691123D02*
X47842202Y-51967704D01*
X47842202Y-51967704D02*
X47994496Y-51261258D01*
X47994496Y-51261258D02*
X48175026Y-50565542D01*
X48175026Y-50565542D02*
X48385160Y-49874316D01*
X48385160Y-49874316D02*
X48626266Y-49181339D01*
X48626266Y-49181339D02*
X48671620Y-49059757D01*
X48671620Y-49059757D02*
X48983736Y-48289555D01*
X48983736Y-48289555D02*
X49335149Y-47530265D01*
X49335149Y-47530265D02*
X49723982Y-46784634D01*
X49723982Y-46784634D02*
X50148355Y-46055404D01*
X50148355Y-46055404D02*
X50606391Y-45345322D01*
X50606391Y-45345322D02*
X51096209Y-44657131D01*
X51096209Y-44657131D02*
X51615933Y-43993577D01*
X51615933Y-43993577D02*
X52163683Y-43357403D01*
X52163683Y-43357403D02*
X52737580Y-42751356D01*
X52737580Y-42751356D02*
X53335746Y-42178179D01*
X53335746Y-42178179D02*
X53456183Y-42069465D01*
X53456183Y-42069465D02*
X53746321Y-41810174D01*
X53746321Y-41810174D02*
X56693919Y-41811527D01*
X56693919Y-41811527D02*
X56693919Y-41811527D01*
G36*
X56693919Y-41811527D02*
G01*
X57106455Y-41811740D01*
X57478654Y-41811998D01*
X57812509Y-41812326D01*
X58110016Y-41812749D01*
X58373171Y-41813292D01*
X58603968Y-41813979D01*
X58804402Y-41814836D01*
X58976469Y-41815888D01*
X59122163Y-41817160D01*
X59243480Y-41818677D01*
X59342415Y-41820464D01*
X59420963Y-41822546D01*
X59481120Y-41824947D01*
X59524879Y-41827693D01*
X59554237Y-41830809D01*
X59571188Y-41834320D01*
X59577728Y-41838250D01*
X59575852Y-41842626D01*
X59567555Y-41847471D01*
X59567434Y-41847528D01*
X59213687Y-42015134D01*
X58893451Y-42171755D01*
X58600445Y-42320849D01*
X58328386Y-42465876D01*
X58070992Y-42610297D01*
X57821983Y-42757571D01*
X57575077Y-42911157D01*
X57323992Y-43074515D01*
X57249684Y-43124087D01*
X56605656Y-43581016D01*
X55990101Y-44068498D01*
X55403838Y-44585183D01*
X54847688Y-45129722D01*
X54322470Y-45700765D01*
X53829004Y-46296962D01*
X53368110Y-46916965D01*
X52940607Y-47559422D01*
X52547317Y-48222985D01*
X52189058Y-48906304D01*
X51866650Y-49608029D01*
X51580914Y-50326810D01*
X51332669Y-51061299D01*
X51122735Y-51810145D01*
X50951933Y-52571998D01*
X50821081Y-53345510D01*
X50763580Y-53801090D01*
X50735285Y-54073796D01*
X50713411Y-54325876D01*
X50697328Y-54569335D01*
X50686406Y-54816176D01*
X50680014Y-55078401D01*
X50677521Y-55368014D01*
X50677434Y-55441507D01*
X50678261Y-55619197D01*
X50680590Y-55801977D01*
X50684192Y-55980088D01*
X50688835Y-56143773D01*
X50694291Y-56283274D01*
X50699456Y-56376448D01*
X50774476Y-57176652D01*
X50889963Y-57965829D01*
X51045549Y-58742983D01*
X51240865Y-59507120D01*
X51475542Y-60257243D01*
X51749212Y-60992358D01*
X52061506Y-61711468D01*
X52412056Y-62413579D01*
X52800491Y-63097694D01*
X53226445Y-63762819D01*
X53659612Y-64368360D01*
X54152348Y-64987503D01*
X54674887Y-65576815D01*
X55226368Y-66135648D01*
X55805929Y-66663357D01*
X56412708Y-67159293D01*
X57045843Y-67622809D01*
X57704471Y-68053260D01*
X58387732Y-68449998D01*
X59094763Y-68812376D01*
X59824702Y-69139747D01*
X60237176Y-69305243D01*
X60509350Y-69409997D01*
X54138184Y-69409891D01*
X53841850Y-69154962D01*
X53178050Y-68557221D01*
X52549950Y-67936766D01*
X51957392Y-67293382D01*
X51400217Y-66626854D01*
X50878267Y-65936966D01*
X50391383Y-65223505D01*
X49939407Y-64486256D01*
X49522179Y-63725003D01*
X49139542Y-62939532D01*
X48967973Y-62553507D01*
X48672856Y-61827266D01*
X48412403Y-61097142D01*
X48185599Y-60358950D01*
X47991429Y-59608506D01*
X47828878Y-58841625D01*
X47696932Y-58054122D01*
X47594575Y-57241812D01*
X47541035Y-56669174D01*
X47533465Y-56547692D01*
X47527177Y-56390505D01*
X47522171Y-56204222D01*
X47518448Y-55995450D01*
X47516007Y-55770798D01*
X47514849Y-55536876D01*
X47514974Y-55300291D01*
X47516381Y-55067652D01*
X47519071Y-54845568D01*
X47523043Y-54640646D01*
X47528297Y-54459497D01*
X47534835Y-54308728D01*
X47541035Y-54213840D01*
X47616840Y-53437754D01*
X47716772Y-52691123D01*
X47842202Y-51967704D01*
X47994496Y-51261258D01*
X48175026Y-50565542D01*
X48385160Y-49874316D01*
X48626266Y-49181339D01*
X48671620Y-49059757D01*
X48983736Y-48289555D01*
X49335149Y-47530265D01*
X49723982Y-46784634D01*
X50148355Y-46055404D01*
X50606391Y-45345322D01*
X51096209Y-44657131D01*
X51615933Y-43993577D01*
X52163683Y-43357403D01*
X52737580Y-42751356D01*
X53335746Y-42178179D01*
X53456183Y-42069465D01*
X53746321Y-41810174D01*
X56693919Y-41811527D01*
G37*
X56693919Y-41811527D02*
X57106455Y-41811740D01*
X57478654Y-41811998D01*
X57812509Y-41812326D01*
X58110016Y-41812749D01*
X58373171Y-41813292D01*
X58603968Y-41813979D01*
X58804402Y-41814836D01*
X58976469Y-41815888D01*
X59122163Y-41817160D01*
X59243480Y-41818677D01*
X59342415Y-41820464D01*
X59420963Y-41822546D01*
X59481120Y-41824947D01*
X59524879Y-41827693D01*
X59554237Y-41830809D01*
X59571188Y-41834320D01*
X59577728Y-41838250D01*
X59575852Y-41842626D01*
X59567555Y-41847471D01*
X59567434Y-41847528D01*
X59213687Y-42015134D01*
X58893451Y-42171755D01*
X58600445Y-42320849D01*
X58328386Y-42465876D01*
X58070992Y-42610297D01*
X57821983Y-42757571D01*
X57575077Y-42911157D01*
X57323992Y-43074515D01*
X57249684Y-43124087D01*
X56605656Y-43581016D01*
X55990101Y-44068498D01*
X55403838Y-44585183D01*
X54847688Y-45129722D01*
X54322470Y-45700765D01*
X53829004Y-46296962D01*
X53368110Y-46916965D01*
X52940607Y-47559422D01*
X52547317Y-48222985D01*
X52189058Y-48906304D01*
X51866650Y-49608029D01*
X51580914Y-50326810D01*
X51332669Y-51061299D01*
X51122735Y-51810145D01*
X50951933Y-52571998D01*
X50821081Y-53345510D01*
X50763580Y-53801090D01*
X50735285Y-54073796D01*
X50713411Y-54325876D01*
X50697328Y-54569335D01*
X50686406Y-54816176D01*
X50680014Y-55078401D01*
X50677521Y-55368014D01*
X50677434Y-55441507D01*
X50678261Y-55619197D01*
X50680590Y-55801977D01*
X50684192Y-55980088D01*
X50688835Y-56143773D01*
X50694291Y-56283274D01*
X50699456Y-56376448D01*
X50774476Y-57176652D01*
X50889963Y-57965829D01*
X51045549Y-58742983D01*
X51240865Y-59507120D01*
X51475542Y-60257243D01*
X51749212Y-60992358D01*
X52061506Y-61711468D01*
X52412056Y-62413579D01*
X52800491Y-63097694D01*
X53226445Y-63762819D01*
X53659612Y-64368360D01*
X54152348Y-64987503D01*
X54674887Y-65576815D01*
X55226368Y-66135648D01*
X55805929Y-66663357D01*
X56412708Y-67159293D01*
X57045843Y-67622809D01*
X57704471Y-68053260D01*
X58387732Y-68449998D01*
X59094763Y-68812376D01*
X59824702Y-69139747D01*
X60237176Y-69305243D01*
X60509350Y-69409997D01*
X54138184Y-69409891D01*
X53841850Y-69154962D01*
X53178050Y-68557221D01*
X52549950Y-67936766D01*
X51957392Y-67293382D01*
X51400217Y-66626854D01*
X50878267Y-65936966D01*
X50391383Y-65223505D01*
X49939407Y-64486256D01*
X49522179Y-63725003D01*
X49139542Y-62939532D01*
X48967973Y-62553507D01*
X48672856Y-61827266D01*
X48412403Y-61097142D01*
X48185599Y-60358950D01*
X47991429Y-59608506D01*
X47828878Y-58841625D01*
X47696932Y-58054122D01*
X47594575Y-57241812D01*
X47541035Y-56669174D01*
X47533465Y-56547692D01*
X47527177Y-56390505D01*
X47522171Y-56204222D01*
X47518448Y-55995450D01*
X47516007Y-55770798D01*
X47514849Y-55536876D01*
X47514974Y-55300291D01*
X47516381Y-55067652D01*
X47519071Y-54845568D01*
X47523043Y-54640646D01*
X47528297Y-54459497D01*
X47534835Y-54308728D01*
X47541035Y-54213840D01*
X47616840Y-53437754D01*
X47716772Y-52691123D01*
X47842202Y-51967704D01*
X47994496Y-51261258D01*
X48175026Y-50565542D01*
X48385160Y-49874316D01*
X48626266Y-49181339D01*
X48671620Y-49059757D01*
X48983736Y-48289555D01*
X49335149Y-47530265D01*
X49723982Y-46784634D01*
X50148355Y-46055404D01*
X50606391Y-45345322D01*
X51096209Y-44657131D01*
X51615933Y-43993577D01*
X52163683Y-43357403D01*
X52737580Y-42751356D01*
X53335746Y-42178179D01*
X53456183Y-42069465D01*
X53746321Y-41810174D01*
X56693919Y-41811527D01*
X77485020Y-42015107D02*
X77593880Y-42113738D01*
X77593880Y-42113738D02*
X77725790Y-42237818D01*
X77725790Y-42237818D02*
X77875102Y-42381676D01*
X77875102Y-42381676D02*
X78036169Y-42539640D01*
X78036169Y-42539640D02*
X78203342Y-42706039D01*
X78203342Y-42706039D02*
X78370974Y-42875200D01*
X78370974Y-42875200D02*
X78533416Y-43041453D01*
X78533416Y-43041453D02*
X78685021Y-43199125D01*
X78685021Y-43199125D02*
X78820141Y-43342545D01*
X78820141Y-43342545D02*
X78933127Y-43466041D01*
X78933127Y-43466041D02*
X78960298Y-43496583D01*
X78960298Y-43496583D02*
X79524170Y-44166798D01*
X79524170Y-44166798D02*
X80052791Y-44859381D01*
X80052791Y-44859381D02*
X80545662Y-45573073D01*
X80545662Y-45573073D02*
X81002284Y-46306617D01*
X81002284Y-46306617D02*
X81422157Y-47058755D01*
X81422157Y-47058755D02*
X81804784Y-47828231D01*
X81804784Y-47828231D02*
X82149663Y-48613787D01*
X82149663Y-48613787D02*
X82456297Y-49414165D01*
X82456297Y-49414165D02*
X82724187Y-50228107D01*
X82724187Y-50228107D02*
X82952833Y-51054357D01*
X82952833Y-51054357D02*
X83141736Y-51891657D01*
X83141736Y-51891657D02*
X83290397Y-52738749D01*
X83290397Y-52738749D02*
X83398317Y-53594376D01*
X83398317Y-53594376D02*
X83464998Y-54457281D01*
X83464998Y-54457281D02*
X83482720Y-54891174D01*
X83482720Y-54891174D02*
X83487802Y-55774453D01*
X83487802Y-55774453D02*
X83451921Y-56647289D01*
X83451921Y-56647289D02*
X83374954Y-57510370D01*
X83374954Y-57510370D02*
X83256782Y-58364383D01*
X83256782Y-58364383D02*
X83097285Y-59210015D01*
X83097285Y-59210015D02*
X82896343Y-60047955D01*
X82896343Y-60047955D02*
X82653834Y-60878889D01*
X82653834Y-60878889D02*
X82369638Y-61703505D01*
X82369638Y-61703505D02*
X82223024Y-62085575D01*
X82223024Y-62085575D02*
X81900254Y-62849332D01*
X81900254Y-62849332D02*
X81545312Y-63591555D01*
X81545312Y-63591555D02*
X81156218Y-64315727D01*
X81156218Y-64315727D02*
X80730989Y-65025328D01*
X80730989Y-65025328D02*
X80267646Y-65723840D01*
X80267646Y-65723840D02*
X79764208Y-66414744D01*
X79764208Y-66414744D02*
X79746570Y-66437871D01*
X79746570Y-66437871D02*
X79459802Y-66799593D01*
X79459802Y-66799593D02*
X79143867Y-67173249D01*
X79143867Y-67173249D02*
X78805564Y-67551797D01*
X78805564Y-67551797D02*
X78451691Y-67928194D01*
X78451691Y-67928194D02*
X78089046Y-68295398D01*
X78089046Y-68295398D02*
X77724427Y-68646365D01*
X77724427Y-68646365D02*
X77364633Y-68974053D01*
X77364633Y-68974053D02*
X77016461Y-69271419D01*
X77016461Y-69271419D02*
X76991905Y-69291568D01*
X76991905Y-69291568D02*
X76845304Y-69411507D01*
X76845304Y-69411507D02*
X73674424Y-69411507D01*
X73674424Y-69411507D02*
X73311779Y-69411458D01*
X73311779Y-69411458D02*
X72960960Y-69411317D01*
X72960960Y-69411317D02*
X72624274Y-69411088D01*
X72624274Y-69411088D02*
X72304027Y-69410776D01*
X72304027Y-69410776D02*
X72002526Y-69410387D01*
X72002526Y-69410387D02*
X71722078Y-69409927D01*
X71722078Y-69409927D02*
X71464990Y-69409400D01*
X71464990Y-69409400D02*
X71233568Y-69408813D01*
X71233568Y-69408813D02*
X71030119Y-69408170D01*
X71030119Y-69408170D02*
X70856949Y-69407477D01*
X70856949Y-69407477D02*
X70716367Y-69406739D01*
X70716367Y-69406739D02*
X70610677Y-69405962D01*
X70610677Y-69405962D02*
X70542187Y-69405151D01*
X70542187Y-69405151D02*
X70513205Y-69404312D01*
X70513205Y-69404312D02*
X70512364Y-69404119D01*
X70512364Y-69404119D02*
X70534240Y-69394423D01*
X70534240Y-69394423D02*
X70588614Y-69372643D01*
X70588614Y-69372643D02*
X70668348Y-69341575D01*
X70668348Y-69341575D02*
X70766309Y-69304013D01*
X70766309Y-69304013D02*
X70817517Y-69284570D01*
X70817517Y-69284570D02*
X71509287Y-69000602D01*
X71509287Y-69000602D02*
X72190476Y-68676951D01*
X72190476Y-68676951D02*
X72858298Y-68315542D01*
X72858298Y-68315542D02*
X73509964Y-67918304D01*
X73509964Y-67918304D02*
X74142687Y-67487161D01*
X74142687Y-67487161D02*
X74753679Y-67024040D01*
X74753679Y-67024040D02*
X75340153Y-66530869D01*
X75340153Y-66530869D02*
X75899319Y-66009573D01*
X75899319Y-66009573D02*
X76428392Y-65462079D01*
X76428392Y-65462079D02*
X76560606Y-65315757D01*
X76560606Y-65315757D02*
X77069430Y-64713601D01*
X77069430Y-64713601D02*
X77541898Y-64091017D01*
X77541898Y-64091017D02*
X77977871Y-63449492D01*
X77977871Y-63449492D02*
X78377212Y-62790515D01*
X78377212Y-62790515D02*
X78739783Y-62115573D01*
X78739783Y-62115573D02*
X79065445Y-61426155D01*
X79065445Y-61426155D02*
X79354061Y-60723748D01*
X79354061Y-60723748D02*
X79605493Y-60009840D01*
X79605493Y-60009840D02*
X79819603Y-59285920D01*
X79819603Y-59285920D02*
X79996253Y-58553476D01*
X79996253Y-58553476D02*
X80135304Y-57813995D01*
X80135304Y-57813995D02*
X80236620Y-57068966D01*
X80236620Y-57068966D02*
X80300061Y-56319877D01*
X80300061Y-56319877D02*
X80325490Y-55568215D01*
X80325490Y-55568215D02*
X80312770Y-54815469D01*
X80312770Y-54815469D02*
X80261761Y-54063126D01*
X80261761Y-54063126D02*
X80172326Y-53312675D01*
X80172326Y-53312675D02*
X80044328Y-52565604D01*
X80044328Y-52565604D02*
X79877627Y-51823401D01*
X79877627Y-51823401D02*
X79672087Y-51087553D01*
X79672087Y-51087553D02*
X79427569Y-50359550D01*
X79427569Y-50359550D02*
X79143935Y-49640877D01*
X79143935Y-49640877D02*
X78821047Y-48933025D01*
X78821047Y-48933025D02*
X78458767Y-48237481D01*
X78458767Y-48237481D02*
X78187612Y-47768590D01*
X78187612Y-47768590D02*
X77845870Y-47231160D01*
X77845870Y-47231160D02*
X77469034Y-46693709D01*
X77469034Y-46693709D02*
X77063461Y-46164805D01*
X77063461Y-46164805D02*
X76635509Y-45653014D01*
X76635509Y-45653014D02*
X76522357Y-45524924D01*
X76522357Y-45524924D02*
X76404012Y-45396296D01*
X76404012Y-45396296D02*
X76260440Y-45246427D01*
X76260440Y-45246427D02*
X76098348Y-45081862D01*
X76098348Y-45081862D02*
X75924447Y-44909147D01*
X75924447Y-44909147D02*
X75745445Y-44734827D01*
X75745445Y-44734827D02*
X75568052Y-44565449D01*
X75568052Y-44565449D02*
X75398978Y-44407557D01*
X75398978Y-44407557D02*
X75244931Y-44267698D01*
X75244931Y-44267698D02*
X75135517Y-44171904D01*
X75135517Y-44171904D02*
X74741329Y-43847951D01*
X74741329Y-43847951D02*
X74317787Y-43524868D01*
X74317787Y-43524868D02*
X73877121Y-43211444D01*
X73877121Y-43211444D02*
X73431560Y-42916472D01*
X73431560Y-42916472D02*
X73123675Y-42725899D01*
X73123675Y-42725899D02*
X72926731Y-42609153D01*
X72926731Y-42609153D02*
X72740223Y-42502024D01*
X72740223Y-42502024D02*
X72557242Y-42400953D01*
X72557242Y-42400953D02*
X72370880Y-42302377D01*
X72370880Y-42302377D02*
X72174229Y-42202735D01*
X72174229Y-42202735D02*
X71960379Y-42098467D01*
X71960379Y-42098467D02*
X71722422Y-41986011D01*
X71722422Y-41986011D02*
X71453450Y-41861806D01*
X71453450Y-41861806D02*
X71399600Y-41837193D01*
X71399600Y-41837193D02*
X71402122Y-41833629D01*
X71402122Y-41833629D02*
X71426997Y-41830386D01*
X71426997Y-41830386D02*
X71475687Y-41827450D01*
X71475687Y-41827450D02*
X71549652Y-41824810D01*
X71549652Y-41824810D02*
X71650354Y-41822452D01*
X71650354Y-41822452D02*
X71779253Y-41820362D01*
X71779253Y-41820362D02*
X71937810Y-41818529D01*
X71937810Y-41818529D02*
X72127486Y-41816939D01*
X72127486Y-41816939D02*
X72349743Y-41815580D01*
X72349743Y-41815580D02*
X72606040Y-41814438D01*
X72606040Y-41814438D02*
X72897838Y-41813501D01*
X72897838Y-41813501D02*
X73226600Y-41812756D01*
X73226600Y-41812756D02*
X73593784Y-41812190D01*
X73593784Y-41812190D02*
X74000854Y-41811789D01*
X74000854Y-41811789D02*
X74299436Y-41811606D01*
X74299436Y-41811606D02*
X77252189Y-41810174D01*
X77252189Y-41810174D02*
X77485020Y-42015107D01*
X77485020Y-42015107D02*
X77485020Y-42015107D01*
G36*
X77485020Y-42015107D02*
G01*
X77593880Y-42113738D01*
X77725790Y-42237818D01*
X77875102Y-42381676D01*
X78036169Y-42539640D01*
X78203342Y-42706039D01*
X78370974Y-42875200D01*
X78533416Y-43041453D01*
X78685021Y-43199125D01*
X78820141Y-43342545D01*
X78933127Y-43466041D01*
X78960298Y-43496583D01*
X79524170Y-44166798D01*
X80052791Y-44859381D01*
X80545662Y-45573073D01*
X81002284Y-46306617D01*
X81422157Y-47058755D01*
X81804784Y-47828231D01*
X82149663Y-48613787D01*
X82456297Y-49414165D01*
X82724187Y-50228107D01*
X82952833Y-51054357D01*
X83141736Y-51891657D01*
X83290397Y-52738749D01*
X83398317Y-53594376D01*
X83464998Y-54457281D01*
X83482720Y-54891174D01*
X83487802Y-55774453D01*
X83451921Y-56647289D01*
X83374954Y-57510370D01*
X83256782Y-58364383D01*
X83097285Y-59210015D01*
X82896343Y-60047955D01*
X82653834Y-60878889D01*
X82369638Y-61703505D01*
X82223024Y-62085575D01*
X81900254Y-62849332D01*
X81545312Y-63591555D01*
X81156218Y-64315727D01*
X80730989Y-65025328D01*
X80267646Y-65723840D01*
X79764208Y-66414744D01*
X79746570Y-66437871D01*
X79459802Y-66799593D01*
X79143867Y-67173249D01*
X78805564Y-67551797D01*
X78451691Y-67928194D01*
X78089046Y-68295398D01*
X77724427Y-68646365D01*
X77364633Y-68974053D01*
X77016461Y-69271419D01*
X76991905Y-69291568D01*
X76845304Y-69411507D01*
X73674424Y-69411507D01*
X73311779Y-69411458D01*
X72960960Y-69411317D01*
X72624274Y-69411088D01*
X72304027Y-69410776D01*
X72002526Y-69410387D01*
X71722078Y-69409927D01*
X71464990Y-69409400D01*
X71233568Y-69408813D01*
X71030119Y-69408170D01*
X70856949Y-69407477D01*
X70716367Y-69406739D01*
X70610677Y-69405962D01*
X70542187Y-69405151D01*
X70513205Y-69404312D01*
X70512364Y-69404119D01*
X70534240Y-69394423D01*
X70588614Y-69372643D01*
X70668348Y-69341575D01*
X70766309Y-69304013D01*
X70817517Y-69284570D01*
X71509287Y-69000602D01*
X72190476Y-68676951D01*
X72858298Y-68315542D01*
X73509964Y-67918304D01*
X74142687Y-67487161D01*
X74753679Y-67024040D01*
X75340153Y-66530869D01*
X75899319Y-66009573D01*
X76428392Y-65462079D01*
X76560606Y-65315757D01*
X77069430Y-64713601D01*
X77541898Y-64091017D01*
X77977871Y-63449492D01*
X78377212Y-62790515D01*
X78739783Y-62115573D01*
X79065445Y-61426155D01*
X79354061Y-60723748D01*
X79605493Y-60009840D01*
X79819603Y-59285920D01*
X79996253Y-58553476D01*
X80135304Y-57813995D01*
X80236620Y-57068966D01*
X80300061Y-56319877D01*
X80325490Y-55568215D01*
X80312770Y-54815469D01*
X80261761Y-54063126D01*
X80172326Y-53312675D01*
X80044328Y-52565604D01*
X79877627Y-51823401D01*
X79672087Y-51087553D01*
X79427569Y-50359550D01*
X79143935Y-49640877D01*
X78821047Y-48933025D01*
X78458767Y-48237481D01*
X78187612Y-47768590D01*
X77845870Y-47231160D01*
X77469034Y-46693709D01*
X77063461Y-46164805D01*
X76635509Y-45653014D01*
X76522357Y-45524924D01*
X76404012Y-45396296D01*
X76260440Y-45246427D01*
X76098348Y-45081862D01*
X75924447Y-44909147D01*
X75745445Y-44734827D01*
X75568052Y-44565449D01*
X75398978Y-44407557D01*
X75244931Y-44267698D01*
X75135517Y-44171904D01*
X74741329Y-43847951D01*
X74317787Y-43524868D01*
X73877121Y-43211444D01*
X73431560Y-42916472D01*
X73123675Y-42725899D01*
X72926731Y-42609153D01*
X72740223Y-42502024D01*
X72557242Y-42400953D01*
X72370880Y-42302377D01*
X72174229Y-42202735D01*
X71960379Y-42098467D01*
X71722422Y-41986011D01*
X71453450Y-41861806D01*
X71399600Y-41837193D01*
X71402122Y-41833629D01*
X71426997Y-41830386D01*
X71475687Y-41827450D01*
X71549652Y-41824810D01*
X71650354Y-41822452D01*
X71779253Y-41820362D01*
X71937810Y-41818529D01*
X72127486Y-41816939D01*
X72349743Y-41815580D01*
X72606040Y-41814438D01*
X72897838Y-41813501D01*
X73226600Y-41812756D01*
X73593784Y-41812190D01*
X74000854Y-41811789D01*
X74299436Y-41811606D01*
X77252189Y-41810174D01*
X77485020Y-42015107D01*
G37*
X77485020Y-42015107D02*
X77593880Y-42113738D01*
X77725790Y-42237818D01*
X77875102Y-42381676D01*
X78036169Y-42539640D01*
X78203342Y-42706039D01*
X78370974Y-42875200D01*
X78533416Y-43041453D01*
X78685021Y-43199125D01*
X78820141Y-43342545D01*
X78933127Y-43466041D01*
X78960298Y-43496583D01*
X79524170Y-44166798D01*
X80052791Y-44859381D01*
X80545662Y-45573073D01*
X81002284Y-46306617D01*
X81422157Y-47058755D01*
X81804784Y-47828231D01*
X82149663Y-48613787D01*
X82456297Y-49414165D01*
X82724187Y-50228107D01*
X82952833Y-51054357D01*
X83141736Y-51891657D01*
X83290397Y-52738749D01*
X83398317Y-53594376D01*
X83464998Y-54457281D01*
X83482720Y-54891174D01*
X83487802Y-55774453D01*
X83451921Y-56647289D01*
X83374954Y-57510370D01*
X83256782Y-58364383D01*
X83097285Y-59210015D01*
X82896343Y-60047955D01*
X82653834Y-60878889D01*
X82369638Y-61703505D01*
X82223024Y-62085575D01*
X81900254Y-62849332D01*
X81545312Y-63591555D01*
X81156218Y-64315727D01*
X80730989Y-65025328D01*
X80267646Y-65723840D01*
X79764208Y-66414744D01*
X79746570Y-66437871D01*
X79459802Y-66799593D01*
X79143867Y-67173249D01*
X78805564Y-67551797D01*
X78451691Y-67928194D01*
X78089046Y-68295398D01*
X77724427Y-68646365D01*
X77364633Y-68974053D01*
X77016461Y-69271419D01*
X76991905Y-69291568D01*
X76845304Y-69411507D01*
X73674424Y-69411507D01*
X73311779Y-69411458D01*
X72960960Y-69411317D01*
X72624274Y-69411088D01*
X72304027Y-69410776D01*
X72002526Y-69410387D01*
X71722078Y-69409927D01*
X71464990Y-69409400D01*
X71233568Y-69408813D01*
X71030119Y-69408170D01*
X70856949Y-69407477D01*
X70716367Y-69406739D01*
X70610677Y-69405962D01*
X70542187Y-69405151D01*
X70513205Y-69404312D01*
X70512364Y-69404119D01*
X70534240Y-69394423D01*
X70588614Y-69372643D01*
X70668348Y-69341575D01*
X70766309Y-69304013D01*
X70817517Y-69284570D01*
X71509287Y-69000602D01*
X72190476Y-68676951D01*
X72858298Y-68315542D01*
X73509964Y-67918304D01*
X74142687Y-67487161D01*
X74753679Y-67024040D01*
X75340153Y-66530869D01*
X75899319Y-66009573D01*
X76428392Y-65462079D01*
X76560606Y-65315757D01*
X77069430Y-64713601D01*
X77541898Y-64091017D01*
X77977871Y-63449492D01*
X78377212Y-62790515D01*
X78739783Y-62115573D01*
X79065445Y-61426155D01*
X79354061Y-60723748D01*
X79605493Y-60009840D01*
X79819603Y-59285920D01*
X79996253Y-58553476D01*
X80135304Y-57813995D01*
X80236620Y-57068966D01*
X80300061Y-56319877D01*
X80325490Y-55568215D01*
X80312770Y-54815469D01*
X80261761Y-54063126D01*
X80172326Y-53312675D01*
X80044328Y-52565604D01*
X79877627Y-51823401D01*
X79672087Y-51087553D01*
X79427569Y-50359550D01*
X79143935Y-49640877D01*
X78821047Y-48933025D01*
X78458767Y-48237481D01*
X78187612Y-47768590D01*
X77845870Y-47231160D01*
X77469034Y-46693709D01*
X77063461Y-46164805D01*
X76635509Y-45653014D01*
X76522357Y-45524924D01*
X76404012Y-45396296D01*
X76260440Y-45246427D01*
X76098348Y-45081862D01*
X75924447Y-44909147D01*
X75745445Y-44734827D01*
X75568052Y-44565449D01*
X75398978Y-44407557D01*
X75244931Y-44267698D01*
X75135517Y-44171904D01*
X74741329Y-43847951D01*
X74317787Y-43524868D01*
X73877121Y-43211444D01*
X73431560Y-42916472D01*
X73123675Y-42725899D01*
X72926731Y-42609153D01*
X72740223Y-42502024D01*
X72557242Y-42400953D01*
X72370880Y-42302377D01*
X72174229Y-42202735D01*
X71960379Y-42098467D01*
X71722422Y-41986011D01*
X71453450Y-41861806D01*
X71399600Y-41837193D01*
X71402122Y-41833629D01*
X71426997Y-41830386D01*
X71475687Y-41827450D01*
X71549652Y-41824810D01*
X71650354Y-41822452D01*
X71779253Y-41820362D01*
X71937810Y-41818529D01*
X72127486Y-41816939D01*
X72349743Y-41815580D01*
X72606040Y-41814438D01*
X72897838Y-41813501D01*
X73226600Y-41812756D01*
X73593784Y-41812190D01*
X74000854Y-41811789D01*
X74299436Y-41811606D01*
X77252189Y-41810174D01*
X77485020Y-42015107D01*
G04 #@! TD*
D11*
G04 #@! TO.P,R3,1*
G04 #@! TO.N,Net-(R3-Pad1)*
X63900000Y-56212500D03*
G04 #@! TO.P,R3,2*
G04 #@! TO.N,Net-(D3-Pad1)*
X63900000Y-54387500D03*
G04 #@! TD*
G04 #@! TO.P,R5,1*
G04 #@! TO.N,Net-(R5-Pad1)*
X69900000Y-56212500D03*
G04 #@! TO.P,R5,2*
G04 #@! TO.N,Net-(D5-Pad1)*
X69900000Y-54387500D03*
G04 #@! TD*
D12*
G04 #@! TO.P,D9,1,K*
G04 #@! TO.N,GND*
X64725000Y-67100000D03*
G04 #@! TO.P,D9,2,A*
G04 #@! TO.N,Net-(D9-Pad2)*
X66475000Y-67100000D03*
G04 #@! TD*
D13*
G04 #@! TO.P,D3,1,K*
G04 #@! TO.N,Net-(D3-Pad1)*
X63894163Y-52100000D03*
G04 #@! TO.P,D3,2,A*
G04 #@! TO.N,GND*
X63894163Y-50350000D03*
G04 #@! TD*
D14*
G04 #@! TO.P,SW1,1,1*
G04 #@! TO.N,Net-(SW1-Pad1)*
X67600000Y-60050000D03*
X73800000Y-60050000D03*
G04 #@! TO.P,SW1,2,2*
G04 #@! TO.N,GND*
X73800000Y-63750000D03*
X67600000Y-63750000D03*
G04 #@! TD*
D13*
G04 #@! TO.P,D4,1,K*
G04 #@! TO.N,Net-(D4-Pad1)*
X66904368Y-52100000D03*
G04 #@! TO.P,D4,2,A*
G04 #@! TO.N,GND*
X66904368Y-50350000D03*
G04 #@! TD*
G04 #@! TO.P,D6,1,K*
G04 #@! TO.N,Net-(D6-Pad1)*
X72900000Y-52100000D03*
G04 #@! TO.P,D6,2,A*
G04 #@! TO.N,GND*
X72900000Y-50350000D03*
G04 #@! TD*
D11*
G04 #@! TO.P,R6,1*
G04 #@! TO.N,Net-(R6-Pad1)*
X72800000Y-56125000D03*
G04 #@! TO.P,R6,2*
G04 #@! TO.N,Net-(D6-Pad1)*
X72800000Y-54300000D03*
G04 #@! TD*
D13*
G04 #@! TO.P,D1,1,K*
G04 #@! TO.N,Net-(D1-Pad1)*
X57903740Y-52100000D03*
G04 #@! TO.P,D1,2,A*
G04 #@! TO.N,GND*
X57903740Y-50350000D03*
G04 #@! TD*
G04 #@! TO.P,D5,1,K*
G04 #@! TO.N,Net-(D5-Pad1)*
X69887430Y-52100000D03*
G04 #@! TO.P,D5,2,A*
G04 #@! TO.N,GND*
X69887430Y-50350000D03*
G04 #@! TD*
D11*
G04 #@! TO.P,R8,1*
G04 #@! TO.N,Net-(R8-Pad1)*
X69700000Y-44612500D03*
G04 #@! TO.P,R8,2*
G04 #@! TO.N,Net-(D8-Pad1)*
X69700000Y-42787500D03*
G04 #@! TD*
G04 #@! TO.P,R4,1*
G04 #@! TO.N,Net-(R4-Pad1)*
X66800000Y-56212500D03*
G04 #@! TO.P,R4,2*
G04 #@! TO.N,Net-(D4-Pad1)*
X66800000Y-54387500D03*
G04 #@! TD*
D13*
G04 #@! TO.P,D2,1,K*
G04 #@! TO.N,Net-(D2-Pad1)*
X60941569Y-52145000D03*
G04 #@! TO.P,D2,2,A*
G04 #@! TO.N,GND*
X60941569Y-50395000D03*
G04 #@! TD*
D15*
G04 #@! TO.P,U1,1,~{RESET}/PB5*
G04 #@! TO.N,Net-(R9-Pad2)*
X55950000Y-59995000D03*
G04 #@! TO.P,U1,2,XTAL1/PB3*
G04 #@! TO.N,Net-(U1-Pad2)*
X55950000Y-61265000D03*
G04 #@! TO.P,U1,3,XTAL2/PB4*
G04 #@! TO.N,volt*
X55950000Y-62535000D03*
G04 #@! TO.P,U1,4,GND*
G04 #@! TO.N,GND*
X55950000Y-63805000D03*
G04 #@! TO.P,U1,5,AREF/PB0*
G04 #@! TO.N,Net-(TP3-Pad1)*
X63250000Y-63805000D03*
G04 #@! TO.P,U1,6,PB1*
G04 #@! TO.N,Net-(TP4-Pad1)*
X63250000Y-62535000D03*
G04 #@! TO.P,U1,7,PB2*
G04 #@! TO.N,Net-(SW1-Pad1)*
X63250000Y-61265000D03*
G04 #@! TO.P,U1,8,VCC*
G04 #@! TO.N,+3V3*
X63250000Y-59995000D03*
G04 #@! TD*
D13*
G04 #@! TO.P,D8,1,K*
G04 #@! TO.N,Net-(D8-Pad1)*
X67200000Y-44575000D03*
G04 #@! TO.P,D8,2,A*
G04 #@! TO.N,GND*
X67200000Y-42825000D03*
G04 #@! TD*
G04 #@! TO.P,D7,1,K*
G04 #@! TO.N,Net-(D7-Pad1)*
X64000000Y-44575000D03*
G04 #@! TO.P,D7,2,A*
G04 #@! TO.N,GND*
X64000000Y-42825000D03*
G04 #@! TD*
D11*
G04 #@! TO.P,R2,1*
G04 #@! TO.N,Net-(R2-Pad1)*
X60900000Y-56112500D03*
G04 #@! TO.P,R2,2*
G04 #@! TO.N,Net-(D2-Pad1)*
X60900000Y-54287500D03*
G04 #@! TD*
G04 #@! TO.P,R1,1*
G04 #@! TO.N,Net-(R1-Pad1)*
X57900000Y-56012500D03*
G04 #@! TO.P,R1,2*
G04 #@! TO.N,Net-(D1-Pad1)*
X57900000Y-54187500D03*
G04 #@! TD*
D16*
G04 #@! TO.P,R7,1*
G04 #@! TO.N,Net-(R7-Pad1)*
X61600000Y-42810000D03*
G04 #@! TO.P,R7,2*
G04 #@! TO.N,Net-(D7-Pad1)*
X61600000Y-44635000D03*
G04 #@! TD*
D17*
G04 #@! TO.N,GND*
X79100000Y-59300000D03*
X68400000Y-70100000D03*
X71100000Y-66800000D03*
X74200000Y-50700000D03*
X68200000Y-41500000D03*
X70600000Y-65100000D03*
X58100000Y-48900000D03*
X79000000Y-54000000D03*
X58400000Y-65800000D03*
G04 #@! TO.N,Net-(D9-Pad2)*
X68000000Y-68000000D03*
G04 #@! TO.N,Net-(R1-Pad1)*
X55880526Y-49243360D03*
G04 #@! TO.N,Net-(R2-Pad1)*
X59400000Y-51300000D03*
G04 #@! TO.N,Net-(R3-Pad1)*
X65300000Y-54400000D03*
G04 #@! TO.N,Net-(R4-Pad1)*
X64500000Y-58400000D03*
G04 #@! TO.N,Net-(R5-Pad1)*
X64500000Y-45900000D03*
G04 #@! TO.N,Net-(R6-Pad1)*
X64600000Y-49100000D03*
G04 #@! TO.N,Net-(R7-Pad1)*
X55400000Y-58400000D03*
G04 #@! TO.N,Net-(R8-Pad1)*
X66000000Y-60300000D03*
G04 #@! TO.N,Net-(R9-Pad2)*
X60900000Y-68300000D03*
G04 #@! TO.N,Net-(SW1-Pad1)*
X73900000Y-67000000D03*
G04 #@! TO.N,Net-(U1-Pad2)*
X56100000Y-57600000D03*
G04 #@! TO.N,Net-(TP3-Pad1)*
X69500000Y-66100000D03*
X55723887Y-51800890D03*
G04 #@! TO.N,Net-(TP4-Pad1)*
X58600000Y-62300000D03*
X72600000Y-66800000D03*
G04 #@! TO.N,VBUS*
X68300000Y-56200000D03*
X76900000Y-58100000D03*
X72900000Y-43700000D03*
X77900000Y-50400000D03*
X68500000Y-51000000D03*
G04 #@! TO.N,+BATT*
X75800000Y-65300000D03*
X74000000Y-65424500D03*
X71400000Y-53400000D03*
X71400000Y-51900000D03*
G04 #@! TO.N,volt*
X64700000Y-65700000D03*
G04 #@! TO.N,+3V3*
X59400000Y-60100000D03*
X65000000Y-59600000D03*
G04 #@! TD*
D18*
G04 #@! TO.N,Net-(D1-Pad1)*
X57903740Y-52100000D02*
X57903740Y-54183760D01*
X57903740Y-54183760D02*
X57900000Y-54187500D01*
G04 #@! TO.N,GND*
X57903740Y-50350000D02*
X57903740Y-49096260D01*
X73800000Y-50300000D02*
X72950000Y-50300000D01*
X63849163Y-50395000D02*
X63894163Y-50350000D01*
X72900000Y-50350000D02*
X69887430Y-50350000D01*
X57900000Y-67100000D02*
X64725000Y-67100000D01*
X72950000Y-50300000D02*
X72900000Y-50350000D01*
X55950000Y-63805000D02*
X55950000Y-65150000D01*
X67200000Y-41900000D02*
X67200000Y-42825000D01*
X79100000Y-54100000D02*
X79000000Y-54000000D01*
X60941569Y-50395000D02*
X63849163Y-50395000D01*
X57903740Y-50350000D02*
X60896569Y-50350000D01*
X70600000Y-65100000D02*
X69250000Y-63750000D01*
X55950000Y-65150000D02*
X57900000Y-67100000D01*
X79100000Y-59300000D02*
X79100000Y-54100000D01*
X74200000Y-50700000D02*
X73800000Y-50300000D01*
X67600000Y-63750000D02*
X69250000Y-63750000D01*
X57900000Y-66300000D02*
X57900000Y-67100000D01*
X57903740Y-49096260D02*
X58100000Y-48900000D01*
X68200000Y-41500000D02*
X67600000Y-41500000D01*
X67600000Y-41500000D02*
X67200000Y-41900000D01*
X69250000Y-63750000D02*
X73800000Y-63750000D01*
X68400000Y-70100000D02*
X71100000Y-67400000D01*
X58400000Y-65800000D02*
X57900000Y-66300000D01*
X69887430Y-50350000D02*
X66904368Y-50350000D01*
X71100000Y-67400000D02*
X71100000Y-66800000D01*
X64000000Y-42825000D02*
X67200000Y-42825000D01*
X60896569Y-50350000D02*
X60941569Y-50395000D01*
X63894163Y-50350000D02*
X66904368Y-50350000D01*
G04 #@! TO.N,Net-(D2-Pad1)*
X60941569Y-54245931D02*
X60900000Y-54287500D01*
X60941569Y-52145000D02*
X60941569Y-54245931D01*
G04 #@! TO.N,Net-(D3-Pad1)*
X63894163Y-52100000D02*
X63894163Y-54381663D01*
X63894163Y-54381663D02*
X63900000Y-54387500D01*
G04 #@! TO.N,Net-(D4-Pad1)*
X66904368Y-54283132D02*
X66800000Y-54387500D01*
X66904368Y-52100000D02*
X66904368Y-54283132D01*
G04 #@! TO.N,Net-(D5-Pad1)*
X69887430Y-52100000D02*
X69887430Y-54374930D01*
X69887430Y-54374930D02*
X69900000Y-54387500D01*
G04 #@! TO.N,Net-(D6-Pad1)*
X72900000Y-54200000D02*
X72800000Y-54300000D01*
X72900000Y-52100000D02*
X72900000Y-54200000D01*
G04 #@! TO.N,Net-(D7-Pad1)*
X61660000Y-44575000D02*
X61600000Y-44635000D01*
X64000000Y-44575000D02*
X61660000Y-44575000D01*
G04 #@! TO.N,Net-(D8-Pad1)*
X68500000Y-43400000D02*
X69112500Y-42787500D01*
X67200000Y-44575000D02*
X68025000Y-44575000D01*
X69112500Y-42787500D02*
X69700000Y-42787500D01*
X68025000Y-44575000D02*
X68500000Y-44100000D01*
X68500000Y-44100000D02*
X68500000Y-43400000D01*
G04 #@! TO.N,Net-(D9-Pad2)*
X66475000Y-67100000D02*
X67100000Y-67100000D01*
X67100000Y-67100000D02*
X68000000Y-68000000D01*
G04 #@! TO.N,Net-(R1-Pad1)*
X57012500Y-56012500D02*
X57900000Y-56012500D01*
X56500000Y-49862834D02*
X56500000Y-55500000D01*
X55880526Y-49243360D02*
X56500000Y-49862834D01*
X56500000Y-55500000D02*
X57012500Y-56012500D01*
G04 #@! TO.N,Net-(R2-Pad1)*
X59400000Y-55700000D02*
X59400000Y-51300000D01*
X59812500Y-56112500D02*
X59400000Y-55700000D01*
X60900000Y-56112500D02*
X59812500Y-56112500D01*
G04 #@! TO.N,Net-(R3-Pad1)*
X65300000Y-55600000D02*
X65300000Y-54400000D01*
X63900000Y-56212500D02*
X64687500Y-56212500D01*
X64687500Y-56212500D02*
X65000000Y-55900000D01*
X65000000Y-55900000D02*
X65300000Y-55600000D01*
G04 #@! TO.N,Net-(R4-Pad1)*
X66800000Y-56212500D02*
X66687500Y-56212500D01*
X66687500Y-56212500D02*
X64500000Y-58400000D01*
G04 #@! TO.N,Net-(R5-Pad1)*
X73200000Y-48200000D02*
X72200000Y-47200000D01*
X74600000Y-48200000D02*
X73200000Y-48200000D01*
X69900000Y-56212500D02*
X69900000Y-56700000D01*
X70600000Y-57400000D02*
X74500000Y-57400000D01*
X75700000Y-56200000D02*
X75700000Y-49300000D01*
X69900000Y-56700000D02*
X70600000Y-57400000D01*
X64500000Y-46700000D02*
X65000000Y-47200000D01*
X75700000Y-49300000D02*
X74600000Y-48200000D01*
X72200000Y-47200000D02*
X65000000Y-47200000D01*
X74500000Y-57400000D02*
X75700000Y-56200000D01*
X64500000Y-45900000D02*
X64500000Y-46700000D01*
G04 #@! TO.N,Net-(R6-Pad1)*
X74100000Y-49100000D02*
X64600000Y-49100000D01*
X74900000Y-55700000D02*
X74900000Y-49900000D01*
X74900000Y-49900000D02*
X74100000Y-49100000D01*
X74300000Y-56300000D02*
X74900000Y-55700000D01*
X72975000Y-56300000D02*
X74300000Y-56300000D01*
X72800000Y-56125000D02*
X72975000Y-56300000D01*
G04 #@! TO.N,Net-(R7-Pad1)*
X58200000Y-46900000D02*
X57500000Y-47600000D01*
X60300000Y-42800000D02*
X59100000Y-44000000D01*
X58200000Y-44900000D02*
X58200000Y-46900000D01*
X54400000Y-48800000D02*
X54400000Y-48900000D01*
X60500000Y-42800000D02*
X60300000Y-42800000D01*
X55600000Y-47600000D02*
X54400000Y-48800000D01*
X54400000Y-48900000D02*
X54400000Y-57400000D01*
X61590000Y-42800000D02*
X60500000Y-42800000D01*
X59100000Y-44000000D02*
X58200000Y-44900000D01*
X54400000Y-57400000D02*
X55400000Y-58400000D01*
X61600000Y-42810000D02*
X61590000Y-42800000D01*
X57500000Y-47600000D02*
X55600000Y-47600000D01*
G04 #@! TO.N,Net-(R8-Pad1)*
X67000000Y-58000000D02*
X66050000Y-58950000D01*
X71635717Y-46000000D02*
X73000000Y-46000000D01*
X69700000Y-44612500D02*
X70248217Y-44612500D01*
X73500000Y-46000000D02*
X76300000Y-48800000D01*
X76400000Y-56600000D02*
X75000000Y-58000000D01*
X66050000Y-60250000D02*
X66000000Y-60300000D01*
X73000000Y-46000000D02*
X73500000Y-46000000D01*
X69200000Y-58000000D02*
X67000000Y-58000000D01*
X76400000Y-48900000D02*
X76400000Y-56600000D01*
X70248217Y-44612500D02*
X71635717Y-46000000D01*
X66050000Y-58950000D02*
X66050000Y-60250000D01*
X75000000Y-58000000D02*
X69200000Y-58000000D01*
X76300000Y-48800000D02*
X76400000Y-48900000D01*
G04 #@! TO.N,Net-(R9-Pad2)*
X58200000Y-67700000D02*
X58500000Y-67700000D01*
X53700000Y-63800000D02*
X54300000Y-64400000D01*
X57400000Y-67300000D02*
X57800000Y-67700000D01*
X58500000Y-67700000D02*
X58900000Y-68100000D01*
X54405000Y-59995000D02*
X53700000Y-60700000D01*
X55950000Y-59995000D02*
X54405000Y-59995000D01*
X53700000Y-60700000D02*
X53700000Y-63800000D01*
X54300000Y-64400000D02*
X57200000Y-67300000D01*
X58900000Y-68100000D02*
X59100000Y-68300000D01*
X57800000Y-67700000D02*
X58200000Y-67700000D01*
X59100000Y-68300000D02*
X60900000Y-68300000D01*
X57200000Y-67300000D02*
X57400000Y-67300000D01*
G04 #@! TO.N,Net-(SW1-Pad1)*
X72800000Y-65200000D02*
X73200000Y-64800000D01*
X63250000Y-61265000D02*
X66385000Y-61265000D01*
X67600000Y-60050000D02*
X73800000Y-60050000D01*
X73017859Y-66182141D02*
X73835718Y-67000000D01*
X72800000Y-65600000D02*
X72800000Y-65200000D01*
X75300000Y-64500000D02*
X75300000Y-61200000D01*
X73835718Y-67000000D02*
X73900000Y-67000000D01*
X74150000Y-60050000D02*
X73800000Y-60050000D01*
X73200000Y-64800000D02*
X75000000Y-64800000D01*
X75000000Y-64800000D02*
X75300000Y-64500000D01*
X66385000Y-61265000D02*
X67600000Y-60050000D01*
X72800000Y-65964282D02*
X73017859Y-66182141D01*
X75300000Y-61200000D02*
X74150000Y-60050000D01*
X72800000Y-65600000D02*
X72800000Y-65964282D01*
G04 #@! TO.N,Net-(U1-Pad2)*
X57100000Y-58000000D02*
X56500000Y-58000000D01*
X57600000Y-60830000D02*
X57600000Y-58500000D01*
X57165000Y-61265000D02*
X57600000Y-60830000D01*
X57600000Y-58500000D02*
X57100000Y-58000000D01*
X55950000Y-61265000D02*
X57165000Y-61265000D01*
X56500000Y-58000000D02*
X56100000Y-57600000D01*
G04 #@! TO.N,Net-(TP3-Pad1)*
X65200000Y-64300000D02*
X65300000Y-64400000D01*
X55723887Y-51800890D02*
X55723887Y-56063610D01*
X56921950Y-57261673D02*
X57461673Y-57261673D01*
X64705000Y-63805000D02*
X65200000Y-64300000D01*
X59005000Y-63805000D02*
X63250000Y-63805000D01*
X57461673Y-57261673D02*
X58300000Y-58100000D01*
X55723887Y-56063610D02*
X56921950Y-57261673D01*
X65300000Y-65100000D02*
X66000000Y-65800000D01*
X57500000Y-61800000D02*
X57500000Y-62300000D01*
X65300000Y-64400000D02*
X65300000Y-65100000D01*
X57500000Y-62300000D02*
X59005000Y-63805000D01*
X58300000Y-61000000D02*
X57500000Y-61800000D01*
X66000000Y-65800000D02*
X68900000Y-65800000D01*
X58300000Y-58100000D02*
X58300000Y-61000000D01*
X63250000Y-63805000D02*
X64705000Y-63805000D01*
X69200000Y-65800000D02*
X69500000Y-66100000D01*
X68900000Y-65800000D02*
X69200000Y-65800000D01*
G04 #@! TO.N,Net-(TP4-Pad1)*
X69600000Y-65100000D02*
X70400000Y-65900000D01*
X72100000Y-65900000D02*
X72600000Y-66400000D01*
X66000000Y-64700000D02*
X66400000Y-65100000D01*
X58600000Y-62300000D02*
X59000000Y-62700000D01*
X63250000Y-62535000D02*
X65535000Y-62535000D01*
X61765000Y-62535000D02*
X63250000Y-62535000D01*
X66000000Y-63000000D02*
X66000000Y-64700000D01*
X59000000Y-62700000D02*
X61600000Y-62700000D01*
X65535000Y-62535000D02*
X66000000Y-63000000D01*
X70400000Y-65900000D02*
X72100000Y-65900000D01*
X66400000Y-65100000D02*
X69600000Y-65100000D01*
X61600000Y-62700000D02*
X61765000Y-62535000D01*
X72600000Y-66400000D02*
X72600000Y-66800000D01*
G04 #@! TO.N,VBUS*
X68500000Y-56000000D02*
X68300000Y-56200000D01*
X68500000Y-51000000D02*
X68500000Y-56000000D01*
X77900000Y-48700000D02*
X77900000Y-50400000D01*
X77900000Y-50400000D02*
X77900000Y-57100000D01*
X72900000Y-43700000D02*
X77900000Y-48700000D01*
X77900000Y-57100000D02*
X76900000Y-58100000D01*
G04 #@! TO.N,+BATT*
X75800000Y-65300000D02*
X75400000Y-65700000D01*
X71400000Y-51900000D02*
X71400000Y-53400000D01*
X75400000Y-65700000D02*
X74275500Y-65700000D01*
X74275500Y-65700000D02*
X74000000Y-65424500D01*
G04 #@! TO.N,volt*
X59500000Y-65100000D02*
X60500000Y-66100000D01*
X63300000Y-66100000D02*
X63600000Y-65800000D01*
X55950000Y-62535000D02*
X56935000Y-62535000D01*
X62600000Y-66100000D02*
X63300000Y-66100000D01*
X63700000Y-65700000D02*
X64700000Y-65700000D01*
X60500000Y-66100000D02*
X62600000Y-66100000D01*
X56935000Y-62535000D02*
X57700000Y-63300000D01*
X57700000Y-63300000D02*
X59500000Y-65100000D01*
X63600000Y-65800000D02*
X63700000Y-65700000D01*
G04 #@! TO.N,+3V3*
X59505000Y-59995000D02*
X59400000Y-60100000D01*
X63250000Y-59995000D02*
X59505000Y-59995000D01*
X65000000Y-59600000D02*
X63645000Y-59600000D01*
X63645000Y-59600000D02*
X63250000Y-59995000D01*
G04 #@! TD*
M02*
