G04 #@! TF.GenerationSoftware,KiCad,Pcbnew,(6.0.1)*
G04 #@! TF.CreationDate,2022-06-02T08:59:42+05:30*
G04 #@! TF.ProjectId,BCD watch V1.0,42434420-7761-4746-9368-2056312e302e,rev?*
G04 #@! TF.SameCoordinates,Original*
G04 #@! TF.FileFunction,Soldermask,Top*
G04 #@! TF.FilePolarity,Negative*
%FSLAX46Y46*%
G04 Gerber Fmt 4.6, Leading zero omitted, Abs format (unit mm)*
G04 Created by KiCad (PCBNEW (6.0.1)) date 2022-06-02 08:59:42*
%MOMM*%
%LPD*%
G01*
G04 APERTURE LIST*
G04 Aperture macros list*
%AMRoundRect*
0 Rectangle with rounded corners*
0 $1 Rounding radius*
0 $2 $3 $4 $5 $6 $7 $8 $9 X,Y pos of 4 corners*
0 Add a 4 corners polygon primitive as box body*
4,1,4,$2,$3,$4,$5,$6,$7,$8,$9,$2,$3,0*
0 Add four circle primitives for the rounded corners*
1,1,$1+$1,$2,$3*
1,1,$1+$1,$4,$5*
1,1,$1+$1,$6,$7*
1,1,$1+$1,$8,$9*
0 Add four rect primitives between the rounded corners*
20,1,$1+$1,$2,$3,$4,$5,0*
20,1,$1+$1,$4,$5,$6,$7,0*
20,1,$1+$1,$6,$7,$8,$9,0*
20,1,$1+$1,$8,$9,$2,$3,0*%
G04 Aperture macros list end*
%ADD10C,0.010000*%
%ADD11RoundRect,0.437500X0.237500X-0.250000X0.237500X0.250000X-0.237500X0.250000X-0.237500X-0.250000X0*%
%ADD12RoundRect,0.437500X-0.287500X-0.237500X0.287500X-0.237500X0.287500X0.237500X-0.287500X0.237500X0*%
%ADD13RoundRect,0.437500X0.237500X-0.287500X0.237500X0.287500X-0.237500X0.287500X-0.237500X-0.287500X0*%
%ADD14RoundRect,0.200000X-0.900000X-0.550000X0.900000X-0.550000X0.900000X0.550000X-0.900000X0.550000X0*%
%ADD15RoundRect,0.200000X-0.850000X-0.325000X0.850000X-0.325000X0.850000X0.325000X-0.850000X0.325000X0*%
%ADD16RoundRect,0.437500X-0.237500X0.250000X-0.237500X-0.250000X0.237500X-0.250000X0.237500X0.250000X0*%
G04 APERTURE END LIST*
D10*
G04 #@! TO.C,G\u002A\u002A\u002A*
X82490934Y-55632007D02*
X81859461Y-55632007D01*
X81859461Y-55632007D02*
X81700015Y-55631551D01*
X81700015Y-55631551D02*
X81554417Y-55630261D01*
X81554417Y-55630261D02*
X81428010Y-55628254D01*
X81428010Y-55628254D02*
X81326138Y-55625647D01*
X81326138Y-55625647D02*
X81254144Y-55622556D01*
X81254144Y-55622556D02*
X81217374Y-55619099D01*
X81217374Y-55619099D02*
X81213878Y-55617896D01*
X81213878Y-55617896D02*
X81207392Y-55591544D01*
X81207392Y-55591544D02*
X81202478Y-55533753D01*
X81202478Y-55533753D02*
X81199944Y-55455414D01*
X81199944Y-55455414D02*
X81199767Y-55427396D01*
X81199767Y-55427396D02*
X81199767Y-55251007D01*
X81199767Y-55251007D02*
X82490934Y-55251007D01*
X82490934Y-55251007D02*
X82490934Y-55632007D01*
X82490934Y-55632007D02*
X82490934Y-55632007D01*
G36*
X82490934Y-55632007D02*
G01*
X81859461Y-55632007D01*
X81700015Y-55631551D01*
X81554417Y-55630261D01*
X81428010Y-55628254D01*
X81326138Y-55625647D01*
X81254144Y-55622556D01*
X81217374Y-55619099D01*
X81213878Y-55617896D01*
X81207392Y-55591544D01*
X81202478Y-55533753D01*
X81199944Y-55455414D01*
X81199767Y-55427396D01*
X81199767Y-55251007D01*
X82490934Y-55251007D01*
X82490934Y-55632007D01*
G37*
X82490934Y-55632007D02*
X81859461Y-55632007D01*
X81700015Y-55631551D01*
X81554417Y-55630261D01*
X81428010Y-55628254D01*
X81326138Y-55625647D01*
X81254144Y-55622556D01*
X81217374Y-55619099D01*
X81213878Y-55617896D01*
X81207392Y-55591544D01*
X81202478Y-55533753D01*
X81199944Y-55455414D01*
X81199767Y-55427396D01*
X81199767Y-55251007D01*
X82490934Y-55251007D01*
X82490934Y-55632007D01*
X79008554Y-45598772D02*
X79010282Y-45600057D01*
X79010282Y-45600057D02*
X79036411Y-45634910D01*
X79036411Y-45634910D02*
X79040767Y-45652424D01*
X79040767Y-45652424D02*
X79024219Y-45672603D01*
X79024219Y-45672603D02*
X78977679Y-45713532D01*
X78977679Y-45713532D02*
X78905806Y-45771639D01*
X78905806Y-45771639D02*
X78813258Y-45843354D01*
X78813258Y-45843354D02*
X78704692Y-45925104D01*
X78704692Y-45925104D02*
X78584767Y-46013320D01*
X78584767Y-46013320D02*
X78458140Y-46104428D01*
X78458140Y-46104428D02*
X78371513Y-46165561D01*
X78371513Y-46165561D02*
X78327547Y-46194529D01*
X78327547Y-46194529D02*
X78302023Y-46199802D01*
X78302023Y-46199802D02*
X78278702Y-46181961D01*
X78278702Y-46181961D02*
X78267095Y-46169304D01*
X78267095Y-46169304D02*
X78252466Y-46153270D01*
X78252466Y-46153270D02*
X78243800Y-46139174D01*
X78243800Y-46139174D02*
X78244689Y-46123621D01*
X78244689Y-46123621D02*
X78258723Y-46103214D01*
X78258723Y-46103214D02*
X78289496Y-46074556D01*
X78289496Y-46074556D02*
X78340600Y-46034250D01*
X78340600Y-46034250D02*
X78415625Y-45978901D01*
X78415625Y-45978901D02*
X78518164Y-45905112D01*
X78518164Y-45905112D02*
X78634573Y-45821825D01*
X78634573Y-45821825D02*
X78755969Y-45735730D01*
X78755969Y-45735730D02*
X78847949Y-45672620D01*
X78847949Y-45672620D02*
X78914857Y-45629931D01*
X78914857Y-45629931D02*
X78961033Y-45605102D01*
X78961033Y-45605102D02*
X78990818Y-45595570D01*
X78990818Y-45595570D02*
X79008554Y-45598772D01*
X79008554Y-45598772D02*
X79008554Y-45598772D01*
G36*
X79008554Y-45598772D02*
G01*
X79010282Y-45600057D01*
X79036411Y-45634910D01*
X79040767Y-45652424D01*
X79024219Y-45672603D01*
X78977679Y-45713532D01*
X78905806Y-45771639D01*
X78813258Y-45843354D01*
X78704692Y-45925104D01*
X78584767Y-46013320D01*
X78458140Y-46104428D01*
X78371513Y-46165561D01*
X78327547Y-46194529D01*
X78302023Y-46199802D01*
X78278702Y-46181961D01*
X78267095Y-46169304D01*
X78252466Y-46153270D01*
X78243800Y-46139174D01*
X78244689Y-46123621D01*
X78258723Y-46103214D01*
X78289496Y-46074556D01*
X78340600Y-46034250D01*
X78415625Y-45978901D01*
X78518164Y-45905112D01*
X78634573Y-45821825D01*
X78755969Y-45735730D01*
X78847949Y-45672620D01*
X78914857Y-45629931D01*
X78961033Y-45605102D01*
X78990818Y-45595570D01*
X79008554Y-45598772D01*
G37*
X79008554Y-45598772D02*
X79010282Y-45600057D01*
X79036411Y-45634910D01*
X79040767Y-45652424D01*
X79024219Y-45672603D01*
X78977679Y-45713532D01*
X78905806Y-45771639D01*
X78813258Y-45843354D01*
X78704692Y-45925104D01*
X78584767Y-46013320D01*
X78458140Y-46104428D01*
X78371513Y-46165561D01*
X78327547Y-46194529D01*
X78302023Y-46199802D01*
X78278702Y-46181961D01*
X78267095Y-46169304D01*
X78252466Y-46153270D01*
X78243800Y-46139174D01*
X78244689Y-46123621D01*
X78258723Y-46103214D01*
X78289496Y-46074556D01*
X78340600Y-46034250D01*
X78415625Y-45978901D01*
X78518164Y-45905112D01*
X78634573Y-45821825D01*
X78755969Y-45735730D01*
X78847949Y-45672620D01*
X78914857Y-45629931D01*
X78961033Y-45605102D01*
X78990818Y-45595570D01*
X79008554Y-45598772D01*
X52711137Y-64705519D02*
X52738142Y-64730312D01*
X52738142Y-64730312D02*
X52748325Y-64744467D01*
X52748325Y-64744467D02*
X52749482Y-64759714D01*
X52749482Y-64759714D02*
X52737710Y-64779633D01*
X52737710Y-64779633D02*
X52709108Y-64807806D01*
X52709108Y-64807806D02*
X52659773Y-64847815D01*
X52659773Y-64847815D02*
X52585803Y-64903239D01*
X52585803Y-64903239D02*
X52483295Y-64977659D01*
X52483295Y-64977659D02*
X52415358Y-65026535D01*
X52415358Y-65026535D02*
X52306255Y-65104423D01*
X52306255Y-65104423D02*
X52207420Y-65174038D01*
X52207420Y-65174038D02*
X52124490Y-65231486D01*
X52124490Y-65231486D02*
X52063100Y-65272874D01*
X52063100Y-65272874D02*
X52028888Y-65294306D01*
X52028888Y-65294306D02*
X52025159Y-65296122D01*
X52025159Y-65296122D02*
X51989785Y-65289926D01*
X51989785Y-65289926D02*
X51971042Y-65267403D01*
X51971042Y-65267403D02*
X51961830Y-65230620D01*
X51961830Y-65230620D02*
X51983770Y-65195531D01*
X51983770Y-65195531D02*
X51995877Y-65183998D01*
X51995877Y-65183998D02*
X52034040Y-65152575D01*
X52034040Y-65152575D02*
X52096180Y-65104865D01*
X52096180Y-65104865D02*
X52175852Y-65045488D01*
X52175852Y-65045488D02*
X52266611Y-64979066D01*
X52266611Y-64979066D02*
X52362012Y-64910219D01*
X52362012Y-64910219D02*
X52455609Y-64843568D01*
X52455609Y-64843568D02*
X52540958Y-64783733D01*
X52540958Y-64783733D02*
X52611615Y-64735337D01*
X52611615Y-64735337D02*
X52661133Y-64702999D01*
X52661133Y-64702999D02*
X52683015Y-64691340D01*
X52683015Y-64691340D02*
X52711137Y-64705519D01*
X52711137Y-64705519D02*
X52711137Y-64705519D01*
G36*
X52711137Y-64705519D02*
G01*
X52738142Y-64730312D01*
X52748325Y-64744467D01*
X52749482Y-64759714D01*
X52737710Y-64779633D01*
X52709108Y-64807806D01*
X52659773Y-64847815D01*
X52585803Y-64903239D01*
X52483295Y-64977659D01*
X52415358Y-65026535D01*
X52306255Y-65104423D01*
X52207420Y-65174038D01*
X52124490Y-65231486D01*
X52063100Y-65272874D01*
X52028888Y-65294306D01*
X52025159Y-65296122D01*
X51989785Y-65289926D01*
X51971042Y-65267403D01*
X51961830Y-65230620D01*
X51983770Y-65195531D01*
X51995877Y-65183998D01*
X52034040Y-65152575D01*
X52096180Y-65104865D01*
X52175852Y-65045488D01*
X52266611Y-64979066D01*
X52362012Y-64910219D01*
X52455609Y-64843568D01*
X52540958Y-64783733D01*
X52611615Y-64735337D01*
X52661133Y-64702999D01*
X52683015Y-64691340D01*
X52711137Y-64705519D01*
G37*
X52711137Y-64705519D02*
X52738142Y-64730312D01*
X52748325Y-64744467D01*
X52749482Y-64759714D01*
X52737710Y-64779633D01*
X52709108Y-64807806D01*
X52659773Y-64847815D01*
X52585803Y-64903239D01*
X52483295Y-64977659D01*
X52415358Y-65026535D01*
X52306255Y-65104423D01*
X52207420Y-65174038D01*
X52124490Y-65231486D01*
X52063100Y-65272874D01*
X52028888Y-65294306D01*
X52025159Y-65296122D01*
X51989785Y-65289926D01*
X51971042Y-65267403D01*
X51961830Y-65230620D01*
X51983770Y-65195531D01*
X51995877Y-65183998D01*
X52034040Y-65152575D01*
X52096180Y-65104865D01*
X52175852Y-65045488D01*
X52266611Y-64979066D01*
X52362012Y-64910219D01*
X52455609Y-64843568D01*
X52540958Y-64783733D01*
X52611615Y-64735337D01*
X52661133Y-64702999D01*
X52683015Y-64691340D01*
X52711137Y-64705519D01*
X77964299Y-44301465D02*
X77661158Y-44573225D01*
X77661158Y-44573225D02*
X77563608Y-44660635D01*
X77563608Y-44660635D02*
X77474348Y-44740539D01*
X77474348Y-44740539D02*
X77399164Y-44807764D01*
X77399164Y-44807764D02*
X77343842Y-44857137D01*
X77343842Y-44857137D02*
X77314168Y-44883483D01*
X77314168Y-44883483D02*
X77313970Y-44883658D01*
X77313970Y-44883658D02*
X77280453Y-44909045D01*
X77280453Y-44909045D02*
X77256706Y-44904973D01*
X77256706Y-44904973D02*
X77229303Y-44877437D01*
X77229303Y-44877437D02*
X77208432Y-44851839D01*
X77208432Y-44851839D02*
X77204977Y-44830715D01*
X77204977Y-44830715D02*
X77223254Y-44804265D01*
X77223254Y-44804265D02*
X77267581Y-44762690D01*
X77267581Y-44762690D02*
X77287718Y-44744817D01*
X77287718Y-44744817D02*
X77339342Y-44698944D01*
X77339342Y-44698944D02*
X77413885Y-44632521D01*
X77413885Y-44632521D02*
X77502726Y-44553235D01*
X77502726Y-44553235D02*
X77597248Y-44468778D01*
X77597248Y-44468778D02*
X77633027Y-44436779D01*
X77633027Y-44436779D02*
X77879302Y-44216468D01*
X77879302Y-44216468D02*
X77964299Y-44301465D01*
X77964299Y-44301465D02*
X77964299Y-44301465D01*
G36*
X77964299Y-44301465D02*
G01*
X77661158Y-44573225D01*
X77563608Y-44660635D01*
X77474348Y-44740539D01*
X77399164Y-44807764D01*
X77343842Y-44857137D01*
X77314168Y-44883483D01*
X77313970Y-44883658D01*
X77280453Y-44909045D01*
X77256706Y-44904973D01*
X77229303Y-44877437D01*
X77208432Y-44851839D01*
X77204977Y-44830715D01*
X77223254Y-44804265D01*
X77267581Y-44762690D01*
X77287718Y-44744817D01*
X77339342Y-44698944D01*
X77413885Y-44632521D01*
X77502726Y-44553235D01*
X77597248Y-44468778D01*
X77633027Y-44436779D01*
X77879302Y-44216468D01*
X77964299Y-44301465D01*
G37*
X77964299Y-44301465D02*
X77661158Y-44573225D01*
X77563608Y-44660635D01*
X77474348Y-44740539D01*
X77399164Y-44807764D01*
X77343842Y-44857137D01*
X77314168Y-44883483D01*
X77313970Y-44883658D01*
X77280453Y-44909045D01*
X77256706Y-44904973D01*
X77229303Y-44877437D01*
X77208432Y-44851839D01*
X77204977Y-44830715D01*
X77223254Y-44804265D01*
X77267581Y-44762690D01*
X77287718Y-44744817D01*
X77339342Y-44698944D01*
X77413885Y-44632521D01*
X77502726Y-44553235D01*
X77597248Y-44468778D01*
X77633027Y-44436779D01*
X77879302Y-44216468D01*
X77964299Y-44301465D01*
X51803846Y-63168191D02*
X51839954Y-63207373D01*
X51839954Y-63207373D02*
X51880480Y-63264099D01*
X51880480Y-63264099D02*
X51918860Y-63327877D01*
X51918860Y-63327877D02*
X51948534Y-63388214D01*
X51948534Y-63388214D02*
X51962938Y-63434620D01*
X51962938Y-63434620D02*
X51962062Y-63450182D01*
X51962062Y-63450182D02*
X51940942Y-63469210D01*
X51940942Y-63469210D02*
X51888553Y-63505430D01*
X51888553Y-63505430D02*
X51810636Y-63555477D01*
X51810636Y-63555477D02*
X51712928Y-63615985D01*
X51712928Y-63615985D02*
X51601170Y-63683592D01*
X51601170Y-63683592D02*
X51481100Y-63754931D01*
X51481100Y-63754931D02*
X51358457Y-63826637D01*
X51358457Y-63826637D02*
X51238981Y-63895348D01*
X51238981Y-63895348D02*
X51128410Y-63957696D01*
X51128410Y-63957696D02*
X51032485Y-64010319D01*
X51032485Y-64010319D02*
X50956942Y-64049850D01*
X50956942Y-64049850D02*
X50907523Y-64072926D01*
X50907523Y-64072926D02*
X50892054Y-64077507D01*
X50892054Y-64077507D02*
X50869237Y-64060801D01*
X50869237Y-64060801D02*
X50832316Y-64016716D01*
X50832316Y-64016716D02*
X50788753Y-63954300D01*
X50788753Y-63954300D02*
X50782930Y-63945215D01*
X50782930Y-63945215D02*
X50742068Y-63878075D01*
X50742068Y-63878075D02*
X50712144Y-63823705D01*
X50712144Y-63823705D02*
X50698979Y-63792765D01*
X50698979Y-63792765D02*
X50698801Y-63791138D01*
X50698801Y-63791138D02*
X50716243Y-63776751D01*
X50716243Y-63776751D02*
X50764963Y-63744705D01*
X50764963Y-63744705D02*
X50839428Y-63698250D01*
X50839428Y-63698250D02*
X50934106Y-63640632D01*
X50934106Y-63640632D02*
X51043465Y-63575102D01*
X51043465Y-63575102D02*
X51161971Y-63504907D01*
X51161971Y-63504907D02*
X51284093Y-63433296D01*
X51284093Y-63433296D02*
X51404298Y-63363517D01*
X51404298Y-63363517D02*
X51517054Y-63298819D01*
X51517054Y-63298819D02*
X51616827Y-63242451D01*
X51616827Y-63242451D02*
X51698087Y-63197660D01*
X51698087Y-63197660D02*
X51755299Y-63167696D01*
X51755299Y-63167696D02*
X51778718Y-63157044D01*
X51778718Y-63157044D02*
X51803846Y-63168191D01*
X51803846Y-63168191D02*
X51803846Y-63168191D01*
G36*
X51803846Y-63168191D02*
G01*
X51839954Y-63207373D01*
X51880480Y-63264099D01*
X51918860Y-63327877D01*
X51948534Y-63388214D01*
X51962938Y-63434620D01*
X51962062Y-63450182D01*
X51940942Y-63469210D01*
X51888553Y-63505430D01*
X51810636Y-63555477D01*
X51712928Y-63615985D01*
X51601170Y-63683592D01*
X51481100Y-63754931D01*
X51358457Y-63826637D01*
X51238981Y-63895348D01*
X51128410Y-63957696D01*
X51032485Y-64010319D01*
X50956942Y-64049850D01*
X50907523Y-64072926D01*
X50892054Y-64077507D01*
X50869237Y-64060801D01*
X50832316Y-64016716D01*
X50788753Y-63954300D01*
X50782930Y-63945215D01*
X50742068Y-63878075D01*
X50712144Y-63823705D01*
X50698979Y-63792765D01*
X50698801Y-63791138D01*
X50716243Y-63776751D01*
X50764963Y-63744705D01*
X50839428Y-63698250D01*
X50934106Y-63640632D01*
X51043465Y-63575102D01*
X51161971Y-63504907D01*
X51284093Y-63433296D01*
X51404298Y-63363517D01*
X51517054Y-63298819D01*
X51616827Y-63242451D01*
X51698087Y-63197660D01*
X51755299Y-63167696D01*
X51778718Y-63157044D01*
X51803846Y-63168191D01*
G37*
X51803846Y-63168191D02*
X51839954Y-63207373D01*
X51880480Y-63264099D01*
X51918860Y-63327877D01*
X51948534Y-63388214D01*
X51962938Y-63434620D01*
X51962062Y-63450182D01*
X51940942Y-63469210D01*
X51888553Y-63505430D01*
X51810636Y-63555477D01*
X51712928Y-63615985D01*
X51601170Y-63683592D01*
X51481100Y-63754931D01*
X51358457Y-63826637D01*
X51238981Y-63895348D01*
X51128410Y-63957696D01*
X51032485Y-64010319D01*
X50956942Y-64049850D01*
X50907523Y-64072926D01*
X50892054Y-64077507D01*
X50869237Y-64060801D01*
X50832316Y-64016716D01*
X50788753Y-63954300D01*
X50782930Y-63945215D01*
X50742068Y-63878075D01*
X50712144Y-63823705D01*
X50698979Y-63792765D01*
X50698801Y-63791138D01*
X50716243Y-63776751D01*
X50764963Y-63744705D01*
X50839428Y-63698250D01*
X50934106Y-63640632D01*
X51043465Y-63575102D01*
X51161971Y-63504907D01*
X51284093Y-63433296D01*
X51404298Y-63363517D01*
X51517054Y-63298819D01*
X51616827Y-63242451D01*
X51698087Y-63197660D01*
X51755299Y-63167696D01*
X51778718Y-63157044D01*
X51803846Y-63168191D01*
X81826049Y-51934665D02*
X81845716Y-51946957D01*
X81845716Y-51946957D02*
X81853917Y-51967702D01*
X81853917Y-51967702D02*
X81855609Y-51993456D01*
X81855609Y-51993456D02*
X81846389Y-52010007D01*
X81846389Y-52010007D02*
X81814830Y-52026804D01*
X81814830Y-52026804D02*
X81755578Y-52045679D01*
X81755578Y-52045679D02*
X81663274Y-52068461D01*
X81663274Y-52068461D02*
X81586059Y-52085575D01*
X81586059Y-52085575D02*
X81463579Y-52112046D01*
X81463579Y-52112046D02*
X81336333Y-52139600D01*
X81336333Y-52139600D02*
X81220342Y-52164767D01*
X81220342Y-52164767D02*
X81140278Y-52182187D01*
X81140278Y-52182187D02*
X80964372Y-52220544D01*
X80964372Y-52220544D02*
X80941048Y-52169353D01*
X80941048Y-52169353D02*
X80927243Y-52127921D01*
X80927243Y-52127921D02*
X80928265Y-52107620D01*
X80928265Y-52107620D02*
X80951210Y-52100327D01*
X80951210Y-52100327D02*
X81009415Y-52085894D01*
X81009415Y-52085894D02*
X81096683Y-52065738D01*
X81096683Y-52065738D02*
X81206815Y-52041280D01*
X81206815Y-52041280D02*
X81333614Y-52013940D01*
X81333614Y-52013940D02*
X81381444Y-52003814D01*
X81381444Y-52003814D02*
X81533132Y-51972207D01*
X81533132Y-51972207D02*
X81648457Y-51949598D01*
X81648457Y-51949598D02*
X81732399Y-51935877D01*
X81732399Y-51935877D02*
X81789936Y-51930936D01*
X81789936Y-51930936D02*
X81826049Y-51934665D01*
X81826049Y-51934665D02*
X81826049Y-51934665D01*
G36*
X81826049Y-51934665D02*
G01*
X81845716Y-51946957D01*
X81853917Y-51967702D01*
X81855609Y-51993456D01*
X81846389Y-52010007D01*
X81814830Y-52026804D01*
X81755578Y-52045679D01*
X81663274Y-52068461D01*
X81586059Y-52085575D01*
X81463579Y-52112046D01*
X81336333Y-52139600D01*
X81220342Y-52164767D01*
X81140278Y-52182187D01*
X80964372Y-52220544D01*
X80941048Y-52169353D01*
X80927243Y-52127921D01*
X80928265Y-52107620D01*
X80951210Y-52100327D01*
X81009415Y-52085894D01*
X81096683Y-52065738D01*
X81206815Y-52041280D01*
X81333614Y-52013940D01*
X81381444Y-52003814D01*
X81533132Y-51972207D01*
X81648457Y-51949598D01*
X81732399Y-51935877D01*
X81789936Y-51930936D01*
X81826049Y-51934665D01*
G37*
X81826049Y-51934665D02*
X81845716Y-51946957D01*
X81853917Y-51967702D01*
X81855609Y-51993456D01*
X81846389Y-52010007D01*
X81814830Y-52026804D01*
X81755578Y-52045679D01*
X81663274Y-52068461D01*
X81586059Y-52085575D01*
X81463579Y-52112046D01*
X81336333Y-52139600D01*
X81220342Y-52164767D01*
X81140278Y-52182187D01*
X80964372Y-52220544D01*
X80941048Y-52169353D01*
X80927243Y-52127921D01*
X80928265Y-52107620D01*
X80951210Y-52100327D01*
X81009415Y-52085894D01*
X81096683Y-52065738D01*
X81206815Y-52041280D01*
X81333614Y-52013940D01*
X81381444Y-52003814D01*
X81533132Y-51972207D01*
X81648457Y-51949598D01*
X81732399Y-51935877D01*
X81789936Y-51930936D01*
X81826049Y-51934665D01*
X57561892Y-41810834D02*
X57694184Y-41811495D01*
X57694184Y-41811495D02*
X57609517Y-41863642D01*
X57609517Y-41863642D02*
X57541611Y-41901416D01*
X57541611Y-41901416D02*
X57497511Y-41913145D01*
X57497511Y-41913145D02*
X57468170Y-41899486D01*
X57468170Y-41899486D02*
X57451512Y-41875065D01*
X57451512Y-41875065D02*
X57435428Y-41840967D01*
X57435428Y-41840967D02*
X57437688Y-41821602D01*
X57437688Y-41821602D02*
X57465304Y-41812890D01*
X57465304Y-41812890D02*
X57525285Y-41810753D01*
X57525285Y-41810753D02*
X57561892Y-41810834D01*
X57561892Y-41810834D02*
X57561892Y-41810834D01*
G36*
X57561892Y-41810834D02*
G01*
X57694184Y-41811495D01*
X57609517Y-41863642D01*
X57541611Y-41901416D01*
X57497511Y-41913145D01*
X57468170Y-41899486D01*
X57451512Y-41875065D01*
X57435428Y-41840967D01*
X57437688Y-41821602D01*
X57465304Y-41812890D01*
X57525285Y-41810753D01*
X57561892Y-41810834D01*
G37*
X57561892Y-41810834D02*
X57694184Y-41811495D01*
X57609517Y-41863642D01*
X57541611Y-41901416D01*
X57497511Y-41913145D01*
X57468170Y-41899486D01*
X57451512Y-41875065D01*
X57435428Y-41840967D01*
X57437688Y-41821602D01*
X57465304Y-41812890D01*
X57525285Y-41810753D01*
X57561892Y-41810834D01*
X53116167Y-44233750D02*
X53141880Y-44245617D01*
X53141880Y-44245617D02*
X53179246Y-44272129D01*
X53179246Y-44272129D02*
X53232364Y-44316130D01*
X53232364Y-44316130D02*
X53305335Y-44380467D01*
X53305335Y-44380467D02*
X53402257Y-44467982D01*
X53402257Y-44467982D02*
X53502899Y-44559417D01*
X53502899Y-44559417D02*
X53608549Y-44655725D01*
X53608549Y-44655725D02*
X53686306Y-44727935D01*
X53686306Y-44727935D02*
X53739749Y-44780260D01*
X53739749Y-44780260D02*
X53772460Y-44816915D01*
X53772460Y-44816915D02*
X53788018Y-44842112D01*
X53788018Y-44842112D02*
X53790003Y-44860067D01*
X53790003Y-44860067D02*
X53781996Y-44874991D01*
X53781996Y-44874991D02*
X53776482Y-44881405D01*
X53776482Y-44881405D02*
X53744647Y-44911443D01*
X53744647Y-44911443D02*
X53727445Y-44920705D01*
X53727445Y-44920705D02*
X53708767Y-44906818D01*
X53708767Y-44906818D02*
X53663522Y-44868487D01*
X53663522Y-44868487D02*
X53596395Y-44809823D01*
X53596395Y-44809823D02*
X53512070Y-44734937D01*
X53512070Y-44734937D02*
X53415232Y-44647940D01*
X53415232Y-44647940D02*
X53371645Y-44608496D01*
X53371645Y-44608496D02*
X53259711Y-44506763D01*
X53259711Y-44506763D02*
X53175799Y-44429423D01*
X53175799Y-44429423D02*
X53116486Y-44372525D01*
X53116486Y-44372525D02*
X53078354Y-44332115D01*
X53078354Y-44332115D02*
X53057982Y-44304242D01*
X53057982Y-44304242D02*
X53051949Y-44284953D01*
X53051949Y-44284953D02*
X53056834Y-44270294D01*
X53056834Y-44270294D02*
X53067960Y-44257572D01*
X53067960Y-44257572D02*
X53083307Y-44242572D01*
X53083307Y-44242572D02*
X53098009Y-44233684D01*
X53098009Y-44233684D02*
X53116167Y-44233750D01*
X53116167Y-44233750D02*
X53116167Y-44233750D01*
G36*
X53116167Y-44233750D02*
G01*
X53141880Y-44245617D01*
X53179246Y-44272129D01*
X53232364Y-44316130D01*
X53305335Y-44380467D01*
X53402257Y-44467982D01*
X53502899Y-44559417D01*
X53608549Y-44655725D01*
X53686306Y-44727935D01*
X53739749Y-44780260D01*
X53772460Y-44816915D01*
X53788018Y-44842112D01*
X53790003Y-44860067D01*
X53781996Y-44874991D01*
X53776482Y-44881405D01*
X53744647Y-44911443D01*
X53727445Y-44920705D01*
X53708767Y-44906818D01*
X53663522Y-44868487D01*
X53596395Y-44809823D01*
X53512070Y-44734937D01*
X53415232Y-44647940D01*
X53371645Y-44608496D01*
X53259711Y-44506763D01*
X53175799Y-44429423D01*
X53116486Y-44372525D01*
X53078354Y-44332115D01*
X53057982Y-44304242D01*
X53051949Y-44284953D01*
X53056834Y-44270294D01*
X53067960Y-44257572D01*
X53083307Y-44242572D01*
X53098009Y-44233684D01*
X53116167Y-44233750D01*
G37*
X53116167Y-44233750D02*
X53141880Y-44245617D01*
X53179246Y-44272129D01*
X53232364Y-44316130D01*
X53305335Y-44380467D01*
X53402257Y-44467982D01*
X53502899Y-44559417D01*
X53608549Y-44655725D01*
X53686306Y-44727935D01*
X53739749Y-44780260D01*
X53772460Y-44816915D01*
X53788018Y-44842112D01*
X53790003Y-44860067D01*
X53781996Y-44874991D01*
X53776482Y-44881405D01*
X53744647Y-44911443D01*
X53727445Y-44920705D01*
X53708767Y-44906818D01*
X53663522Y-44868487D01*
X53596395Y-44809823D01*
X53512070Y-44734937D01*
X53415232Y-44647940D01*
X53371645Y-44608496D01*
X53259711Y-44506763D01*
X53175799Y-44429423D01*
X53116486Y-44372525D01*
X53078354Y-44332115D01*
X53057982Y-44304242D01*
X53051949Y-44284953D01*
X53056834Y-44270294D01*
X53067960Y-44257572D01*
X53083307Y-44242572D01*
X53098009Y-44233684D01*
X53116167Y-44233750D01*
X79223195Y-63154792D02*
X79252822Y-63169650D01*
X79252822Y-63169650D02*
X79312422Y-63202236D01*
X79312422Y-63202236D02*
X79396173Y-63249181D01*
X79396173Y-63249181D02*
X79498252Y-63307119D01*
X79498252Y-63307119D02*
X79612835Y-63372684D01*
X79612835Y-63372684D02*
X79734101Y-63442508D01*
X79734101Y-63442508D02*
X79856226Y-63513225D01*
X79856226Y-63513225D02*
X79973387Y-63581469D01*
X79973387Y-63581469D02*
X80079761Y-63643871D01*
X80079761Y-63643871D02*
X80169526Y-63697066D01*
X80169526Y-63697066D02*
X80236859Y-63737686D01*
X80236859Y-63737686D02*
X80275936Y-63762365D01*
X80275936Y-63762365D02*
X80282889Y-63767504D01*
X80282889Y-63767504D02*
X80291427Y-63790329D01*
X80291427Y-63790329D02*
X80280510Y-63830014D01*
X80280510Y-63830014D02*
X80247683Y-63894068D01*
X80247683Y-63894068D02*
X80233431Y-63918757D01*
X80233431Y-63918757D02*
X80192350Y-63986347D01*
X80192350Y-63986347D02*
X80156642Y-64040820D01*
X80156642Y-64040820D02*
X80134308Y-64070065D01*
X80134308Y-64070065D02*
X80117190Y-64072346D01*
X80117190Y-64072346D02*
X80081069Y-64061035D01*
X80081069Y-64061035D02*
X80022814Y-64034551D01*
X80022814Y-64034551D02*
X79939292Y-63991315D01*
X79939292Y-63991315D02*
X79827369Y-63929747D01*
X79827369Y-63929747D02*
X79683912Y-63848267D01*
X79683912Y-63848267D02*
X79609616Y-63805482D01*
X79609616Y-63805482D02*
X79475284Y-63727691D01*
X79475284Y-63727691D02*
X79350930Y-63655323D01*
X79350930Y-63655323D02*
X79241899Y-63591518D01*
X79241899Y-63591518D02*
X79153534Y-63539413D01*
X79153534Y-63539413D02*
X79091180Y-63502146D01*
X79091180Y-63502146D02*
X79060193Y-63482863D01*
X79060193Y-63482863D02*
X79010838Y-63449136D01*
X79010838Y-63449136D02*
X79101751Y-63296106D01*
X79101751Y-63296106D02*
X79155559Y-63212036D01*
X79155559Y-63212036D02*
X79195166Y-63165422D01*
X79195166Y-63165422D02*
X79222143Y-63154436D01*
X79222143Y-63154436D02*
X79223195Y-63154792D01*
X79223195Y-63154792D02*
X79223195Y-63154792D01*
G36*
X79223195Y-63154792D02*
G01*
X79252822Y-63169650D01*
X79312422Y-63202236D01*
X79396173Y-63249181D01*
X79498252Y-63307119D01*
X79612835Y-63372684D01*
X79734101Y-63442508D01*
X79856226Y-63513225D01*
X79973387Y-63581469D01*
X80079761Y-63643871D01*
X80169526Y-63697066D01*
X80236859Y-63737686D01*
X80275936Y-63762365D01*
X80282889Y-63767504D01*
X80291427Y-63790329D01*
X80280510Y-63830014D01*
X80247683Y-63894068D01*
X80233431Y-63918757D01*
X80192350Y-63986347D01*
X80156642Y-64040820D01*
X80134308Y-64070065D01*
X80117190Y-64072346D01*
X80081069Y-64061035D01*
X80022814Y-64034551D01*
X79939292Y-63991315D01*
X79827369Y-63929747D01*
X79683912Y-63848267D01*
X79609616Y-63805482D01*
X79475284Y-63727691D01*
X79350930Y-63655323D01*
X79241899Y-63591518D01*
X79153534Y-63539413D01*
X79091180Y-63502146D01*
X79060193Y-63482863D01*
X79010838Y-63449136D01*
X79101751Y-63296106D01*
X79155559Y-63212036D01*
X79195166Y-63165422D01*
X79222143Y-63154436D01*
X79223195Y-63154792D01*
G37*
X79223195Y-63154792D02*
X79252822Y-63169650D01*
X79312422Y-63202236D01*
X79396173Y-63249181D01*
X79498252Y-63307119D01*
X79612835Y-63372684D01*
X79734101Y-63442508D01*
X79856226Y-63513225D01*
X79973387Y-63581469D01*
X80079761Y-63643871D01*
X80169526Y-63697066D01*
X80236859Y-63737686D01*
X80275936Y-63762365D01*
X80282889Y-63767504D01*
X80291427Y-63790329D01*
X80280510Y-63830014D01*
X80247683Y-63894068D01*
X80233431Y-63918757D01*
X80192350Y-63986347D01*
X80156642Y-64040820D01*
X80134308Y-64070065D01*
X80117190Y-64072346D01*
X80081069Y-64061035D01*
X80022814Y-64034551D01*
X79939292Y-63991315D01*
X79827369Y-63929747D01*
X79683912Y-63848267D01*
X79609616Y-63805482D01*
X79475284Y-63727691D01*
X79350930Y-63655323D01*
X79241899Y-63591518D01*
X79153534Y-63539413D01*
X79091180Y-63502146D01*
X79060193Y-63482863D01*
X79010838Y-63449136D01*
X79101751Y-63296106D01*
X79155559Y-63212036D01*
X79195166Y-63165422D01*
X79222143Y-63154436D01*
X79223195Y-63154792D01*
X73526070Y-41810816D02*
X73561965Y-41815098D01*
X73561965Y-41815098D02*
X73570540Y-41826552D01*
X73570540Y-41826552D02*
X73559303Y-41848712D01*
X73559303Y-41848712D02*
X73554079Y-41856638D01*
X73554079Y-41856638D02*
X73523456Y-41894835D01*
X73523456Y-41894835D02*
X73491834Y-41906357D01*
X73491834Y-41906357D02*
X73446018Y-41892583D01*
X73446018Y-41892583D02*
X73405142Y-41872177D01*
X73405142Y-41872177D02*
X73356354Y-41844313D01*
X73356354Y-41844313D02*
X73328370Y-41824179D01*
X73328370Y-41824179D02*
X73325767Y-41820251D01*
X73325767Y-41820251D02*
X73345022Y-41814982D01*
X73345022Y-41814982D02*
X73395153Y-41811334D01*
X73395153Y-41811334D02*
X73455349Y-41810174D01*
X73455349Y-41810174D02*
X73526070Y-41810816D01*
X73526070Y-41810816D02*
X73526070Y-41810816D01*
G36*
X73526070Y-41810816D02*
G01*
X73561965Y-41815098D01*
X73570540Y-41826552D01*
X73559303Y-41848712D01*
X73554079Y-41856638D01*
X73523456Y-41894835D01*
X73491834Y-41906357D01*
X73446018Y-41892583D01*
X73405142Y-41872177D01*
X73356354Y-41844313D01*
X73328370Y-41824179D01*
X73325767Y-41820251D01*
X73345022Y-41814982D01*
X73395153Y-41811334D01*
X73455349Y-41810174D01*
X73526070Y-41810816D01*
G37*
X73526070Y-41810816D02*
X73561965Y-41815098D01*
X73570540Y-41826552D01*
X73559303Y-41848712D01*
X73554079Y-41856638D01*
X73523456Y-41894835D01*
X73491834Y-41906357D01*
X73446018Y-41892583D01*
X73405142Y-41872177D01*
X73356354Y-41844313D01*
X73328370Y-41824179D01*
X73325767Y-41820251D01*
X73345022Y-41814982D01*
X73395153Y-41811334D01*
X73455349Y-41810174D01*
X73526070Y-41810816D01*
X81387729Y-50252914D02*
X81408910Y-50297148D01*
X81408910Y-50297148D02*
X81411434Y-50320257D01*
X81411434Y-50320257D02*
X81392451Y-50330455D01*
X81392451Y-50330455D02*
X81340216Y-50351155D01*
X81340216Y-50351155D02*
X81261798Y-50379967D01*
X81261798Y-50379967D02*
X81164266Y-50414498D01*
X81164266Y-50414498D02*
X81054689Y-50452357D01*
X81054689Y-50452357D02*
X80940137Y-50491151D01*
X80940137Y-50491151D02*
X80827678Y-50528490D01*
X80827678Y-50528490D02*
X80724382Y-50561980D01*
X80724382Y-50561980D02*
X80637318Y-50589231D01*
X80637318Y-50589231D02*
X80573555Y-50607850D01*
X80573555Y-50607850D02*
X80540162Y-50615446D01*
X80540162Y-50615446D02*
X80538825Y-50615507D01*
X80538825Y-50615507D02*
X80522567Y-50598085D01*
X80522567Y-50598085D02*
X80511174Y-50571043D01*
X80511174Y-50571043D02*
X80507106Y-50528762D01*
X80507106Y-50528762D02*
X80515039Y-50509868D01*
X80515039Y-50509868D02*
X80540537Y-50497940D01*
X80540537Y-50497940D02*
X80598907Y-50475969D01*
X80598907Y-50475969D02*
X80682587Y-50446437D01*
X80682587Y-50446437D02*
X80784010Y-50411826D01*
X80784010Y-50411826D02*
X80895612Y-50374619D01*
X80895612Y-50374619D02*
X81009830Y-50337299D01*
X81009830Y-50337299D02*
X81119097Y-50302349D01*
X81119097Y-50302349D02*
X81215851Y-50272252D01*
X81215851Y-50272252D02*
X81292526Y-50249488D01*
X81292526Y-50249488D02*
X81341557Y-50236543D01*
X81341557Y-50236543D02*
X81354061Y-50234507D01*
X81354061Y-50234507D02*
X81387729Y-50252914D01*
X81387729Y-50252914D02*
X81387729Y-50252914D01*
G36*
X81387729Y-50252914D02*
G01*
X81408910Y-50297148D01*
X81411434Y-50320257D01*
X81392451Y-50330455D01*
X81340216Y-50351155D01*
X81261798Y-50379967D01*
X81164266Y-50414498D01*
X81054689Y-50452357D01*
X80940137Y-50491151D01*
X80827678Y-50528490D01*
X80724382Y-50561980D01*
X80637318Y-50589231D01*
X80573555Y-50607850D01*
X80540162Y-50615446D01*
X80538825Y-50615507D01*
X80522567Y-50598085D01*
X80511174Y-50571043D01*
X80507106Y-50528762D01*
X80515039Y-50509868D01*
X80540537Y-50497940D01*
X80598907Y-50475969D01*
X80682587Y-50446437D01*
X80784010Y-50411826D01*
X80895612Y-50374619D01*
X81009830Y-50337299D01*
X81119097Y-50302349D01*
X81215851Y-50272252D01*
X81292526Y-50249488D01*
X81341557Y-50236543D01*
X81354061Y-50234507D01*
X81387729Y-50252914D01*
G37*
X81387729Y-50252914D02*
X81408910Y-50297148D01*
X81411434Y-50320257D01*
X81392451Y-50330455D01*
X81340216Y-50351155D01*
X81261798Y-50379967D01*
X81164266Y-50414498D01*
X81054689Y-50452357D01*
X80940137Y-50491151D01*
X80827678Y-50528490D01*
X80724382Y-50561980D01*
X80637318Y-50589231D01*
X80573555Y-50607850D01*
X80540162Y-50615446D01*
X80538825Y-50615507D01*
X80522567Y-50598085D01*
X80511174Y-50571043D01*
X80507106Y-50528762D01*
X80515039Y-50509868D01*
X80540537Y-50497940D01*
X80598907Y-50475969D01*
X80682587Y-50446437D01*
X80784010Y-50411826D01*
X80895612Y-50374619D01*
X81009830Y-50337299D01*
X81119097Y-50302349D01*
X81215851Y-50272252D01*
X81292526Y-50249488D01*
X81341557Y-50236543D01*
X81354061Y-50234507D01*
X81387729Y-50252914D01*
X79983513Y-61839121D02*
X80043826Y-61857883D01*
X80043826Y-61857883D02*
X80129882Y-61891387D01*
X80129882Y-61891387D02*
X80246221Y-61940642D01*
X80246221Y-61940642D02*
X80366256Y-61992990D01*
X80366256Y-61992990D02*
X80489824Y-62047341D01*
X80489824Y-62047341D02*
X80599685Y-62095924D01*
X80599685Y-62095924D02*
X80690141Y-62136200D01*
X80690141Y-62136200D02*
X80755492Y-62165626D01*
X80755492Y-62165626D02*
X80790042Y-62181662D01*
X80790042Y-62181662D02*
X80793965Y-62183760D01*
X80793965Y-62183760D02*
X80790355Y-62204580D01*
X80790355Y-62204580D02*
X80772699Y-62243779D01*
X80772699Y-62243779D02*
X80744486Y-62297626D01*
X80744486Y-62297626D02*
X80374168Y-62132944D01*
X80374168Y-62132944D02*
X80228087Y-62067849D01*
X80228087Y-62067849D02*
X80116205Y-62017473D01*
X80116205Y-62017473D02*
X80033982Y-61979458D01*
X80033982Y-61979458D02*
X79976881Y-61951447D01*
X79976881Y-61951447D02*
X79940363Y-61931084D01*
X79940363Y-61931084D02*
X79919888Y-61916009D01*
X79919888Y-61916009D02*
X79910920Y-61903867D01*
X79910920Y-61903867D02*
X79908919Y-61892301D01*
X79908919Y-61892301D02*
X79908924Y-61891304D01*
X79908924Y-61891304D02*
X79911649Y-61861191D01*
X79911649Y-61861191D02*
X79921963Y-61841784D01*
X79921963Y-61841784D02*
X79944404Y-61834091D01*
X79944404Y-61834091D02*
X79983513Y-61839121D01*
X79983513Y-61839121D02*
X79983513Y-61839121D01*
G36*
X79983513Y-61839121D02*
G01*
X80043826Y-61857883D01*
X80129882Y-61891387D01*
X80246221Y-61940642D01*
X80366256Y-61992990D01*
X80489824Y-62047341D01*
X80599685Y-62095924D01*
X80690141Y-62136200D01*
X80755492Y-62165626D01*
X80790042Y-62181662D01*
X80793965Y-62183760D01*
X80790355Y-62204580D01*
X80772699Y-62243779D01*
X80744486Y-62297626D01*
X80374168Y-62132944D01*
X80228087Y-62067849D01*
X80116205Y-62017473D01*
X80033982Y-61979458D01*
X79976881Y-61951447D01*
X79940363Y-61931084D01*
X79919888Y-61916009D01*
X79910920Y-61903867D01*
X79908919Y-61892301D01*
X79908924Y-61891304D01*
X79911649Y-61861191D01*
X79921963Y-61841784D01*
X79944404Y-61834091D01*
X79983513Y-61839121D01*
G37*
X79983513Y-61839121D02*
X80043826Y-61857883D01*
X80129882Y-61891387D01*
X80246221Y-61940642D01*
X80366256Y-61992990D01*
X80489824Y-62047341D01*
X80599685Y-62095924D01*
X80690141Y-62136200D01*
X80755492Y-62165626D01*
X80790042Y-62181662D01*
X80793965Y-62183760D01*
X80790355Y-62204580D01*
X80772699Y-62243779D01*
X80744486Y-62297626D01*
X80374168Y-62132944D01*
X80228087Y-62067849D01*
X80116205Y-62017473D01*
X80033982Y-61979458D01*
X79976881Y-61951447D01*
X79940363Y-61931084D01*
X79919888Y-61916009D01*
X79910920Y-61903867D01*
X79908919Y-61892301D01*
X79908924Y-61891304D01*
X79911649Y-61861191D01*
X79921963Y-61841784D01*
X79944404Y-61834091D01*
X79983513Y-61839121D01*
X50483915Y-60304721D02*
X50492795Y-60329967D01*
X50492795Y-60329967D02*
X50494656Y-60346380D01*
X50494656Y-60346380D02*
X50488102Y-60361688D01*
X50488102Y-60361688D02*
X50468736Y-60377786D01*
X50468736Y-60377786D02*
X50432159Y-60396573D01*
X50432159Y-60396573D02*
X50373973Y-60419945D01*
X50373973Y-60419945D02*
X50289781Y-60449800D01*
X50289781Y-60449800D02*
X50175184Y-60488036D01*
X50175184Y-60488036D02*
X50025785Y-60536550D01*
X50025785Y-60536550D02*
X49978934Y-60551649D01*
X49978934Y-60551649D02*
X49870364Y-60586630D01*
X49870364Y-60586630D02*
X49775219Y-60617327D01*
X49775219Y-60617327D02*
X49701190Y-60641255D01*
X49701190Y-60641255D02*
X49655975Y-60655927D01*
X49655975Y-60655927D02*
X49646642Y-60658994D01*
X49646642Y-60658994D02*
X49621217Y-60648774D01*
X49621217Y-60648774D02*
X49607425Y-60623900D01*
X49607425Y-60623900D02*
X49608517Y-60574096D01*
X49608517Y-60574096D02*
X49622216Y-60552703D01*
X49622216Y-60552703D02*
X49650106Y-60538169D01*
X49650106Y-60538169D02*
X49709947Y-60514374D01*
X49709947Y-60514374D02*
X49794347Y-60483721D01*
X49794347Y-60483721D02*
X49895912Y-60448613D01*
X49895912Y-60448613D02*
X50007248Y-60411454D01*
X50007248Y-60411454D02*
X50120961Y-60374648D01*
X50120961Y-60374648D02*
X50229657Y-60340598D01*
X50229657Y-60340598D02*
X50325943Y-60311707D01*
X50325943Y-60311707D02*
X50402424Y-60290378D01*
X50402424Y-60290378D02*
X50451706Y-60279016D01*
X50451706Y-60279016D02*
X50466198Y-60278356D01*
X50466198Y-60278356D02*
X50483915Y-60304721D01*
X50483915Y-60304721D02*
X50483915Y-60304721D01*
G36*
X50483915Y-60304721D02*
G01*
X50492795Y-60329967D01*
X50494656Y-60346380D01*
X50488102Y-60361688D01*
X50468736Y-60377786D01*
X50432159Y-60396573D01*
X50373973Y-60419945D01*
X50289781Y-60449800D01*
X50175184Y-60488036D01*
X50025785Y-60536550D01*
X49978934Y-60551649D01*
X49870364Y-60586630D01*
X49775219Y-60617327D01*
X49701190Y-60641255D01*
X49655975Y-60655927D01*
X49646642Y-60658994D01*
X49621217Y-60648774D01*
X49607425Y-60623900D01*
X49608517Y-60574096D01*
X49622216Y-60552703D01*
X49650106Y-60538169D01*
X49709947Y-60514374D01*
X49794347Y-60483721D01*
X49895912Y-60448613D01*
X50007248Y-60411454D01*
X50120961Y-60374648D01*
X50229657Y-60340598D01*
X50325943Y-60311707D01*
X50402424Y-60290378D01*
X50451706Y-60279016D01*
X50466198Y-60278356D01*
X50483915Y-60304721D01*
G37*
X50483915Y-60304721D02*
X50492795Y-60329967D01*
X50494656Y-60346380D01*
X50488102Y-60361688D01*
X50468736Y-60377786D01*
X50432159Y-60396573D01*
X50373973Y-60419945D01*
X50289781Y-60449800D01*
X50175184Y-60488036D01*
X50025785Y-60536550D01*
X49978934Y-60551649D01*
X49870364Y-60586630D01*
X49775219Y-60617327D01*
X49701190Y-60641255D01*
X49655975Y-60655927D01*
X49646642Y-60658994D01*
X49621217Y-60648774D01*
X49607425Y-60623900D01*
X49608517Y-60574096D01*
X49622216Y-60552703D01*
X49650106Y-60538169D01*
X49709947Y-60514374D01*
X49794347Y-60483721D01*
X49895912Y-60448613D01*
X50007248Y-60411454D01*
X50120961Y-60374648D01*
X50229657Y-60340598D01*
X50325943Y-60311707D01*
X50402424Y-60290378D01*
X50451706Y-60279016D01*
X50466198Y-60278356D01*
X50483915Y-60304721D01*
X81262721Y-57036904D02*
X81279142Y-57039009D01*
X81279142Y-57039009D02*
X81327525Y-57044663D01*
X81327525Y-57044663D02*
X81408641Y-57053331D01*
X81408641Y-57053331D02*
X81513077Y-57064042D01*
X81513077Y-57064042D02*
X81631421Y-57075822D01*
X81631421Y-57075822D02*
X81697184Y-57082226D01*
X81697184Y-57082226D02*
X81843435Y-57096495D01*
X81843435Y-57096495D02*
X81952777Y-57107962D01*
X81952777Y-57107962D02*
X82030441Y-57117857D01*
X82030441Y-57117857D02*
X82081657Y-57127408D01*
X82081657Y-57127408D02*
X82111658Y-57137844D01*
X82111658Y-57137844D02*
X82125674Y-57150394D01*
X82125674Y-57150394D02*
X82128938Y-57166285D01*
X82128938Y-57166285D02*
X82127183Y-57183213D01*
X82127183Y-57183213D02*
X82117618Y-57211600D01*
X82117618Y-57211600D02*
X82091893Y-57226282D01*
X82091893Y-57226282D02*
X82038710Y-57232272D01*
X82038710Y-57232272D02*
X82014684Y-57233154D01*
X82014684Y-57233154D02*
X81955987Y-57231723D01*
X81955987Y-57231723D02*
X81865819Y-57225722D01*
X81865819Y-57225722D02*
X81754692Y-57216015D01*
X81754692Y-57216015D02*
X81633116Y-57203466D01*
X81633116Y-57203466D02*
X81580767Y-57197474D01*
X81580767Y-57197474D02*
X81466120Y-57184043D01*
X81466120Y-57184043D02*
X81365441Y-57172453D01*
X81365441Y-57172453D02*
X81286638Y-57163597D01*
X81286638Y-57163597D02*
X81237618Y-57158371D01*
X81237618Y-57158371D02*
X81226225Y-57157368D01*
X81226225Y-57157368D02*
X81207218Y-57137712D01*
X81207218Y-57137712D02*
X81199767Y-57092257D01*
X81199767Y-57092257D02*
X81202647Y-57051078D01*
X81202647Y-57051078D02*
X81219517Y-57035387D01*
X81219517Y-57035387D02*
X81262721Y-57036904D01*
X81262721Y-57036904D02*
X81262721Y-57036904D01*
G36*
X81262721Y-57036904D02*
G01*
X81279142Y-57039009D01*
X81327525Y-57044663D01*
X81408641Y-57053331D01*
X81513077Y-57064042D01*
X81631421Y-57075822D01*
X81697184Y-57082226D01*
X81843435Y-57096495D01*
X81952777Y-57107962D01*
X82030441Y-57117857D01*
X82081657Y-57127408D01*
X82111658Y-57137844D01*
X82125674Y-57150394D01*
X82128938Y-57166285D01*
X82127183Y-57183213D01*
X82117618Y-57211600D01*
X82091893Y-57226282D01*
X82038710Y-57232272D01*
X82014684Y-57233154D01*
X81955987Y-57231723D01*
X81865819Y-57225722D01*
X81754692Y-57216015D01*
X81633116Y-57203466D01*
X81580767Y-57197474D01*
X81466120Y-57184043D01*
X81365441Y-57172453D01*
X81286638Y-57163597D01*
X81237618Y-57158371D01*
X81226225Y-57157368D01*
X81207218Y-57137712D01*
X81199767Y-57092257D01*
X81202647Y-57051078D01*
X81219517Y-57035387D01*
X81262721Y-57036904D01*
G37*
X81262721Y-57036904D02*
X81279142Y-57039009D01*
X81327525Y-57044663D01*
X81408641Y-57053331D01*
X81513077Y-57064042D01*
X81631421Y-57075822D01*
X81697184Y-57082226D01*
X81843435Y-57096495D01*
X81952777Y-57107962D01*
X82030441Y-57117857D01*
X82081657Y-57127408D01*
X82111658Y-57137844D01*
X82125674Y-57150394D01*
X82128938Y-57166285D01*
X82127183Y-57183213D01*
X82117618Y-57211600D01*
X82091893Y-57226282D01*
X82038710Y-57232272D01*
X82014684Y-57233154D01*
X81955987Y-57231723D01*
X81865819Y-57225722D01*
X81754692Y-57216015D01*
X81633116Y-57203466D01*
X81580767Y-57197474D01*
X81466120Y-57184043D01*
X81365441Y-57172453D01*
X81286638Y-57163597D01*
X81237618Y-57158371D01*
X81226225Y-57157368D01*
X81207218Y-57137712D01*
X81199767Y-57092257D01*
X81202647Y-57051078D01*
X81219517Y-57035387D01*
X81262721Y-57036904D01*
X57526662Y-68977206D02*
X57578606Y-69003432D01*
X57578606Y-69003432D02*
X57641394Y-69039129D01*
X57641394Y-69039129D02*
X57704139Y-69077739D01*
X57704139Y-69077739D02*
X57755954Y-69112707D01*
X57755954Y-69112707D02*
X57785952Y-69137474D01*
X57785952Y-69137474D02*
X57789434Y-69143455D01*
X57789434Y-69143455D02*
X57779875Y-69170634D01*
X57779875Y-69170634D02*
X57754858Y-69223075D01*
X57754858Y-69223075D02*
X57721048Y-69287113D01*
X57721048Y-69287113D02*
X57652662Y-69411507D01*
X57652662Y-69411507D02*
X57214481Y-69411507D01*
X57214481Y-69411507D02*
X57255710Y-69342715D01*
X57255710Y-69342715D02*
X57286276Y-69291298D01*
X57286276Y-69291298D02*
X57329756Y-69217643D01*
X57329756Y-69217643D02*
X57377706Y-69136064D01*
X57377706Y-69136064D02*
X57386849Y-69120465D01*
X57386849Y-69120465D02*
X57430110Y-69050363D01*
X57430110Y-69050363D02*
X57467164Y-68997070D01*
X57467164Y-68997070D02*
X57491877Y-68969178D01*
X57491877Y-68969178D02*
X57496450Y-68967007D01*
X57496450Y-68967007D02*
X57526662Y-68977206D01*
X57526662Y-68977206D02*
X57526662Y-68977206D01*
G36*
X57526662Y-68977206D02*
G01*
X57578606Y-69003432D01*
X57641394Y-69039129D01*
X57704139Y-69077739D01*
X57755954Y-69112707D01*
X57785952Y-69137474D01*
X57789434Y-69143455D01*
X57779875Y-69170634D01*
X57754858Y-69223075D01*
X57721048Y-69287113D01*
X57652662Y-69411507D01*
X57214481Y-69411507D01*
X57255710Y-69342715D01*
X57286276Y-69291298D01*
X57329756Y-69217643D01*
X57377706Y-69136064D01*
X57386849Y-69120465D01*
X57430110Y-69050363D01*
X57467164Y-68997070D01*
X57491877Y-68969178D01*
X57496450Y-68967007D01*
X57526662Y-68977206D01*
G37*
X57526662Y-68977206D02*
X57578606Y-69003432D01*
X57641394Y-69039129D01*
X57704139Y-69077739D01*
X57755954Y-69112707D01*
X57785952Y-69137474D01*
X57789434Y-69143455D01*
X57779875Y-69170634D01*
X57754858Y-69223075D01*
X57721048Y-69287113D01*
X57652662Y-69411507D01*
X57214481Y-69411507D01*
X57255710Y-69342715D01*
X57286276Y-69291298D01*
X57329756Y-69217643D01*
X57377706Y-69136064D01*
X57386849Y-69120465D01*
X57430110Y-69050363D01*
X57467164Y-68997070D01*
X57491877Y-68969178D01*
X57496450Y-68967007D01*
X57526662Y-68977206D01*
X56218286Y-68205743D02*
X56231087Y-68215276D01*
X56231087Y-68215276D02*
X56250983Y-68233549D01*
X56250983Y-68233549D02*
X56254751Y-68254019D01*
X56254751Y-68254019D02*
X56239619Y-68286582D01*
X56239619Y-68286582D02*
X56202814Y-68341131D01*
X56202814Y-68341131D02*
X56191240Y-68357478D01*
X56191240Y-68357478D02*
X56094088Y-68492817D01*
X56094088Y-68492817D02*
X56000601Y-68620211D01*
X56000601Y-68620211D02*
X55914111Y-68735358D01*
X55914111Y-68735358D02*
X55837953Y-68833957D01*
X55837953Y-68833957D02*
X55775460Y-68911708D01*
X55775460Y-68911708D02*
X55729965Y-68964308D01*
X55729965Y-68964308D02*
X55704802Y-68987456D01*
X55704802Y-68987456D02*
X55702462Y-68988174D01*
X55702462Y-68988174D02*
X55669272Y-68973457D01*
X55669272Y-68973457D02*
X55652726Y-68957780D01*
X55652726Y-68957780D02*
X55647208Y-68940027D01*
X55647208Y-68940027D02*
X55655212Y-68910790D01*
X55655212Y-68910790D02*
X55679549Y-68865097D01*
X55679549Y-68865097D02*
X55723027Y-68797978D01*
X55723027Y-68797978D02*
X55788454Y-68704459D01*
X55788454Y-68704459D02*
X55823123Y-68656155D01*
X55823123Y-68656155D02*
X55896994Y-68553723D01*
X55896994Y-68553723D02*
X55968357Y-68454752D01*
X55968357Y-68454752D02*
X56030712Y-68368258D01*
X56030712Y-68368258D02*
X56077559Y-68303258D01*
X56077559Y-68303258D02*
X56091158Y-68284382D01*
X56091158Y-68284382D02*
X56135613Y-68224515D01*
X56135613Y-68224515D02*
X56165268Y-68194589D01*
X56165268Y-68194589D02*
X56189650Y-68189900D01*
X56189650Y-68189900D02*
X56218286Y-68205743D01*
X56218286Y-68205743D02*
X56218286Y-68205743D01*
G36*
X56218286Y-68205743D02*
G01*
X56231087Y-68215276D01*
X56250983Y-68233549D01*
X56254751Y-68254019D01*
X56239619Y-68286582D01*
X56202814Y-68341131D01*
X56191240Y-68357478D01*
X56094088Y-68492817D01*
X56000601Y-68620211D01*
X55914111Y-68735358D01*
X55837953Y-68833957D01*
X55775460Y-68911708D01*
X55729965Y-68964308D01*
X55704802Y-68987456D01*
X55702462Y-68988174D01*
X55669272Y-68973457D01*
X55652726Y-68957780D01*
X55647208Y-68940027D01*
X55655212Y-68910790D01*
X55679549Y-68865097D01*
X55723027Y-68797978D01*
X55788454Y-68704459D01*
X55823123Y-68656155D01*
X55896994Y-68553723D01*
X55968357Y-68454752D01*
X56030712Y-68368258D01*
X56077559Y-68303258D01*
X56091158Y-68284382D01*
X56135613Y-68224515D01*
X56165268Y-68194589D01*
X56189650Y-68189900D01*
X56218286Y-68205743D01*
G37*
X56218286Y-68205743D02*
X56231087Y-68215276D01*
X56250983Y-68233549D01*
X56254751Y-68254019D01*
X56239619Y-68286582D01*
X56202814Y-68341131D01*
X56191240Y-68357478D01*
X56094088Y-68492817D01*
X56000601Y-68620211D01*
X55914111Y-68735358D01*
X55837953Y-68833957D01*
X55775460Y-68911708D01*
X55729965Y-68964308D01*
X55704802Y-68987456D01*
X55702462Y-68988174D01*
X55669272Y-68973457D01*
X55652726Y-68957780D01*
X55647208Y-68940027D01*
X55655212Y-68910790D01*
X55679549Y-68865097D01*
X55723027Y-68797978D01*
X55788454Y-68704459D01*
X55823123Y-68656155D01*
X55896994Y-68553723D01*
X55968357Y-68454752D01*
X56030712Y-68368258D01*
X56077559Y-68303258D01*
X56091158Y-68284382D01*
X56135613Y-68224515D01*
X56165268Y-68194589D01*
X56189650Y-68189900D01*
X56218286Y-68205743D01*
X52030478Y-45589778D02*
X52081028Y-45622599D01*
X52081028Y-45622599D02*
X52152611Y-45671814D01*
X52152611Y-45671814D02*
X52239087Y-45732936D01*
X52239087Y-45732936D02*
X52334314Y-45801475D01*
X52334314Y-45801475D02*
X52432151Y-45872944D01*
X52432151Y-45872944D02*
X52526456Y-45942854D01*
X52526456Y-45942854D02*
X52611087Y-46006716D01*
X52611087Y-46006716D02*
X52679904Y-46060042D01*
X52679904Y-46060042D02*
X52726764Y-46098343D01*
X52726764Y-46098343D02*
X52745527Y-46117132D01*
X52745527Y-46117132D02*
X52745629Y-46117590D01*
X52745629Y-46117590D02*
X52735445Y-46150658D01*
X52735445Y-46150658D02*
X52720346Y-46176460D01*
X52720346Y-46176460D02*
X52707291Y-46189567D01*
X52707291Y-46189567D02*
X52688791Y-46191907D01*
X52688791Y-46191907D02*
X52659047Y-46180545D01*
X52659047Y-46180545D02*
X52612262Y-46152544D01*
X52612262Y-46152544D02*
X52542635Y-46104966D01*
X52542635Y-46104966D02*
X52452978Y-46041064D01*
X52452978Y-46041064D02*
X52351537Y-45967839D01*
X52351537Y-45967839D02*
X52249553Y-45893615D01*
X52249553Y-45893615D02*
X52158381Y-45826691D01*
X52158381Y-45826691D02*
X52089376Y-45775368D01*
X52089376Y-45775368D02*
X52085017Y-45772082D01*
X52085017Y-45772082D02*
X52023174Y-45725423D01*
X52023174Y-45725423D02*
X51975908Y-45689821D01*
X51975908Y-45689821D02*
X51952080Y-45671951D01*
X51952080Y-45671951D02*
X51951010Y-45671165D01*
X51951010Y-45671165D02*
X51953148Y-45651095D01*
X51953148Y-45651095D02*
X51971092Y-45616766D01*
X51971092Y-45616766D02*
X51993759Y-45586617D01*
X51993759Y-45586617D02*
X52007104Y-45577840D01*
X52007104Y-45577840D02*
X52030478Y-45589778D01*
X52030478Y-45589778D02*
X52030478Y-45589778D01*
G36*
X52030478Y-45589778D02*
G01*
X52081028Y-45622599D01*
X52152611Y-45671814D01*
X52239087Y-45732936D01*
X52334314Y-45801475D01*
X52432151Y-45872944D01*
X52526456Y-45942854D01*
X52611087Y-46006716D01*
X52679904Y-46060042D01*
X52726764Y-46098343D01*
X52745527Y-46117132D01*
X52745629Y-46117590D01*
X52735445Y-46150658D01*
X52720346Y-46176460D01*
X52707291Y-46189567D01*
X52688791Y-46191907D01*
X52659047Y-46180545D01*
X52612262Y-46152544D01*
X52542635Y-46104966D01*
X52452978Y-46041064D01*
X52351537Y-45967839D01*
X52249553Y-45893615D01*
X52158381Y-45826691D01*
X52089376Y-45775368D01*
X52085017Y-45772082D01*
X52023174Y-45725423D01*
X51975908Y-45689821D01*
X51952080Y-45671951D01*
X51951010Y-45671165D01*
X51953148Y-45651095D01*
X51971092Y-45616766D01*
X51993759Y-45586617D01*
X52007104Y-45577840D01*
X52030478Y-45589778D01*
G37*
X52030478Y-45589778D02*
X52081028Y-45622599D01*
X52152611Y-45671814D01*
X52239087Y-45732936D01*
X52334314Y-45801475D01*
X52432151Y-45872944D01*
X52526456Y-45942854D01*
X52611087Y-46006716D01*
X52679904Y-46060042D01*
X52726764Y-46098343D01*
X52745527Y-46117132D01*
X52745629Y-46117590D01*
X52735445Y-46150658D01*
X52720346Y-46176460D01*
X52707291Y-46189567D01*
X52688791Y-46191907D01*
X52659047Y-46180545D01*
X52612262Y-46152544D01*
X52542635Y-46104966D01*
X52452978Y-46041064D01*
X52351537Y-45967839D01*
X52249553Y-45893615D01*
X52158381Y-45826691D01*
X52089376Y-45775368D01*
X52085017Y-45772082D01*
X52023174Y-45725423D01*
X51975908Y-45689821D01*
X51952080Y-45671951D01*
X51951010Y-45671165D01*
X51953148Y-45651095D01*
X51971092Y-45616766D01*
X51993759Y-45586617D01*
X52007104Y-45577840D01*
X52030478Y-45589778D01*
X54935097Y-67161415D02*
X54953430Y-67178821D01*
X54953430Y-67178821D02*
X54967695Y-67208744D01*
X54967695Y-67208744D02*
X54952611Y-67242306D01*
X54952611Y-67242306D02*
X54940146Y-67257714D01*
X54940146Y-67257714D02*
X54901821Y-67301601D01*
X54901821Y-67301601D02*
X54845353Y-67365057D01*
X54845353Y-67365057D02*
X54775813Y-67442508D01*
X54775813Y-67442508D02*
X54698269Y-67528380D01*
X54698269Y-67528380D02*
X54617792Y-67617098D01*
X54617792Y-67617098D02*
X54539449Y-67703088D01*
X54539449Y-67703088D02*
X54468311Y-67780775D01*
X54468311Y-67780775D02*
X54409447Y-67844584D01*
X54409447Y-67844584D02*
X54367925Y-67888943D01*
X54367925Y-67888943D02*
X54348816Y-67908275D01*
X54348816Y-67908275D02*
X54348178Y-67908674D01*
X54348178Y-67908674D02*
X54332730Y-67893512D01*
X54332730Y-67893512D02*
X54309579Y-67862861D01*
X54309579Y-67862861D02*
X54298774Y-67848357D01*
X54298774Y-67848357D02*
X54291716Y-67835662D01*
X54291716Y-67835662D02*
X54291300Y-67820826D01*
X54291300Y-67820826D02*
X54300420Y-67799903D01*
X54300420Y-67799903D02*
X54321972Y-67768943D01*
X54321972Y-67768943D02*
X54358850Y-67723999D01*
X54358850Y-67723999D02*
X54413948Y-67661123D01*
X54413948Y-67661123D02*
X54490161Y-67576367D01*
X54490161Y-67576367D02*
X54590385Y-67465781D01*
X54590385Y-67465781D02*
X54644348Y-67406254D01*
X54644348Y-67406254D02*
X54724179Y-67319651D01*
X54724179Y-67319651D02*
X54795311Y-67245310D01*
X54795311Y-67245310D02*
X54852503Y-67188487D01*
X54852503Y-67188487D02*
X54890516Y-67154436D01*
X54890516Y-67154436D02*
X54902883Y-67146963D01*
X54902883Y-67146963D02*
X54935097Y-67161415D01*
X54935097Y-67161415D02*
X54935097Y-67161415D01*
G36*
X54935097Y-67161415D02*
G01*
X54953430Y-67178821D01*
X54967695Y-67208744D01*
X54952611Y-67242306D01*
X54940146Y-67257714D01*
X54901821Y-67301601D01*
X54845353Y-67365057D01*
X54775813Y-67442508D01*
X54698269Y-67528380D01*
X54617792Y-67617098D01*
X54539449Y-67703088D01*
X54468311Y-67780775D01*
X54409447Y-67844584D01*
X54367925Y-67888943D01*
X54348816Y-67908275D01*
X54348178Y-67908674D01*
X54332730Y-67893512D01*
X54309579Y-67862861D01*
X54298774Y-67848357D01*
X54291716Y-67835662D01*
X54291300Y-67820826D01*
X54300420Y-67799903D01*
X54321972Y-67768943D01*
X54358850Y-67723999D01*
X54413948Y-67661123D01*
X54490161Y-67576367D01*
X54590385Y-67465781D01*
X54644348Y-67406254D01*
X54724179Y-67319651D01*
X54795311Y-67245310D01*
X54852503Y-67188487D01*
X54890516Y-67154436D01*
X54902883Y-67146963D01*
X54935097Y-67161415D01*
G37*
X54935097Y-67161415D02*
X54953430Y-67178821D01*
X54967695Y-67208744D01*
X54952611Y-67242306D01*
X54940146Y-67257714D01*
X54901821Y-67301601D01*
X54845353Y-67365057D01*
X54775813Y-67442508D01*
X54698269Y-67528380D01*
X54617792Y-67617098D01*
X54539449Y-67703088D01*
X54468311Y-67780775D01*
X54409447Y-67844584D01*
X54367925Y-67888943D01*
X54348816Y-67908275D01*
X54348178Y-67908674D01*
X54332730Y-67893512D01*
X54309579Y-67862861D01*
X54298774Y-67848357D01*
X54291716Y-67835662D01*
X54291300Y-67820826D01*
X54300420Y-67799903D01*
X54321972Y-67768943D01*
X54358850Y-67723999D01*
X54413948Y-67661123D01*
X54490161Y-67576367D01*
X54590385Y-67465781D01*
X54644348Y-67406254D01*
X54724179Y-67319651D01*
X54795311Y-67245310D01*
X54852503Y-67188487D01*
X54890516Y-67154436D01*
X54902883Y-67146963D01*
X54935097Y-67161415D01*
X76665840Y-43005643D02*
X76678035Y-43016116D01*
X76678035Y-43016116D02*
X76704539Y-43048689D01*
X76704539Y-43048689D02*
X76700102Y-43078197D01*
X76700102Y-43078197D02*
X76685473Y-43100926D01*
X76685473Y-43100926D02*
X76656715Y-43137331D01*
X76656715Y-43137331D02*
X76607369Y-43195018D01*
X76607369Y-43195018D02*
X76542701Y-43268259D01*
X76542701Y-43268259D02*
X76467976Y-43351329D01*
X76467976Y-43351329D02*
X76388462Y-43438499D01*
X76388462Y-43438499D02*
X76309423Y-43524042D01*
X76309423Y-43524042D02*
X76236126Y-43602231D01*
X76236126Y-43602231D02*
X76173836Y-43667339D01*
X76173836Y-43667339D02*
X76127820Y-43713639D01*
X76127820Y-43713639D02*
X76103343Y-43735403D01*
X76103343Y-43735403D02*
X76101232Y-43736340D01*
X76101232Y-43736340D02*
X76075166Y-43722138D01*
X76075166Y-43722138D02*
X76051343Y-43699299D01*
X76051343Y-43699299D02*
X76042471Y-43685100D01*
X76042471Y-43685100D02*
X76042239Y-43667242D01*
X76042239Y-43667242D02*
X76053756Y-43641466D01*
X76053756Y-43641466D02*
X76080133Y-43603516D01*
X76080133Y-43603516D02*
X76124479Y-43549133D01*
X76124479Y-43549133D02*
X76189904Y-43474059D01*
X76189904Y-43474059D02*
X76279519Y-43374035D01*
X76279519Y-43374035D02*
X76328520Y-43319801D01*
X76328520Y-43319801D02*
X76429956Y-43207947D01*
X76429956Y-43207947D02*
X76507052Y-43124144D01*
X76507052Y-43124144D02*
X76563761Y-43064957D01*
X76563761Y-43064957D02*
X76604040Y-43026950D01*
X76604040Y-43026950D02*
X76631843Y-43006686D01*
X76631843Y-43006686D02*
X76651125Y-43000729D01*
X76651125Y-43000729D02*
X76665840Y-43005643D01*
X76665840Y-43005643D02*
X76665840Y-43005643D01*
G36*
X76665840Y-43005643D02*
G01*
X76678035Y-43016116D01*
X76704539Y-43048689D01*
X76700102Y-43078197D01*
X76685473Y-43100926D01*
X76656715Y-43137331D01*
X76607369Y-43195018D01*
X76542701Y-43268259D01*
X76467976Y-43351329D01*
X76388462Y-43438499D01*
X76309423Y-43524042D01*
X76236126Y-43602231D01*
X76173836Y-43667339D01*
X76127820Y-43713639D01*
X76103343Y-43735403D01*
X76101232Y-43736340D01*
X76075166Y-43722138D01*
X76051343Y-43699299D01*
X76042471Y-43685100D01*
X76042239Y-43667242D01*
X76053756Y-43641466D01*
X76080133Y-43603516D01*
X76124479Y-43549133D01*
X76189904Y-43474059D01*
X76279519Y-43374035D01*
X76328520Y-43319801D01*
X76429956Y-43207947D01*
X76507052Y-43124144D01*
X76563761Y-43064957D01*
X76604040Y-43026950D01*
X76631843Y-43006686D01*
X76651125Y-43000729D01*
X76665840Y-43005643D01*
G37*
X76665840Y-43005643D02*
X76678035Y-43016116D01*
X76704539Y-43048689D01*
X76700102Y-43078197D01*
X76685473Y-43100926D01*
X76656715Y-43137331D01*
X76607369Y-43195018D01*
X76542701Y-43268259D01*
X76467976Y-43351329D01*
X76388462Y-43438499D01*
X76309423Y-43524042D01*
X76236126Y-43602231D01*
X76173836Y-43667339D01*
X76127820Y-43713639D01*
X76103343Y-43735403D01*
X76101232Y-43736340D01*
X76075166Y-43722138D01*
X76051343Y-43699299D01*
X76042471Y-43685100D01*
X76042239Y-43667242D01*
X76053756Y-43641466D01*
X76080133Y-43603516D01*
X76124479Y-43549133D01*
X76189904Y-43474059D01*
X76279519Y-43374035D01*
X76328520Y-43319801D01*
X76429956Y-43207947D01*
X76507052Y-43124144D01*
X76563761Y-43064957D01*
X76604040Y-43026950D01*
X76631843Y-43006686D01*
X76651125Y-43000729D01*
X76665840Y-43005643D01*
X51057953Y-61822960D02*
X51076270Y-61849770D01*
X51076270Y-61849770D02*
X51085915Y-61876868D01*
X51085915Y-61876868D02*
X51089715Y-61890048D01*
X51089715Y-61890048D02*
X51090597Y-61901301D01*
X51090597Y-61901301D02*
X51084459Y-61912839D01*
X51084459Y-61912839D02*
X51067196Y-61926874D01*
X51067196Y-61926874D02*
X51034706Y-61945617D01*
X51034706Y-61945617D02*
X50982886Y-61971281D01*
X50982886Y-61971281D02*
X50907631Y-62006077D01*
X50907631Y-62006077D02*
X50804840Y-62052216D01*
X50804840Y-62052216D02*
X50670408Y-62111912D01*
X50670408Y-62111912D02*
X50554784Y-62163171D01*
X50554784Y-62163171D02*
X50252218Y-62297368D01*
X50252218Y-62297368D02*
X50228554Y-62245431D01*
X50228554Y-62245431D02*
X50214495Y-62203761D01*
X50214495Y-62203761D02*
X50215271Y-62183114D01*
X50215271Y-62183114D02*
X50240359Y-62168634D01*
X50240359Y-62168634D02*
X50296568Y-62141601D01*
X50296568Y-62141601D02*
X50376958Y-62104981D01*
X50376958Y-62104981D02*
X50474587Y-62061741D01*
X50474587Y-62061741D02*
X50582515Y-62014846D01*
X50582515Y-62014846D02*
X50693802Y-61967264D01*
X50693802Y-61967264D02*
X50801506Y-61921960D01*
X50801506Y-61921960D02*
X50898688Y-61881901D01*
X50898688Y-61881901D02*
X50978406Y-61850053D01*
X50978406Y-61850053D02*
X51033721Y-61829382D01*
X51033721Y-61829382D02*
X51057691Y-61822855D01*
X51057691Y-61822855D02*
X51057953Y-61822960D01*
X51057953Y-61822960D02*
X51057953Y-61822960D01*
G36*
X51057953Y-61822960D02*
G01*
X51076270Y-61849770D01*
X51085915Y-61876868D01*
X51089715Y-61890048D01*
X51090597Y-61901301D01*
X51084459Y-61912839D01*
X51067196Y-61926874D01*
X51034706Y-61945617D01*
X50982886Y-61971281D01*
X50907631Y-62006077D01*
X50804840Y-62052216D01*
X50670408Y-62111912D01*
X50554784Y-62163171D01*
X50252218Y-62297368D01*
X50228554Y-62245431D01*
X50214495Y-62203761D01*
X50215271Y-62183114D01*
X50240359Y-62168634D01*
X50296568Y-62141601D01*
X50376958Y-62104981D01*
X50474587Y-62061741D01*
X50582515Y-62014846D01*
X50693802Y-61967264D01*
X50801506Y-61921960D01*
X50898688Y-61881901D01*
X50978406Y-61850053D01*
X51033721Y-61829382D01*
X51057691Y-61822855D01*
X51057953Y-61822960D01*
G37*
X51057953Y-61822960D02*
X51076270Y-61849770D01*
X51085915Y-61876868D01*
X51089715Y-61890048D01*
X51090597Y-61901301D01*
X51084459Y-61912839D01*
X51067196Y-61926874D01*
X51034706Y-61945617D01*
X50982886Y-61971281D01*
X50907631Y-62006077D01*
X50804840Y-62052216D01*
X50670408Y-62111912D01*
X50554784Y-62163171D01*
X50252218Y-62297368D01*
X50228554Y-62245431D01*
X50214495Y-62203761D01*
X50215271Y-62183114D01*
X50240359Y-62168634D01*
X50296568Y-62141601D01*
X50376958Y-62104981D01*
X50474587Y-62061741D01*
X50582515Y-62014846D01*
X50693802Y-61967264D01*
X50801506Y-61921960D01*
X50898688Y-61881901D01*
X50978406Y-61850053D01*
X51033721Y-61829382D01*
X51057691Y-61822855D01*
X51057953Y-61822960D01*
X49243823Y-51933161D02*
X49313635Y-51942908D01*
X49313635Y-51942908D02*
X49411912Y-51961098D01*
X49411912Y-51961098D02*
X49543997Y-51988070D01*
X49543997Y-51988070D02*
X49608065Y-52001516D01*
X49608065Y-52001516D02*
X49757350Y-52032899D01*
X49757350Y-52032899D02*
X49870251Y-52056912D01*
X49870251Y-52056912D02*
X49951734Y-52075257D01*
X49951734Y-52075257D02*
X50006764Y-52089638D01*
X50006764Y-52089638D02*
X50040307Y-52101757D01*
X50040307Y-52101757D02*
X50057329Y-52113318D01*
X50057329Y-52113318D02*
X50062795Y-52126023D01*
X50062795Y-52126023D02*
X50061670Y-52141577D01*
X50061670Y-52141577D02*
X50059465Y-52156334D01*
X50059465Y-52156334D02*
X50047340Y-52198677D01*
X50047340Y-52198677D02*
X50031850Y-52215270D01*
X50031850Y-52215270D02*
X50005681Y-52212365D01*
X50005681Y-52212365D02*
X49944646Y-52201425D01*
X49944646Y-52201425D02*
X49855172Y-52183732D01*
X49855172Y-52183732D02*
X49743688Y-52160569D01*
X49743688Y-52160569D02*
X49616622Y-52133219D01*
X49616622Y-52133219D02*
X49576767Y-52124465D01*
X49576767Y-52124465D02*
X49447290Y-52095670D01*
X49447290Y-52095670D02*
X49332528Y-52069721D01*
X49332528Y-52069721D02*
X49238657Y-52048050D01*
X49238657Y-52048050D02*
X49171859Y-52032089D01*
X49171859Y-52032089D02*
X49138313Y-52023270D01*
X49138313Y-52023270D02*
X49135626Y-52022206D01*
X49135626Y-52022206D02*
X49135403Y-51999608D01*
X49135403Y-51999608D02*
X49142344Y-51971769D01*
X49142344Y-51971769D02*
X49151735Y-51951160D01*
X49151735Y-51951160D02*
X49168217Y-51937628D01*
X49168217Y-51937628D02*
X49197131Y-51931515D01*
X49197131Y-51931515D02*
X49243823Y-51933161D01*
X49243823Y-51933161D02*
X49243823Y-51933161D01*
G36*
X49243823Y-51933161D02*
G01*
X49313635Y-51942908D01*
X49411912Y-51961098D01*
X49543997Y-51988070D01*
X49608065Y-52001516D01*
X49757350Y-52032899D01*
X49870251Y-52056912D01*
X49951734Y-52075257D01*
X50006764Y-52089638D01*
X50040307Y-52101757D01*
X50057329Y-52113318D01*
X50062795Y-52126023D01*
X50061670Y-52141577D01*
X50059465Y-52156334D01*
X50047340Y-52198677D01*
X50031850Y-52215270D01*
X50005681Y-52212365D01*
X49944646Y-52201425D01*
X49855172Y-52183732D01*
X49743688Y-52160569D01*
X49616622Y-52133219D01*
X49576767Y-52124465D01*
X49447290Y-52095670D01*
X49332528Y-52069721D01*
X49238657Y-52048050D01*
X49171859Y-52032089D01*
X49138313Y-52023270D01*
X49135626Y-52022206D01*
X49135403Y-51999608D01*
X49142344Y-51971769D01*
X49151735Y-51951160D01*
X49168217Y-51937628D01*
X49197131Y-51931515D01*
X49243823Y-51933161D01*
G37*
X49243823Y-51933161D02*
X49313635Y-51942908D01*
X49411912Y-51961098D01*
X49543997Y-51988070D01*
X49608065Y-52001516D01*
X49757350Y-52032899D01*
X49870251Y-52056912D01*
X49951734Y-52075257D01*
X50006764Y-52089638D01*
X50040307Y-52101757D01*
X50057329Y-52113318D01*
X50062795Y-52126023D01*
X50061670Y-52141577D01*
X50059465Y-52156334D01*
X50047340Y-52198677D01*
X50031850Y-52215270D01*
X50005681Y-52212365D01*
X49944646Y-52201425D01*
X49855172Y-52183732D01*
X49743688Y-52160569D01*
X49616622Y-52133219D01*
X49576767Y-52124465D01*
X49447290Y-52095670D01*
X49332528Y-52069721D01*
X49238657Y-52048050D01*
X49171859Y-52032089D01*
X49138313Y-52023270D01*
X49135626Y-52022206D01*
X49135403Y-51999608D01*
X49142344Y-51971769D01*
X49151735Y-51951160D01*
X49168217Y-51937628D01*
X49197131Y-51931515D01*
X49243823Y-51933161D01*
X82100041Y-53646804D02*
X82120616Y-53654704D01*
X82120616Y-53654704D02*
X82128531Y-53668139D01*
X82128531Y-53668139D02*
X82128689Y-53687267D01*
X82128689Y-53687267D02*
X82127214Y-53700549D01*
X82127214Y-53700549D02*
X82120517Y-53758757D01*
X82120517Y-53758757D02*
X81781850Y-53794032D01*
X81781850Y-53794032D02*
X81655507Y-53807237D01*
X81655507Y-53807237D02*
X81533710Y-53820050D01*
X81533710Y-53820050D02*
X81427286Y-53831326D01*
X81427286Y-53831326D02*
X81347058Y-53839920D01*
X81347058Y-53839920D02*
X81321475Y-53842708D01*
X81321475Y-53842708D02*
X81199767Y-53856109D01*
X81199767Y-53856109D02*
X81199767Y-53791558D01*
X81199767Y-53791558D02*
X81208150Y-53742667D01*
X81208150Y-53742667D02*
X81228165Y-53727007D01*
X81228165Y-53727007D02*
X81257558Y-53724755D01*
X81257558Y-53724755D02*
X81321705Y-53718502D01*
X81321705Y-53718502D02*
X81413294Y-53709006D01*
X81413294Y-53709006D02*
X81525014Y-53697023D01*
X81525014Y-53697023D02*
X81635623Y-53684859D01*
X81635623Y-53684859D02*
X81793058Y-53667429D01*
X81793058Y-53667429D02*
X81913313Y-53654752D01*
X81913313Y-53654752D02*
X82001293Y-53646985D01*
X82001293Y-53646985D02*
X82061901Y-53644283D01*
X82061901Y-53644283D02*
X82100041Y-53646804D01*
X82100041Y-53646804D02*
X82100041Y-53646804D01*
G36*
X82100041Y-53646804D02*
G01*
X82120616Y-53654704D01*
X82128531Y-53668139D01*
X82128689Y-53687267D01*
X82127214Y-53700549D01*
X82120517Y-53758757D01*
X81781850Y-53794032D01*
X81655507Y-53807237D01*
X81533710Y-53820050D01*
X81427286Y-53831326D01*
X81347058Y-53839920D01*
X81321475Y-53842708D01*
X81199767Y-53856109D01*
X81199767Y-53791558D01*
X81208150Y-53742667D01*
X81228165Y-53727007D01*
X81257558Y-53724755D01*
X81321705Y-53718502D01*
X81413294Y-53709006D01*
X81525014Y-53697023D01*
X81635623Y-53684859D01*
X81793058Y-53667429D01*
X81913313Y-53654752D01*
X82001293Y-53646985D01*
X82061901Y-53644283D01*
X82100041Y-53646804D01*
G37*
X82100041Y-53646804D02*
X82120616Y-53654704D01*
X82128531Y-53668139D01*
X82128689Y-53687267D01*
X82127214Y-53700549D01*
X82120517Y-53758757D01*
X81781850Y-53794032D01*
X81655507Y-53807237D01*
X81533710Y-53820050D01*
X81427286Y-53831326D01*
X81347058Y-53839920D01*
X81321475Y-53842708D01*
X81199767Y-53856109D01*
X81199767Y-53791558D01*
X81208150Y-53742667D01*
X81228165Y-53727007D01*
X81257558Y-53724755D01*
X81321705Y-53718502D01*
X81413294Y-53709006D01*
X81525014Y-53697023D01*
X81635623Y-53684859D01*
X81793058Y-53667429D01*
X81913313Y-53654752D01*
X82001293Y-53646985D01*
X82061901Y-53644283D01*
X82100041Y-53646804D01*
X49043034Y-53649780D02*
X49144578Y-53659722D01*
X49144578Y-53659722D02*
X49280550Y-53674504D01*
X49280550Y-53674504D02*
X49373744Y-53684859D01*
X49373744Y-53684859D02*
X49497367Y-53698427D01*
X49497367Y-53698427D02*
X49607497Y-53710181D01*
X49607497Y-53710181D02*
X49696786Y-53719362D01*
X49696786Y-53719362D02*
X49757890Y-53725213D01*
X49757890Y-53725213D02*
X49782608Y-53727007D01*
X49782608Y-53727007D02*
X49804405Y-53744450D01*
X49804405Y-53744450D02*
X49805714Y-53785215D01*
X49805714Y-53785215D02*
X49801774Y-53809078D01*
X49801774Y-53809078D02*
X49792820Y-53826679D01*
X49792820Y-53826679D02*
X49773819Y-53838206D01*
X49773819Y-53838206D02*
X49739733Y-53843845D01*
X49739733Y-53843845D02*
X49685527Y-53843786D01*
X49685527Y-53843786D02*
X49606166Y-53838215D01*
X49606166Y-53838215D02*
X49496612Y-53827321D01*
X49496612Y-53827321D02*
X49351831Y-53811291D01*
X49351831Y-53811291D02*
X49291017Y-53804402D01*
X49291017Y-53804402D02*
X48888850Y-53758757D01*
X48888850Y-53758757D02*
X48882153Y-53700549D01*
X48882153Y-53700549D02*
X48880106Y-53678159D01*
X48880106Y-53678159D02*
X48883065Y-53661550D01*
X48883065Y-53661550D02*
X48895934Y-53650564D01*
X48895934Y-53650564D02*
X48923616Y-53645045D01*
X48923616Y-53645045D02*
X48971015Y-53644835D01*
X48971015Y-53644835D02*
X49043034Y-53649780D01*
X49043034Y-53649780D02*
X49043034Y-53649780D01*
G36*
X49043034Y-53649780D02*
G01*
X49144578Y-53659722D01*
X49280550Y-53674504D01*
X49373744Y-53684859D01*
X49497367Y-53698427D01*
X49607497Y-53710181D01*
X49696786Y-53719362D01*
X49757890Y-53725213D01*
X49782608Y-53727007D01*
X49804405Y-53744450D01*
X49805714Y-53785215D01*
X49801774Y-53809078D01*
X49792820Y-53826679D01*
X49773819Y-53838206D01*
X49739733Y-53843845D01*
X49685527Y-53843786D01*
X49606166Y-53838215D01*
X49496612Y-53827321D01*
X49351831Y-53811291D01*
X49291017Y-53804402D01*
X48888850Y-53758757D01*
X48882153Y-53700549D01*
X48880106Y-53678159D01*
X48883065Y-53661550D01*
X48895934Y-53650564D01*
X48923616Y-53645045D01*
X48971015Y-53644835D01*
X49043034Y-53649780D01*
G37*
X49043034Y-53649780D02*
X49144578Y-53659722D01*
X49280550Y-53674504D01*
X49373744Y-53684859D01*
X49497367Y-53698427D01*
X49607497Y-53710181D01*
X49696786Y-53719362D01*
X49757890Y-53725213D01*
X49782608Y-53727007D01*
X49804405Y-53744450D01*
X49805714Y-53785215D01*
X49801774Y-53809078D01*
X49792820Y-53826679D01*
X49773819Y-53838206D01*
X49739733Y-53843845D01*
X49685527Y-53843786D01*
X49606166Y-53838215D01*
X49496612Y-53827321D01*
X49351831Y-53811291D01*
X49291017Y-53804402D01*
X48888850Y-53758757D01*
X48882153Y-53700549D01*
X48880106Y-53678159D01*
X48883065Y-53661550D01*
X48895934Y-53650564D01*
X48923616Y-53645045D01*
X48971015Y-53644835D01*
X49043034Y-53649780D01*
X80567600Y-60288517D02*
X80624433Y-60300486D01*
X80624433Y-60300486D02*
X80708649Y-60323362D01*
X80708649Y-60323362D02*
X80824535Y-60358195D01*
X80824535Y-60358195D02*
X80965197Y-60402469D01*
X80965197Y-60402469D02*
X81092652Y-60443446D01*
X81092652Y-60443446D02*
X81206039Y-60480529D01*
X81206039Y-60480529D02*
X81299293Y-60511683D01*
X81299293Y-60511683D02*
X81366352Y-60534873D01*
X81366352Y-60534873D02*
X81401152Y-60548064D01*
X81401152Y-60548064D02*
X81404554Y-60549905D01*
X81404554Y-60549905D02*
X81411259Y-60581134D01*
X81411259Y-60581134D02*
X81392675Y-60617831D01*
X81392675Y-60617831D02*
X81359645Y-60643404D01*
X81359645Y-60643404D02*
X81341215Y-60646838D01*
X81341215Y-60646838D02*
X81307361Y-60639730D01*
X81307361Y-60639730D02*
X81240544Y-60620929D01*
X81240544Y-60620929D02*
X81147807Y-60592591D01*
X81147807Y-60592591D02*
X81036189Y-60556872D01*
X81036189Y-60556872D02*
X80912732Y-60515927D01*
X80912732Y-60515927D02*
X80903434Y-60512788D01*
X80903434Y-60512788D02*
X80760985Y-60463853D01*
X80760985Y-60463853D02*
X80654736Y-60424940D01*
X80654736Y-60424940D02*
X80580428Y-60393614D01*
X80580428Y-60393614D02*
X80533803Y-60367443D01*
X80533803Y-60367443D02*
X80510599Y-60343991D01*
X80510599Y-60343991D02*
X80506559Y-60320826D01*
X80506559Y-60320826D02*
X80517423Y-60295514D01*
X80517423Y-60295514D02*
X80518952Y-60293100D01*
X80518952Y-60293100D02*
X80533868Y-60286405D01*
X80533868Y-60286405D02*
X80567600Y-60288517D01*
X80567600Y-60288517D02*
X80567600Y-60288517D01*
G36*
X80567600Y-60288517D02*
G01*
X80624433Y-60300486D01*
X80708649Y-60323362D01*
X80824535Y-60358195D01*
X80965197Y-60402469D01*
X81092652Y-60443446D01*
X81206039Y-60480529D01*
X81299293Y-60511683D01*
X81366352Y-60534873D01*
X81401152Y-60548064D01*
X81404554Y-60549905D01*
X81411259Y-60581134D01*
X81392675Y-60617831D01*
X81359645Y-60643404D01*
X81341215Y-60646838D01*
X81307361Y-60639730D01*
X81240544Y-60620929D01*
X81147807Y-60592591D01*
X81036189Y-60556872D01*
X80912732Y-60515927D01*
X80903434Y-60512788D01*
X80760985Y-60463853D01*
X80654736Y-60424940D01*
X80580428Y-60393614D01*
X80533803Y-60367443D01*
X80510599Y-60343991D01*
X80506559Y-60320826D01*
X80517423Y-60295514D01*
X80518952Y-60293100D01*
X80533868Y-60286405D01*
X80567600Y-60288517D01*
G37*
X80567600Y-60288517D02*
X80624433Y-60300486D01*
X80708649Y-60323362D01*
X80824535Y-60358195D01*
X80965197Y-60402469D01*
X81092652Y-60443446D01*
X81206039Y-60480529D01*
X81299293Y-60511683D01*
X81366352Y-60534873D01*
X81401152Y-60548064D01*
X81404554Y-60549905D01*
X81411259Y-60581134D01*
X81392675Y-60617831D01*
X81359645Y-60643404D01*
X81341215Y-60646838D01*
X81307361Y-60639730D01*
X81240544Y-60620929D01*
X81147807Y-60592591D01*
X81036189Y-60556872D01*
X80912732Y-60515927D01*
X80903434Y-60512788D01*
X80760985Y-60463853D01*
X80654736Y-60424940D01*
X80580428Y-60393614D01*
X80533803Y-60367443D01*
X80510599Y-60343991D01*
X80506559Y-60320826D01*
X80517423Y-60295514D01*
X80518952Y-60293100D01*
X80533868Y-60286405D01*
X80567600Y-60288517D01*
X50291606Y-48612938D02*
X50349953Y-48635621D01*
X50349953Y-48635621D02*
X50432326Y-48669554D01*
X50432326Y-48669554D02*
X50531483Y-48711570D01*
X50531483Y-48711570D02*
X50640183Y-48758501D01*
X50640183Y-48758501D02*
X50751185Y-48807180D01*
X50751185Y-48807180D02*
X50857247Y-48854439D01*
X50857247Y-48854439D02*
X50951129Y-48897112D01*
X50951129Y-48897112D02*
X51025588Y-48932029D01*
X51025588Y-48932029D02*
X51073385Y-48956024D01*
X51073385Y-48956024D02*
X51086853Y-48964381D01*
X51086853Y-48964381D02*
X51090857Y-48992196D01*
X51090857Y-48992196D02*
X51077367Y-49032192D01*
X51077367Y-49032192D02*
X51055322Y-49063512D01*
X51055322Y-49063512D02*
X51041814Y-49069468D01*
X51041814Y-49069468D02*
X51018751Y-49060961D01*
X51018751Y-49060961D02*
X50963042Y-49037705D01*
X50963042Y-49037705D02*
X50880666Y-49002278D01*
X50880666Y-49002278D02*
X50777603Y-48957257D01*
X50777603Y-48957257D02*
X50659831Y-48905221D01*
X50659831Y-48905221D02*
X50627630Y-48890901D01*
X50627630Y-48890901D02*
X50507258Y-48837034D01*
X50507258Y-48837034D02*
X50400439Y-48788726D01*
X50400439Y-48788726D02*
X50313080Y-48748688D01*
X50313080Y-48748688D02*
X50251089Y-48719636D01*
X50251089Y-48719636D02*
X50220373Y-48704281D01*
X50220373Y-48704281D02*
X50218239Y-48702868D01*
X50218239Y-48702868D02*
X50214035Y-48673867D01*
X50214035Y-48673867D02*
X50229242Y-48635204D01*
X50229242Y-48635204D02*
X50253997Y-48607798D01*
X50253997Y-48607798D02*
X50264526Y-48604674D01*
X50264526Y-48604674D02*
X50291606Y-48612938D01*
X50291606Y-48612938D02*
X50291606Y-48612938D01*
G36*
X50291606Y-48612938D02*
G01*
X50349953Y-48635621D01*
X50432326Y-48669554D01*
X50531483Y-48711570D01*
X50640183Y-48758501D01*
X50751185Y-48807180D01*
X50857247Y-48854439D01*
X50951129Y-48897112D01*
X51025588Y-48932029D01*
X51073385Y-48956024D01*
X51086853Y-48964381D01*
X51090857Y-48992196D01*
X51077367Y-49032192D01*
X51055322Y-49063512D01*
X51041814Y-49069468D01*
X51018751Y-49060961D01*
X50963042Y-49037705D01*
X50880666Y-49002278D01*
X50777603Y-48957257D01*
X50659831Y-48905221D01*
X50627630Y-48890901D01*
X50507258Y-48837034D01*
X50400439Y-48788726D01*
X50313080Y-48748688D01*
X50251089Y-48719636D01*
X50220373Y-48704281D01*
X50218239Y-48702868D01*
X50214035Y-48673867D01*
X50229242Y-48635204D01*
X50253997Y-48607798D01*
X50264526Y-48604674D01*
X50291606Y-48612938D01*
G37*
X50291606Y-48612938D02*
X50349953Y-48635621D01*
X50432326Y-48669554D01*
X50531483Y-48711570D01*
X50640183Y-48758501D01*
X50751185Y-48807180D01*
X50857247Y-48854439D01*
X50951129Y-48897112D01*
X51025588Y-48932029D01*
X51073385Y-48956024D01*
X51086853Y-48964381D01*
X51090857Y-48992196D01*
X51077367Y-49032192D01*
X51055322Y-49063512D01*
X51041814Y-49069468D01*
X51018751Y-49060961D01*
X50963042Y-49037705D01*
X50880666Y-49002278D01*
X50777603Y-48957257D01*
X50659831Y-48905221D01*
X50627630Y-48890901D01*
X50507258Y-48837034D01*
X50400439Y-48788726D01*
X50313080Y-48748688D01*
X50251089Y-48719636D01*
X50220373Y-48704281D01*
X50218239Y-48702868D01*
X50214035Y-48673867D01*
X50229242Y-48635204D01*
X50253997Y-48607798D01*
X50264526Y-48604674D01*
X50291606Y-48612938D01*
X77281335Y-65988145D02*
X77310528Y-66004776D01*
X77310528Y-66004776D02*
X77353369Y-66037370D01*
X77353369Y-66037370D02*
X77414221Y-66088942D01*
X77414221Y-66088942D02*
X77497447Y-66162511D01*
X77497447Y-66162511D02*
X77607411Y-66261093D01*
X77607411Y-66261093D02*
X77618570Y-66271117D01*
X77618570Y-66271117D02*
X77731000Y-66372398D01*
X77731000Y-66372398D02*
X77815263Y-66449481D01*
X77815263Y-66449481D02*
X77874830Y-66506294D01*
X77874830Y-66506294D02*
X77913174Y-66546766D01*
X77913174Y-66546766D02*
X77933766Y-66574826D01*
X77933766Y-66574826D02*
X77940080Y-66594400D01*
X77940080Y-66594400D02*
X77935586Y-66609417D01*
X77935586Y-66609417D02*
X77927099Y-66620179D01*
X77927099Y-66620179D02*
X77895427Y-66650209D01*
X77895427Y-66650209D02*
X77878611Y-66659605D01*
X77878611Y-66659605D02*
X77859633Y-66646059D01*
X77859633Y-66646059D02*
X77814379Y-66608510D01*
X77814379Y-66608510D02*
X77747963Y-66551359D01*
X77747963Y-66551359D02*
X77665497Y-66479008D01*
X77665497Y-66479008D02*
X77572096Y-66395858D01*
X77572096Y-66395858D02*
X77569684Y-66393696D01*
X77569684Y-66393696D02*
X77449494Y-66286101D01*
X77449494Y-66286101D02*
X77357313Y-66203383D01*
X77357313Y-66203383D02*
X77289927Y-66141833D01*
X77289927Y-66141833D02*
X77244122Y-66097740D01*
X77244122Y-66097740D02*
X77216684Y-66067393D01*
X77216684Y-66067393D02*
X77204400Y-66047084D01*
X77204400Y-66047084D02*
X77204055Y-66033101D01*
X77204055Y-66033101D02*
X77212436Y-66021734D01*
X77212436Y-66021734D02*
X77226329Y-66009273D01*
X77226329Y-66009273D02*
X77232004Y-66003862D01*
X77232004Y-66003862D02*
X77246436Y-65990705D01*
X77246436Y-65990705D02*
X77261425Y-65984461D01*
X77261425Y-65984461D02*
X77281335Y-65988145D01*
X77281335Y-65988145D02*
X77281335Y-65988145D01*
G36*
X77281335Y-65988145D02*
G01*
X77310528Y-66004776D01*
X77353369Y-66037370D01*
X77414221Y-66088942D01*
X77497447Y-66162511D01*
X77607411Y-66261093D01*
X77618570Y-66271117D01*
X77731000Y-66372398D01*
X77815263Y-66449481D01*
X77874830Y-66506294D01*
X77913174Y-66546766D01*
X77933766Y-66574826D01*
X77940080Y-66594400D01*
X77935586Y-66609417D01*
X77927099Y-66620179D01*
X77895427Y-66650209D01*
X77878611Y-66659605D01*
X77859633Y-66646059D01*
X77814379Y-66608510D01*
X77747963Y-66551359D01*
X77665497Y-66479008D01*
X77572096Y-66395858D01*
X77569684Y-66393696D01*
X77449494Y-66286101D01*
X77357313Y-66203383D01*
X77289927Y-66141833D01*
X77244122Y-66097740D01*
X77216684Y-66067393D01*
X77204400Y-66047084D01*
X77204055Y-66033101D01*
X77212436Y-66021734D01*
X77226329Y-66009273D01*
X77232004Y-66003862D01*
X77246436Y-65990705D01*
X77261425Y-65984461D01*
X77281335Y-65988145D01*
G37*
X77281335Y-65988145D02*
X77310528Y-66004776D01*
X77353369Y-66037370D01*
X77414221Y-66088942D01*
X77497447Y-66162511D01*
X77607411Y-66261093D01*
X77618570Y-66271117D01*
X77731000Y-66372398D01*
X77815263Y-66449481D01*
X77874830Y-66506294D01*
X77913174Y-66546766D01*
X77933766Y-66574826D01*
X77940080Y-66594400D01*
X77935586Y-66609417D01*
X77927099Y-66620179D01*
X77895427Y-66650209D01*
X77878611Y-66659605D01*
X77859633Y-66646059D01*
X77814379Y-66608510D01*
X77747963Y-66551359D01*
X77665497Y-66479008D01*
X77572096Y-66395858D01*
X77569684Y-66393696D01*
X77449494Y-66286101D01*
X77357313Y-66203383D01*
X77289927Y-66141833D01*
X77244122Y-66097740D01*
X77216684Y-66067393D01*
X77204400Y-66047084D01*
X77204055Y-66033101D01*
X77212436Y-66021734D01*
X77226329Y-66009273D01*
X77232004Y-66003862D01*
X77246436Y-65990705D01*
X77261425Y-65984461D01*
X77281335Y-65988145D01*
X53755327Y-65983490D02*
X53769110Y-65994306D01*
X53769110Y-65994306D02*
X53795803Y-66021689D01*
X53795803Y-66021689D02*
X53796140Y-66043697D01*
X53796140Y-66043697D02*
X53768929Y-66077283D01*
X53768929Y-66077283D02*
X53762804Y-66083927D01*
X53762804Y-66083927D02*
X53726687Y-66120061D01*
X53726687Y-66120061D02*
X53668711Y-66174672D01*
X53668711Y-66174672D02*
X53594677Y-66242616D01*
X53594677Y-66242616D02*
X53510388Y-66318750D01*
X53510388Y-66318750D02*
X53421647Y-66397931D01*
X53421647Y-66397931D02*
X53334254Y-66475016D01*
X53334254Y-66475016D02*
X53254013Y-66544860D01*
X53254013Y-66544860D02*
X53186726Y-66602322D01*
X53186726Y-66602322D02*
X53138195Y-66642257D01*
X53138195Y-66642257D02*
X53114221Y-66659523D01*
X53114221Y-66659523D02*
X53113104Y-66659840D01*
X53113104Y-66659840D02*
X53087901Y-66645755D01*
X53087901Y-66645755D02*
X53063904Y-66622799D01*
X53063904Y-66622799D02*
X53055050Y-66609002D01*
X53055050Y-66609002D02*
X53055205Y-66592374D01*
X53055205Y-66592374D02*
X53067822Y-66569062D01*
X53067822Y-66569062D02*
X53096353Y-66535216D01*
X53096353Y-66535216D02*
X53144251Y-66486983D01*
X53144251Y-66486983D02*
X53214969Y-66420513D01*
X53214969Y-66420513D02*
X53311960Y-66331954D01*
X53311960Y-66331954D02*
X53379138Y-66271187D01*
X53379138Y-66271187D02*
X53492380Y-66169149D01*
X53492380Y-66169149D02*
X53578604Y-66092524D01*
X53578604Y-66092524D02*
X53642122Y-66038252D01*
X53642122Y-66038252D02*
X53687243Y-66003273D01*
X53687243Y-66003273D02*
X53718277Y-65984526D01*
X53718277Y-65984526D02*
X53739535Y-65978952D01*
X53739535Y-65978952D02*
X53755327Y-65983490D01*
X53755327Y-65983490D02*
X53755327Y-65983490D01*
G36*
X53755327Y-65983490D02*
G01*
X53769110Y-65994306D01*
X53795803Y-66021689D01*
X53796140Y-66043697D01*
X53768929Y-66077283D01*
X53762804Y-66083927D01*
X53726687Y-66120061D01*
X53668711Y-66174672D01*
X53594677Y-66242616D01*
X53510388Y-66318750D01*
X53421647Y-66397931D01*
X53334254Y-66475016D01*
X53254013Y-66544860D01*
X53186726Y-66602322D01*
X53138195Y-66642257D01*
X53114221Y-66659523D01*
X53113104Y-66659840D01*
X53087901Y-66645755D01*
X53063904Y-66622799D01*
X53055050Y-66609002D01*
X53055205Y-66592374D01*
X53067822Y-66569062D01*
X53096353Y-66535216D01*
X53144251Y-66486983D01*
X53214969Y-66420513D01*
X53311960Y-66331954D01*
X53379138Y-66271187D01*
X53492380Y-66169149D01*
X53578604Y-66092524D01*
X53642122Y-66038252D01*
X53687243Y-66003273D01*
X53718277Y-65984526D01*
X53739535Y-65978952D01*
X53755327Y-65983490D01*
G37*
X53755327Y-65983490D02*
X53769110Y-65994306D01*
X53795803Y-66021689D01*
X53796140Y-66043697D01*
X53768929Y-66077283D01*
X53762804Y-66083927D01*
X53726687Y-66120061D01*
X53668711Y-66174672D01*
X53594677Y-66242616D01*
X53510388Y-66318750D01*
X53421647Y-66397931D01*
X53334254Y-66475016D01*
X53254013Y-66544860D01*
X53186726Y-66602322D01*
X53138195Y-66642257D01*
X53114221Y-66659523D01*
X53113104Y-66659840D01*
X53087901Y-66645755D01*
X53063904Y-66622799D01*
X53055050Y-66609002D01*
X53055205Y-66592374D01*
X53067822Y-66569062D01*
X53096353Y-66535216D01*
X53144251Y-66486983D01*
X53214969Y-66420513D01*
X53311960Y-66331954D01*
X53379138Y-66271187D01*
X53492380Y-66169149D01*
X53578604Y-66092524D01*
X53642122Y-66038252D01*
X53687243Y-66003273D01*
X53718277Y-65984526D01*
X53739535Y-65978952D01*
X53755327Y-65983490D01*
X80134403Y-46821879D02*
X80165745Y-46864237D01*
X80165745Y-46864237D02*
X80204508Y-46922448D01*
X80204508Y-46922448D02*
X80244371Y-46986376D01*
X80244371Y-46986376D02*
X80279013Y-47045885D01*
X80279013Y-47045885D02*
X80302114Y-47090842D01*
X80302114Y-47090842D02*
X80307383Y-47111086D01*
X80307383Y-47111086D02*
X80285011Y-47125026D01*
X80285011Y-47125026D02*
X80231501Y-47156507D01*
X80231501Y-47156507D02*
X80152580Y-47202267D01*
X80152580Y-47202267D02*
X80053977Y-47259040D01*
X80053977Y-47259040D02*
X79941420Y-47323562D01*
X79941420Y-47323562D02*
X79820639Y-47392568D01*
X79820639Y-47392568D02*
X79697361Y-47462796D01*
X79697361Y-47462796D02*
X79577315Y-47530980D01*
X79577315Y-47530980D02*
X79466229Y-47593857D01*
X79466229Y-47593857D02*
X79369833Y-47648161D01*
X79369833Y-47648161D02*
X79293854Y-47690630D01*
X79293854Y-47690630D02*
X79244022Y-47717998D01*
X79244022Y-47717998D02*
X79226718Y-47726870D01*
X79226718Y-47726870D02*
X79194974Y-47723372D01*
X79194974Y-47723372D02*
X79158493Y-47685882D01*
X79158493Y-47685882D02*
X79140564Y-47659206D01*
X79140564Y-47659206D02*
X79100489Y-47592736D01*
X79100489Y-47592736D02*
X79063014Y-47525836D01*
X79063014Y-47525836D02*
X79034203Y-47469852D01*
X79034203Y-47469852D02*
X79020120Y-47436132D01*
X79020120Y-47436132D02*
X79019600Y-47432839D01*
X79019600Y-47432839D02*
X79036997Y-47420372D01*
X79036997Y-47420372D02*
X79085409Y-47390102D01*
X79085409Y-47390102D02*
X79159169Y-47345357D01*
X79159169Y-47345357D02*
X79252609Y-47289464D01*
X79252609Y-47289464D02*
X79360063Y-47225752D01*
X79360063Y-47225752D02*
X79475862Y-47157549D01*
X79475862Y-47157549D02*
X79594340Y-47088181D01*
X79594340Y-47088181D02*
X79709829Y-47020976D01*
X79709829Y-47020976D02*
X79816662Y-46959264D01*
X79816662Y-46959264D02*
X79909171Y-46906370D01*
X79909171Y-46906370D02*
X79981689Y-46865623D01*
X79981689Y-46865623D02*
X80028550Y-46840351D01*
X80028550Y-46840351D02*
X80029257Y-46839990D01*
X80029257Y-46839990D02*
X80079662Y-46816933D01*
X80079662Y-46816933D02*
X80114219Y-46805715D01*
X80114219Y-46805715D02*
X80116803Y-46805507D01*
X80116803Y-46805507D02*
X80134403Y-46821879D01*
X80134403Y-46821879D02*
X80134403Y-46821879D01*
G36*
X80134403Y-46821879D02*
G01*
X80165745Y-46864237D01*
X80204508Y-46922448D01*
X80244371Y-46986376D01*
X80279013Y-47045885D01*
X80302114Y-47090842D01*
X80307383Y-47111086D01*
X80285011Y-47125026D01*
X80231501Y-47156507D01*
X80152580Y-47202267D01*
X80053977Y-47259040D01*
X79941420Y-47323562D01*
X79820639Y-47392568D01*
X79697361Y-47462796D01*
X79577315Y-47530980D01*
X79466229Y-47593857D01*
X79369833Y-47648161D01*
X79293854Y-47690630D01*
X79244022Y-47717998D01*
X79226718Y-47726870D01*
X79194974Y-47723372D01*
X79158493Y-47685882D01*
X79140564Y-47659206D01*
X79100489Y-47592736D01*
X79063014Y-47525836D01*
X79034203Y-47469852D01*
X79020120Y-47436132D01*
X79019600Y-47432839D01*
X79036997Y-47420372D01*
X79085409Y-47390102D01*
X79159169Y-47345357D01*
X79252609Y-47289464D01*
X79360063Y-47225752D01*
X79475862Y-47157549D01*
X79594340Y-47088181D01*
X79709829Y-47020976D01*
X79816662Y-46959264D01*
X79909171Y-46906370D01*
X79981689Y-46865623D01*
X80028550Y-46840351D01*
X80029257Y-46839990D01*
X80079662Y-46816933D01*
X80114219Y-46805715D01*
X80116803Y-46805507D01*
X80134403Y-46821879D01*
G37*
X80134403Y-46821879D02*
X80165745Y-46864237D01*
X80204508Y-46922448D01*
X80244371Y-46986376D01*
X80279013Y-47045885D01*
X80302114Y-47090842D01*
X80307383Y-47111086D01*
X80285011Y-47125026D01*
X80231501Y-47156507D01*
X80152580Y-47202267D01*
X80053977Y-47259040D01*
X79941420Y-47323562D01*
X79820639Y-47392568D01*
X79697361Y-47462796D01*
X79577315Y-47530980D01*
X79466229Y-47593857D01*
X79369833Y-47648161D01*
X79293854Y-47690630D01*
X79244022Y-47717998D01*
X79226718Y-47726870D01*
X79194974Y-47723372D01*
X79158493Y-47685882D01*
X79140564Y-47659206D01*
X79100489Y-47592736D01*
X79063014Y-47525836D01*
X79034203Y-47469852D01*
X79020120Y-47436132D01*
X79019600Y-47432839D01*
X79036997Y-47420372D01*
X79085409Y-47390102D01*
X79159169Y-47345357D01*
X79252609Y-47289464D01*
X79360063Y-47225752D01*
X79475862Y-47157549D01*
X79594340Y-47088181D01*
X79709829Y-47020976D01*
X79816662Y-46959264D01*
X79909171Y-46906370D01*
X79981689Y-46865623D01*
X80028550Y-46840351D01*
X80029257Y-46839990D01*
X80079662Y-46816933D01*
X80114219Y-46805715D01*
X80116803Y-46805507D01*
X80134403Y-46821879D01*
X74831484Y-68204087D02*
X74873158Y-68249067D01*
X74873158Y-68249067D02*
X74930745Y-68319379D01*
X74930745Y-68319379D02*
X75000266Y-68410205D01*
X75000266Y-68410205D02*
X75061434Y-68493890D01*
X75061434Y-68493890D02*
X75155887Y-68625632D01*
X75155887Y-68625632D02*
X75228283Y-68727278D01*
X75228283Y-68727278D02*
X75281194Y-68803161D01*
X75281194Y-68803161D02*
X75317193Y-68857615D01*
X75317193Y-68857615D02*
X75338855Y-68894972D01*
X75338855Y-68894972D02*
X75348751Y-68919566D01*
X75348751Y-68919566D02*
X75349456Y-68935731D01*
X75349456Y-68935731D02*
X75343543Y-68947800D01*
X75343543Y-68947800D02*
X75336309Y-68956774D01*
X75336309Y-68956774D02*
X75297893Y-68984838D01*
X75297893Y-68984838D02*
X75258886Y-68972929D01*
X75258886Y-68972929D02*
X75226055Y-68936671D01*
X75226055Y-68936671D02*
X75101936Y-68765594D01*
X75101936Y-68765594D02*
X75000787Y-68625355D01*
X75000787Y-68625355D02*
X74920470Y-68512706D01*
X74920470Y-68512706D02*
X74858850Y-68424403D01*
X74858850Y-68424403D02*
X74813787Y-68357199D01*
X74813787Y-68357199D02*
X74783144Y-68307847D01*
X74783144Y-68307847D02*
X74764784Y-68273101D01*
X74764784Y-68273101D02*
X74756569Y-68249715D01*
X74756569Y-68249715D02*
X74756361Y-68234443D01*
X74756361Y-68234443D02*
X74759241Y-68227745D01*
X74759241Y-68227745D02*
X74791987Y-68196418D01*
X74791987Y-68196418D02*
X74809702Y-68189252D01*
X74809702Y-68189252D02*
X74831484Y-68204087D01*
X74831484Y-68204087D02*
X74831484Y-68204087D01*
G36*
X74831484Y-68204087D02*
G01*
X74873158Y-68249067D01*
X74930745Y-68319379D01*
X75000266Y-68410205D01*
X75061434Y-68493890D01*
X75155887Y-68625632D01*
X75228283Y-68727278D01*
X75281194Y-68803161D01*
X75317193Y-68857615D01*
X75338855Y-68894972D01*
X75348751Y-68919566D01*
X75349456Y-68935731D01*
X75343543Y-68947800D01*
X75336309Y-68956774D01*
X75297893Y-68984838D01*
X75258886Y-68972929D01*
X75226055Y-68936671D01*
X75101936Y-68765594D01*
X75000787Y-68625355D01*
X74920470Y-68512706D01*
X74858850Y-68424403D01*
X74813787Y-68357199D01*
X74783144Y-68307847D01*
X74764784Y-68273101D01*
X74756569Y-68249715D01*
X74756361Y-68234443D01*
X74759241Y-68227745D01*
X74791987Y-68196418D01*
X74809702Y-68189252D01*
X74831484Y-68204087D01*
G37*
X74831484Y-68204087D02*
X74873158Y-68249067D01*
X74930745Y-68319379D01*
X75000266Y-68410205D01*
X75061434Y-68493890D01*
X75155887Y-68625632D01*
X75228283Y-68727278D01*
X75281194Y-68803161D01*
X75317193Y-68857615D01*
X75338855Y-68894972D01*
X75348751Y-68919566D01*
X75349456Y-68935731D01*
X75343543Y-68947800D01*
X75336309Y-68956774D01*
X75297893Y-68984838D01*
X75258886Y-68972929D01*
X75226055Y-68936671D01*
X75101936Y-68765594D01*
X75000787Y-68625355D01*
X74920470Y-68512706D01*
X74858850Y-68424403D01*
X74813787Y-68357199D01*
X74783144Y-68307847D01*
X74764784Y-68273101D01*
X74756569Y-68249715D01*
X74756361Y-68234443D01*
X74759241Y-68227745D01*
X74791987Y-68196418D01*
X74809702Y-68189252D01*
X74831484Y-68204087D01*
X50924029Y-46827098D02*
X50977103Y-46850390D01*
X50977103Y-46850390D02*
X51052858Y-46888985D01*
X51052858Y-46888985D02*
X51154796Y-46944653D01*
X51154796Y-46944653D02*
X51286424Y-47019167D01*
X51286424Y-47019167D02*
X51421262Y-47096899D01*
X51421262Y-47096899D02*
X51555846Y-47175568D01*
X51555846Y-47175568D02*
X51678706Y-47248640D01*
X51678706Y-47248640D02*
X51784962Y-47313111D01*
X51784962Y-47313111D02*
X51869731Y-47365977D01*
X51869731Y-47365977D02*
X51928133Y-47404235D01*
X51928133Y-47404235D02*
X51955286Y-47424881D01*
X51955286Y-47424881D02*
X51956258Y-47426101D01*
X51956258Y-47426101D02*
X51955243Y-47456940D01*
X51955243Y-47456940D02*
X51936230Y-47510697D01*
X51936230Y-47510697D02*
X51905279Y-47576142D01*
X51905279Y-47576142D02*
X51868447Y-47642045D01*
X51868447Y-47642045D02*
X51831792Y-47697177D01*
X51831792Y-47697177D02*
X51801372Y-47730306D01*
X51801372Y-47730306D02*
X51789577Y-47735087D01*
X51789577Y-47735087D02*
X51757661Y-47723801D01*
X51757661Y-47723801D02*
X51709309Y-47698624D01*
X51709309Y-47698624D02*
X51704017Y-47695511D01*
X51704017Y-47695511D02*
X51667401Y-47674014D01*
X51667401Y-47674014D02*
X51600415Y-47634989D01*
X51600415Y-47634989D02*
X51509345Y-47582088D01*
X51509345Y-47582088D02*
X51400476Y-47518958D01*
X51400476Y-47518958D02*
X51280094Y-47449250D01*
X51280094Y-47449250D02*
X51227767Y-47418979D01*
X51227767Y-47418979D02*
X51104691Y-47347489D01*
X51104691Y-47347489D02*
X50990836Y-47280774D01*
X50990836Y-47280774D02*
X50892420Y-47222522D01*
X50892420Y-47222522D02*
X50815658Y-47176422D01*
X50815658Y-47176422D02*
X50766767Y-47146164D01*
X50766767Y-47146164D02*
X50756010Y-47139045D01*
X50756010Y-47139045D02*
X50697004Y-47097821D01*
X50697004Y-47097821D02*
X50767565Y-46969233D01*
X50767565Y-46969233D02*
X50808042Y-46901065D01*
X50808042Y-46901065D02*
X50845727Y-46847039D01*
X50845727Y-46847039D02*
X50871900Y-46819341D01*
X50871900Y-46819341D02*
X50890129Y-46817339D01*
X50890129Y-46817339D02*
X50924029Y-46827098D01*
X50924029Y-46827098D02*
X50924029Y-46827098D01*
G36*
X50924029Y-46827098D02*
G01*
X50977103Y-46850390D01*
X51052858Y-46888985D01*
X51154796Y-46944653D01*
X51286424Y-47019167D01*
X51421262Y-47096899D01*
X51555846Y-47175568D01*
X51678706Y-47248640D01*
X51784962Y-47313111D01*
X51869731Y-47365977D01*
X51928133Y-47404235D01*
X51955286Y-47424881D01*
X51956258Y-47426101D01*
X51955243Y-47456940D01*
X51936230Y-47510697D01*
X51905279Y-47576142D01*
X51868447Y-47642045D01*
X51831792Y-47697177D01*
X51801372Y-47730306D01*
X51789577Y-47735087D01*
X51757661Y-47723801D01*
X51709309Y-47698624D01*
X51704017Y-47695511D01*
X51667401Y-47674014D01*
X51600415Y-47634989D01*
X51509345Y-47582088D01*
X51400476Y-47518958D01*
X51280094Y-47449250D01*
X51227767Y-47418979D01*
X51104691Y-47347489D01*
X50990836Y-47280774D01*
X50892420Y-47222522D01*
X50815658Y-47176422D01*
X50766767Y-47146164D01*
X50756010Y-47139045D01*
X50697004Y-47097821D01*
X50767565Y-46969233D01*
X50808042Y-46901065D01*
X50845727Y-46847039D01*
X50871900Y-46819341D01*
X50890129Y-46817339D01*
X50924029Y-46827098D01*
G37*
X50924029Y-46827098D02*
X50977103Y-46850390D01*
X51052858Y-46888985D01*
X51154796Y-46944653D01*
X51286424Y-47019167D01*
X51421262Y-47096899D01*
X51555846Y-47175568D01*
X51678706Y-47248640D01*
X51784962Y-47313111D01*
X51869731Y-47365977D01*
X51928133Y-47404235D01*
X51955286Y-47424881D01*
X51956258Y-47426101D01*
X51955243Y-47456940D01*
X51936230Y-47510697D01*
X51905279Y-47576142D01*
X51868447Y-47642045D01*
X51831792Y-47697177D01*
X51801372Y-47730306D01*
X51789577Y-47735087D01*
X51757661Y-47723801D01*
X51709309Y-47698624D01*
X51704017Y-47695511D01*
X51667401Y-47674014D01*
X51600415Y-47634989D01*
X51509345Y-47582088D01*
X51400476Y-47518958D01*
X51280094Y-47449250D01*
X51227767Y-47418979D01*
X51104691Y-47347489D01*
X50990836Y-47280774D01*
X50892420Y-47222522D01*
X50815658Y-47176422D01*
X50766767Y-47146164D01*
X50756010Y-47139045D01*
X50697004Y-47097821D01*
X50767565Y-46969233D01*
X50808042Y-46901065D01*
X50845727Y-46847039D01*
X50871900Y-46819341D01*
X50890129Y-46817339D01*
X50924029Y-46827098D01*
X49793714Y-57042854D02*
X49807801Y-57070139D01*
X49807801Y-57070139D02*
X49808330Y-57111723D01*
X49808330Y-57111723D02*
X49797201Y-57147058D01*
X49797201Y-57147058D02*
X49783142Y-57157093D01*
X49783142Y-57157093D02*
X49754931Y-57159605D01*
X49754931Y-57159605D02*
X49691307Y-57165997D01*
X49691307Y-57165997D02*
X49598940Y-57175577D01*
X49598940Y-57175577D02*
X49484501Y-57187651D01*
X49484501Y-57187651D02*
X49354664Y-57201523D01*
X49354664Y-57201523D02*
X49317475Y-57205526D01*
X49317475Y-57205526D02*
X48878267Y-57252873D01*
X48878267Y-57252873D02*
X48878267Y-57194260D01*
X48878267Y-57194260D02*
X48888669Y-57146495D01*
X48888669Y-57146495D02*
X48925245Y-57125299D01*
X48925245Y-57125299D02*
X48925892Y-57125155D01*
X48925892Y-57125155D02*
X48969768Y-57118023D01*
X48969768Y-57118023D02*
X49043780Y-57108671D01*
X49043780Y-57108671D02*
X49140172Y-57097834D01*
X49140172Y-57097834D02*
X49251191Y-57086249D01*
X49251191Y-57086249D02*
X49369083Y-57074649D01*
X49369083Y-57074649D02*
X49486094Y-57063771D01*
X49486094Y-57063771D02*
X49594469Y-57054351D01*
X49594469Y-57054351D02*
X49686456Y-57047122D01*
X49686456Y-57047122D02*
X49754299Y-57042821D01*
X49754299Y-57042821D02*
X49790245Y-57042183D01*
X49790245Y-57042183D02*
X49793714Y-57042854D01*
X49793714Y-57042854D02*
X49793714Y-57042854D01*
G36*
X49793714Y-57042854D02*
G01*
X49807801Y-57070139D01*
X49808330Y-57111723D01*
X49797201Y-57147058D01*
X49783142Y-57157093D01*
X49754931Y-57159605D01*
X49691307Y-57165997D01*
X49598940Y-57175577D01*
X49484501Y-57187651D01*
X49354664Y-57201523D01*
X49317475Y-57205526D01*
X48878267Y-57252873D01*
X48878267Y-57194260D01*
X48888669Y-57146495D01*
X48925245Y-57125299D01*
X48925892Y-57125155D01*
X48969768Y-57118023D01*
X49043780Y-57108671D01*
X49140172Y-57097834D01*
X49251191Y-57086249D01*
X49369083Y-57074649D01*
X49486094Y-57063771D01*
X49594469Y-57054351D01*
X49686456Y-57047122D01*
X49754299Y-57042821D01*
X49790245Y-57042183D01*
X49793714Y-57042854D01*
G37*
X49793714Y-57042854D02*
X49807801Y-57070139D01*
X49808330Y-57111723D01*
X49797201Y-57147058D01*
X49783142Y-57157093D01*
X49754931Y-57159605D01*
X49691307Y-57165997D01*
X49598940Y-57175577D01*
X49484501Y-57187651D01*
X49354664Y-57201523D01*
X49317475Y-57205526D01*
X48878267Y-57252873D01*
X48878267Y-57194260D01*
X48888669Y-57146495D01*
X48925245Y-57125299D01*
X48925892Y-57125155D01*
X48969768Y-57118023D01*
X49043780Y-57108671D01*
X49140172Y-57097834D01*
X49251191Y-57086249D01*
X49369083Y-57074649D01*
X49486094Y-57063771D01*
X49594469Y-57054351D01*
X49686456Y-57047122D01*
X49754299Y-57042821D01*
X49790245Y-57042183D01*
X49793714Y-57042854D01*
X78316961Y-64692284D02*
X78366936Y-64723140D01*
X78366936Y-64723140D02*
X78440591Y-64772438D01*
X78440591Y-64772438D02*
X78532817Y-64836720D01*
X78532817Y-64836720D02*
X78638503Y-64912528D01*
X78638503Y-64912528D02*
X78688459Y-64949016D01*
X78688459Y-64949016D02*
X78810741Y-65039061D01*
X78810741Y-65039061D02*
X78902572Y-65107719D01*
X78902572Y-65107719D02*
X78967734Y-65158510D01*
X78967734Y-65158510D02*
X79010008Y-65194952D01*
X79010008Y-65194952D02*
X79033174Y-65220564D01*
X79033174Y-65220564D02*
X79041014Y-65238865D01*
X79041014Y-65238865D02*
X79037309Y-65253375D01*
X79037309Y-65253375D02*
X79028115Y-65265126D01*
X79028115Y-65265126D02*
X78996321Y-65295319D01*
X78996321Y-65295319D02*
X78979278Y-65304885D01*
X78979278Y-65304885D02*
X78959176Y-65292903D01*
X78959176Y-65292903D02*
X78910087Y-65259558D01*
X78910087Y-65259558D02*
X78837184Y-65208488D01*
X78837184Y-65208488D02*
X78745643Y-65143332D01*
X78745643Y-65143332D02*
X78640639Y-65067725D01*
X78640639Y-65067725D02*
X78601374Y-65039256D01*
X78601374Y-65039256D02*
X78479682Y-64950361D01*
X78479682Y-64950361D02*
X78388704Y-64882342D01*
X78388704Y-64882342D02*
X78324527Y-64831723D01*
X78324527Y-64831723D02*
X78283239Y-64795029D01*
X78283239Y-64795029D02*
X78260926Y-64768782D01*
X78260926Y-64768782D02*
X78253674Y-64749507D01*
X78253674Y-64749507D02*
X78257529Y-64733806D01*
X78257529Y-64733806D02*
X78282241Y-64696580D01*
X78282241Y-64696580D02*
X78295777Y-64683326D01*
X78295777Y-64683326D02*
X78316961Y-64692284D01*
X78316961Y-64692284D02*
X78316961Y-64692284D01*
G36*
X78316961Y-64692284D02*
G01*
X78366936Y-64723140D01*
X78440591Y-64772438D01*
X78532817Y-64836720D01*
X78638503Y-64912528D01*
X78688459Y-64949016D01*
X78810741Y-65039061D01*
X78902572Y-65107719D01*
X78967734Y-65158510D01*
X79010008Y-65194952D01*
X79033174Y-65220564D01*
X79041014Y-65238865D01*
X79037309Y-65253375D01*
X79028115Y-65265126D01*
X78996321Y-65295319D01*
X78979278Y-65304885D01*
X78959176Y-65292903D01*
X78910087Y-65259558D01*
X78837184Y-65208488D01*
X78745643Y-65143332D01*
X78640639Y-65067725D01*
X78601374Y-65039256D01*
X78479682Y-64950361D01*
X78388704Y-64882342D01*
X78324527Y-64831723D01*
X78283239Y-64795029D01*
X78260926Y-64768782D01*
X78253674Y-64749507D01*
X78257529Y-64733806D01*
X78282241Y-64696580D01*
X78295777Y-64683326D01*
X78316961Y-64692284D01*
G37*
X78316961Y-64692284D02*
X78366936Y-64723140D01*
X78440591Y-64772438D01*
X78532817Y-64836720D01*
X78638503Y-64912528D01*
X78688459Y-64949016D01*
X78810741Y-65039061D01*
X78902572Y-65107719D01*
X78967734Y-65158510D01*
X79010008Y-65194952D01*
X79033174Y-65220564D01*
X79041014Y-65238865D01*
X79037309Y-65253375D01*
X79028115Y-65265126D01*
X78996321Y-65295319D01*
X78979278Y-65304885D01*
X78959176Y-65292903D01*
X78910087Y-65259558D01*
X78837184Y-65208488D01*
X78745643Y-65143332D01*
X78640639Y-65067725D01*
X78601374Y-65039256D01*
X78479682Y-64950361D01*
X78388704Y-64882342D01*
X78324527Y-64831723D01*
X78283239Y-64795029D01*
X78260926Y-64768782D01*
X78253674Y-64749507D01*
X78257529Y-64733806D01*
X78282241Y-64696580D01*
X78295777Y-64683326D01*
X78316961Y-64692284D01*
X80754158Y-48619638D02*
X80779512Y-48652651D01*
X80779512Y-48652651D02*
X80795167Y-48685891D01*
X80795167Y-48685891D02*
X80794023Y-48699747D01*
X80794023Y-48699747D02*
X80772453Y-48710811D01*
X80772453Y-48710811D02*
X80719087Y-48735517D01*
X80719087Y-48735517D02*
X80641011Y-48770754D01*
X80641011Y-48770754D02*
X80545305Y-48813410D01*
X80545305Y-48813410D02*
X80439052Y-48860372D01*
X80439052Y-48860372D02*
X80329336Y-48908528D01*
X80329336Y-48908528D02*
X80223238Y-48954768D01*
X80223238Y-48954768D02*
X80127842Y-48995979D01*
X80127842Y-48995979D02*
X80050229Y-49029050D01*
X80050229Y-49029050D02*
X79997483Y-49050867D01*
X79997483Y-49050867D02*
X79979099Y-49057794D01*
X79979099Y-49057794D02*
X79939597Y-49059510D01*
X79939597Y-49059510D02*
X79919524Y-49029081D01*
X79919524Y-49029081D02*
X79913380Y-48985888D01*
X79913380Y-48985888D02*
X79917667Y-48966961D01*
X79917667Y-48966961D02*
X79939690Y-48953183D01*
X79939690Y-48953183D02*
X79993539Y-48926041D01*
X79993539Y-48926041D02*
X80072073Y-48888716D01*
X80072073Y-48888716D02*
X80168153Y-48844388D01*
X80168153Y-48844388D02*
X80274637Y-48796238D01*
X80274637Y-48796238D02*
X80384386Y-48747447D01*
X80384386Y-48747447D02*
X80490259Y-48701196D01*
X80490259Y-48701196D02*
X80585115Y-48660666D01*
X80585115Y-48660666D02*
X80661815Y-48629037D01*
X80661815Y-48629037D02*
X80713218Y-48609491D01*
X80713218Y-48609491D02*
X80730931Y-48604674D01*
X80730931Y-48604674D02*
X80754158Y-48619638D01*
X80754158Y-48619638D02*
X80754158Y-48619638D01*
G36*
X80754158Y-48619638D02*
G01*
X80779512Y-48652651D01*
X80795167Y-48685891D01*
X80794023Y-48699747D01*
X80772453Y-48710811D01*
X80719087Y-48735517D01*
X80641011Y-48770754D01*
X80545305Y-48813410D01*
X80439052Y-48860372D01*
X80329336Y-48908528D01*
X80223238Y-48954768D01*
X80127842Y-48995979D01*
X80050229Y-49029050D01*
X79997483Y-49050867D01*
X79979099Y-49057794D01*
X79939597Y-49059510D01*
X79919524Y-49029081D01*
X79913380Y-48985888D01*
X79917667Y-48966961D01*
X79939690Y-48953183D01*
X79993539Y-48926041D01*
X80072073Y-48888716D01*
X80168153Y-48844388D01*
X80274637Y-48796238D01*
X80384386Y-48747447D01*
X80490259Y-48701196D01*
X80585115Y-48660666D01*
X80661815Y-48629037D01*
X80713218Y-48609491D01*
X80730931Y-48604674D01*
X80754158Y-48619638D01*
G37*
X80754158Y-48619638D02*
X80779512Y-48652651D01*
X80795167Y-48685891D01*
X80794023Y-48699747D01*
X80772453Y-48710811D01*
X80719087Y-48735517D01*
X80641011Y-48770754D01*
X80545305Y-48813410D01*
X80439052Y-48860372D01*
X80329336Y-48908528D01*
X80223238Y-48954768D01*
X80127842Y-48995979D01*
X80050229Y-49029050D01*
X79997483Y-49050867D01*
X79979099Y-49057794D01*
X79939597Y-49059510D01*
X79919524Y-49029081D01*
X79913380Y-48985888D01*
X79917667Y-48966961D01*
X79939690Y-48953183D01*
X79993539Y-48926041D01*
X80072073Y-48888716D01*
X80168153Y-48844388D01*
X80274637Y-48796238D01*
X80384386Y-48747447D01*
X80490259Y-48701196D01*
X80585115Y-48660666D01*
X80661815Y-48629037D01*
X80713218Y-48609491D01*
X80730931Y-48604674D01*
X80754158Y-48619638D01*
X75329911Y-41921425D02*
X75331399Y-41922900D01*
X75331399Y-41922900D02*
X75347339Y-41943285D01*
X75347339Y-41943285D02*
X75348963Y-41966429D01*
X75348963Y-41966429D02*
X75333136Y-42001471D01*
X75333136Y-42001471D02*
X75296725Y-42057556D01*
X75296725Y-42057556D02*
X75273960Y-42090416D01*
X75273960Y-42090416D02*
X75160994Y-42251015D01*
X75160994Y-42251015D02*
X75060423Y-42391343D01*
X75060423Y-42391343D02*
X74974306Y-42508661D01*
X74974306Y-42508661D02*
X74904699Y-42600231D01*
X74904699Y-42600231D02*
X74853660Y-42663316D01*
X74853660Y-42663316D02*
X74823247Y-42695176D01*
X74823247Y-42695176D02*
X74816959Y-42698598D01*
X74816959Y-42698598D02*
X74783864Y-42685622D01*
X74783864Y-42685622D02*
X74769334Y-42673774D01*
X74769334Y-42673774D02*
X74746993Y-42641476D01*
X74746993Y-42641476D02*
X74743934Y-42629433D01*
X74743934Y-42629433D02*
X74755926Y-42607044D01*
X74755926Y-42607044D02*
X74788840Y-42557179D01*
X74788840Y-42557179D02*
X74838084Y-42486139D01*
X74838084Y-42486139D02*
X74899063Y-42400229D01*
X74899063Y-42400229D02*
X74967185Y-42305751D01*
X74967185Y-42305751D02*
X75037858Y-42209007D01*
X75037858Y-42209007D02*
X75106486Y-42116302D01*
X75106486Y-42116302D02*
X75168479Y-42033938D01*
X75168479Y-42033938D02*
X75219241Y-41968218D01*
X75219241Y-41968218D02*
X75254181Y-41925444D01*
X75254181Y-41925444D02*
X75265822Y-41913264D01*
X75265822Y-41913264D02*
X75296757Y-41900091D01*
X75296757Y-41900091D02*
X75329911Y-41921425D01*
X75329911Y-41921425D02*
X75329911Y-41921425D01*
G36*
X75329911Y-41921425D02*
G01*
X75331399Y-41922900D01*
X75347339Y-41943285D01*
X75348963Y-41966429D01*
X75333136Y-42001471D01*
X75296725Y-42057556D01*
X75273960Y-42090416D01*
X75160994Y-42251015D01*
X75060423Y-42391343D01*
X74974306Y-42508661D01*
X74904699Y-42600231D01*
X74853660Y-42663316D01*
X74823247Y-42695176D01*
X74816959Y-42698598D01*
X74783864Y-42685622D01*
X74769334Y-42673774D01*
X74746993Y-42641476D01*
X74743934Y-42629433D01*
X74755926Y-42607044D01*
X74788840Y-42557179D01*
X74838084Y-42486139D01*
X74899063Y-42400229D01*
X74967185Y-42305751D01*
X75037858Y-42209007D01*
X75106486Y-42116302D01*
X75168479Y-42033938D01*
X75219241Y-41968218D01*
X75254181Y-41925444D01*
X75265822Y-41913264D01*
X75296757Y-41900091D01*
X75329911Y-41921425D01*
G37*
X75329911Y-41921425D02*
X75331399Y-41922900D01*
X75347339Y-41943285D01*
X75348963Y-41966429D01*
X75333136Y-42001471D01*
X75296725Y-42057556D01*
X75273960Y-42090416D01*
X75160994Y-42251015D01*
X75060423Y-42391343D01*
X74974306Y-42508661D01*
X74904699Y-42600231D01*
X74853660Y-42663316D01*
X74823247Y-42695176D01*
X74816959Y-42698598D01*
X74783864Y-42685622D01*
X74769334Y-42673774D01*
X74746993Y-42641476D01*
X74743934Y-42629433D01*
X74755926Y-42607044D01*
X74788840Y-42557179D01*
X74838084Y-42486139D01*
X74899063Y-42400229D01*
X74967185Y-42305751D01*
X75037858Y-42209007D01*
X75106486Y-42116302D01*
X75168479Y-42033938D01*
X75219241Y-41968218D01*
X75254181Y-41925444D01*
X75265822Y-41913264D01*
X75296757Y-41900091D01*
X75329911Y-41921425D01*
X76119940Y-67161678D02*
X76161393Y-67202923D01*
X76161393Y-67202923D02*
X76220445Y-67264750D01*
X76220445Y-67264750D02*
X76291980Y-67341504D01*
X76291980Y-67341504D02*
X76370880Y-67427529D01*
X76370880Y-67427529D02*
X76452026Y-67517169D01*
X76452026Y-67517169D02*
X76530302Y-67604767D01*
X76530302Y-67604767D02*
X76600590Y-67684668D01*
X76600590Y-67684668D02*
X76657771Y-67751216D01*
X76657771Y-67751216D02*
X76696729Y-67798754D01*
X76696729Y-67798754D02*
X76712346Y-67821626D01*
X76712346Y-67821626D02*
X76712434Y-67822209D01*
X76712434Y-67822209D02*
X76698404Y-67847687D01*
X76698404Y-67847687D02*
X76675020Y-67872471D01*
X76675020Y-67872471D02*
X76661141Y-67881777D01*
X76661141Y-67881777D02*
X76644720Y-67882206D01*
X76644720Y-67882206D02*
X76621857Y-67870284D01*
X76621857Y-67870284D02*
X76588652Y-67842536D01*
X76588652Y-67842536D02*
X76541205Y-67795489D01*
X76541205Y-67795489D02*
X76475618Y-67725668D01*
X76475618Y-67725668D02*
X76387990Y-67629598D01*
X76387990Y-67629598D02*
X76328293Y-67563543D01*
X76328293Y-67563543D02*
X76226937Y-67450778D01*
X76226937Y-67450778D02*
X76151136Y-67364907D01*
X76151136Y-67364907D02*
X76097784Y-67301667D01*
X76097784Y-67301667D02*
X76063775Y-67256797D01*
X76063775Y-67256797D02*
X76046003Y-67226035D01*
X76046003Y-67226035D02*
X76041363Y-67205118D01*
X76041363Y-67205118D02*
X76046747Y-67189785D01*
X76046747Y-67189785D02*
X76051488Y-67183715D01*
X76051488Y-67183715D02*
X76083660Y-67154586D01*
X76083660Y-67154586D02*
X76101205Y-67146674D01*
X76101205Y-67146674D02*
X76119940Y-67161678D01*
X76119940Y-67161678D02*
X76119940Y-67161678D01*
G36*
X76119940Y-67161678D02*
G01*
X76161393Y-67202923D01*
X76220445Y-67264750D01*
X76291980Y-67341504D01*
X76370880Y-67427529D01*
X76452026Y-67517169D01*
X76530302Y-67604767D01*
X76600590Y-67684668D01*
X76657771Y-67751216D01*
X76696729Y-67798754D01*
X76712346Y-67821626D01*
X76712434Y-67822209D01*
X76698404Y-67847687D01*
X76675020Y-67872471D01*
X76661141Y-67881777D01*
X76644720Y-67882206D01*
X76621857Y-67870284D01*
X76588652Y-67842536D01*
X76541205Y-67795489D01*
X76475618Y-67725668D01*
X76387990Y-67629598D01*
X76328293Y-67563543D01*
X76226937Y-67450778D01*
X76151136Y-67364907D01*
X76097784Y-67301667D01*
X76063775Y-67256797D01*
X76046003Y-67226035D01*
X76041363Y-67205118D01*
X76046747Y-67189785D01*
X76051488Y-67183715D01*
X76083660Y-67154586D01*
X76101205Y-67146674D01*
X76119940Y-67161678D01*
G37*
X76119940Y-67161678D02*
X76161393Y-67202923D01*
X76220445Y-67264750D01*
X76291980Y-67341504D01*
X76370880Y-67427529D01*
X76452026Y-67517169D01*
X76530302Y-67604767D01*
X76600590Y-67684668D01*
X76657771Y-67751216D01*
X76696729Y-67798754D01*
X76712346Y-67821626D01*
X76712434Y-67822209D01*
X76698404Y-67847687D01*
X76675020Y-67872471D01*
X76661141Y-67881777D01*
X76644720Y-67882206D01*
X76621857Y-67870284D01*
X76588652Y-67842536D01*
X76541205Y-67795489D01*
X76475618Y-67725668D01*
X76387990Y-67629598D01*
X76328293Y-67563543D01*
X76226937Y-67450778D01*
X76151136Y-67364907D01*
X76097784Y-67301667D01*
X76063775Y-67256797D01*
X76046003Y-67226035D01*
X76041363Y-67205118D01*
X76046747Y-67189785D01*
X76051488Y-67183715D01*
X76083660Y-67154586D01*
X76101205Y-67146674D01*
X76119940Y-67161678D01*
X49788434Y-55632007D02*
X48497267Y-55632007D01*
X48497267Y-55632007D02*
X48497267Y-55251007D01*
X48497267Y-55251007D02*
X49788434Y-55251007D01*
X49788434Y-55251007D02*
X49788434Y-55632007D01*
X49788434Y-55632007D02*
X49788434Y-55632007D01*
G36*
X49788434Y-55632007D02*
G01*
X48497267Y-55632007D01*
X48497267Y-55251007D01*
X49788434Y-55251007D01*
X49788434Y-55632007D01*
G37*
X49788434Y-55632007D02*
X48497267Y-55632007D01*
X48497267Y-55251007D01*
X49788434Y-55251007D01*
X49788434Y-55632007D01*
X49672507Y-50240876D02*
X49732960Y-50258308D01*
X49732960Y-50258308D02*
X49817965Y-50284288D01*
X49817965Y-50284288D02*
X49919751Y-50316303D01*
X49919751Y-50316303D02*
X50030545Y-50351838D01*
X50030545Y-50351838D02*
X50142574Y-50388378D01*
X50142574Y-50388378D02*
X50248067Y-50423411D01*
X50248067Y-50423411D02*
X50339250Y-50454422D01*
X50339250Y-50454422D02*
X50408353Y-50478897D01*
X50408353Y-50478897D02*
X50447601Y-50494321D01*
X50447601Y-50494321D02*
X50447631Y-50494334D01*
X50447631Y-50494334D02*
X50486075Y-50518917D01*
X50486075Y-50518917D02*
X50491221Y-50549493D01*
X50491221Y-50549493D02*
X50485354Y-50567882D01*
X50485354Y-50567882D02*
X50465359Y-50604137D01*
X50465359Y-50604137D02*
X50450574Y-50614562D01*
X50450574Y-50614562D02*
X50426310Y-50608052D01*
X50426310Y-50608052D02*
X50367995Y-50590405D01*
X50367995Y-50590405D02*
X50281837Y-50563561D01*
X50281837Y-50563561D02*
X50174048Y-50529461D01*
X50174048Y-50529461D02*
X50050838Y-50490044D01*
X50050838Y-50490044D02*
X50013486Y-50478017D01*
X50013486Y-50478017D02*
X49887418Y-50437062D01*
X49887418Y-50437062D02*
X49775512Y-50400126D01*
X49775512Y-50400126D02*
X49683864Y-50369271D01*
X49683864Y-50369271D02*
X49618573Y-50346556D01*
X49618573Y-50346556D02*
X49585734Y-50334041D01*
X49585734Y-50334041D02*
X49583146Y-50332608D01*
X49583146Y-50332608D02*
X49583253Y-50307709D01*
X49583253Y-50307709D02*
X49602159Y-50271306D01*
X49602159Y-50271306D02*
X49628501Y-50241602D01*
X49628501Y-50241602D02*
X49644379Y-50234507D01*
X49644379Y-50234507D02*
X49672507Y-50240876D01*
X49672507Y-50240876D02*
X49672507Y-50240876D01*
G36*
X49672507Y-50240876D02*
G01*
X49732960Y-50258308D01*
X49817965Y-50284288D01*
X49919751Y-50316303D01*
X50030545Y-50351838D01*
X50142574Y-50388378D01*
X50248067Y-50423411D01*
X50339250Y-50454422D01*
X50408353Y-50478897D01*
X50447601Y-50494321D01*
X50447631Y-50494334D01*
X50486075Y-50518917D01*
X50491221Y-50549493D01*
X50485354Y-50567882D01*
X50465359Y-50604137D01*
X50450574Y-50614562D01*
X50426310Y-50608052D01*
X50367995Y-50590405D01*
X50281837Y-50563561D01*
X50174048Y-50529461D01*
X50050838Y-50490044D01*
X50013486Y-50478017D01*
X49887418Y-50437062D01*
X49775512Y-50400126D01*
X49683864Y-50369271D01*
X49618573Y-50346556D01*
X49585734Y-50334041D01*
X49583146Y-50332608D01*
X49583253Y-50307709D01*
X49602159Y-50271306D01*
X49628501Y-50241602D01*
X49644379Y-50234507D01*
X49672507Y-50240876D01*
G37*
X49672507Y-50240876D02*
X49732960Y-50258308D01*
X49817965Y-50284288D01*
X49919751Y-50316303D01*
X50030545Y-50351838D01*
X50142574Y-50388378D01*
X50248067Y-50423411D01*
X50339250Y-50454422D01*
X50408353Y-50478897D01*
X50447601Y-50494321D01*
X50447631Y-50494334D01*
X50486075Y-50518917D01*
X50491221Y-50549493D01*
X50485354Y-50567882D01*
X50465359Y-50604137D01*
X50450574Y-50614562D01*
X50426310Y-50608052D01*
X50367995Y-50590405D01*
X50281837Y-50563561D01*
X50174048Y-50529461D01*
X50050838Y-50490044D01*
X50013486Y-50478017D01*
X49887418Y-50437062D01*
X49775512Y-50400126D01*
X49683864Y-50369271D01*
X49618573Y-50346556D01*
X49585734Y-50334041D01*
X49583146Y-50332608D01*
X49583253Y-50307709D01*
X49602159Y-50271306D01*
X49628501Y-50241602D01*
X49644379Y-50234507D01*
X49672507Y-50240876D01*
X50055519Y-58694983D02*
X50066313Y-58729467D01*
X50066313Y-58729467D02*
X50055166Y-58767792D01*
X50055166Y-58767792D02*
X50022888Y-58794293D01*
X50022888Y-58794293D02*
X50015975Y-58796352D01*
X50015975Y-58796352D02*
X49968400Y-58807170D01*
X49968400Y-58807170D02*
X49892378Y-58823899D01*
X49892378Y-58823899D02*
X49795515Y-58844917D01*
X49795515Y-58844917D02*
X49685419Y-58868605D01*
X49685419Y-58868605D02*
X49569697Y-58893342D01*
X49569697Y-58893342D02*
X49455954Y-58917508D01*
X49455954Y-58917508D02*
X49351799Y-58939482D01*
X49351799Y-58939482D02*
X49264838Y-58957646D01*
X49264838Y-58957646D02*
X49202678Y-58970377D01*
X49202678Y-58970377D02*
X49172925Y-58976056D01*
X49172925Y-58976056D02*
X49171603Y-58976204D01*
X49171603Y-58976204D02*
X49157126Y-58958381D01*
X49157126Y-58958381D02*
X49144115Y-58920926D01*
X49144115Y-58920926D02*
X49135932Y-58878256D01*
X49135932Y-58878256D02*
X49136528Y-58859708D01*
X49136528Y-58859708D02*
X49159332Y-58852957D01*
X49159332Y-58852957D02*
X49216202Y-58839722D01*
X49216202Y-58839722D02*
X49299636Y-58821526D01*
X49299636Y-58821526D02*
X49402131Y-58799891D01*
X49402131Y-58799891D02*
X49516185Y-58776340D01*
X49516185Y-58776340D02*
X49634294Y-58752396D01*
X49634294Y-58752396D02*
X49748956Y-58729581D01*
X49748956Y-58729581D02*
X49852667Y-58709419D01*
X49852667Y-58709419D02*
X49937927Y-58693431D01*
X49937927Y-58693431D02*
X49997231Y-58683140D01*
X49997231Y-58683140D02*
X50021978Y-58680007D01*
X50021978Y-58680007D02*
X50055519Y-58694983D01*
X50055519Y-58694983D02*
X50055519Y-58694983D01*
G36*
X50055519Y-58694983D02*
G01*
X50066313Y-58729467D01*
X50055166Y-58767792D01*
X50022888Y-58794293D01*
X50015975Y-58796352D01*
X49968400Y-58807170D01*
X49892378Y-58823899D01*
X49795515Y-58844917D01*
X49685419Y-58868605D01*
X49569697Y-58893342D01*
X49455954Y-58917508D01*
X49351799Y-58939482D01*
X49264838Y-58957646D01*
X49202678Y-58970377D01*
X49172925Y-58976056D01*
X49171603Y-58976204D01*
X49157126Y-58958381D01*
X49144115Y-58920926D01*
X49135932Y-58878256D01*
X49136528Y-58859708D01*
X49159332Y-58852957D01*
X49216202Y-58839722D01*
X49299636Y-58821526D01*
X49402131Y-58799891D01*
X49516185Y-58776340D01*
X49634294Y-58752396D01*
X49748956Y-58729581D01*
X49852667Y-58709419D01*
X49937927Y-58693431D01*
X49997231Y-58683140D01*
X50021978Y-58680007D01*
X50055519Y-58694983D01*
G37*
X50055519Y-58694983D02*
X50066313Y-58729467D01*
X50055166Y-58767792D01*
X50022888Y-58794293D01*
X50015975Y-58796352D01*
X49968400Y-58807170D01*
X49892378Y-58823899D01*
X49795515Y-58844917D01*
X49685419Y-58868605D01*
X49569697Y-58893342D01*
X49455954Y-58917508D01*
X49351799Y-58939482D01*
X49264838Y-58957646D01*
X49202678Y-58970377D01*
X49172925Y-58976056D01*
X49171603Y-58976204D01*
X49157126Y-58958381D01*
X49144115Y-58920926D01*
X49135932Y-58878256D01*
X49136528Y-58859708D01*
X49159332Y-58852957D01*
X49216202Y-58839722D01*
X49299636Y-58821526D01*
X49402131Y-58799891D01*
X49516185Y-58776340D01*
X49634294Y-58752396D01*
X49748956Y-58729581D01*
X49852667Y-58709419D01*
X49937927Y-58693431D01*
X49997231Y-58683140D01*
X50021978Y-58680007D01*
X50055519Y-58694983D01*
X54350928Y-43000782D02*
X54373005Y-43013490D01*
X54373005Y-43013490D02*
X54404011Y-43039203D01*
X54404011Y-43039203D02*
X54446666Y-43080563D01*
X54446666Y-43080563D02*
X54503687Y-43140212D01*
X54503687Y-43140212D02*
X54577791Y-43220794D01*
X54577791Y-43220794D02*
X54671695Y-43324952D01*
X54671695Y-43324952D02*
X54788117Y-43455328D01*
X54788117Y-43455328D02*
X54929775Y-43614565D01*
X54929775Y-43614565D02*
X54938692Y-43624595D01*
X54938692Y-43624595D02*
X54965729Y-43662927D01*
X54965729Y-43662927D02*
X54962484Y-43691703D01*
X54962484Y-43691703D02*
X54953615Y-43703970D01*
X54953615Y-43703970D02*
X54919487Y-43731109D01*
X54919487Y-43731109D02*
X54901337Y-43736340D01*
X54901337Y-43736340D02*
X54879313Y-43721311D01*
X54879313Y-43721311D02*
X54834626Y-43679740D01*
X54834626Y-43679740D02*
X54772539Y-43616904D01*
X54772539Y-43616904D02*
X54698313Y-43538077D01*
X54698313Y-43538077D02*
X54642706Y-43477049D01*
X54642706Y-43477049D02*
X54529447Y-43351275D01*
X54529447Y-43351275D02*
X54441456Y-43253362D01*
X54441456Y-43253362D02*
X54375967Y-43179451D01*
X54375967Y-43179451D02*
X54330214Y-43125682D01*
X54330214Y-43125682D02*
X54301432Y-43088195D01*
X54301432Y-43088195D02*
X54286855Y-43063129D01*
X54286855Y-43063129D02*
X54283717Y-43046625D01*
X54283717Y-43046625D02*
X54289252Y-43034823D01*
X54289252Y-43034823D02*
X54300695Y-43023863D01*
X54300695Y-43023863D02*
X54311110Y-43014256D01*
X54311110Y-43014256D02*
X54322699Y-43003808D01*
X54322699Y-43003808D02*
X54335066Y-42998436D01*
X54335066Y-42998436D02*
X54350928Y-43000782D01*
X54350928Y-43000782D02*
X54350928Y-43000782D01*
G36*
X54350928Y-43000782D02*
G01*
X54373005Y-43013490D01*
X54404011Y-43039203D01*
X54446666Y-43080563D01*
X54503687Y-43140212D01*
X54577791Y-43220794D01*
X54671695Y-43324952D01*
X54788117Y-43455328D01*
X54929775Y-43614565D01*
X54938692Y-43624595D01*
X54965729Y-43662927D01*
X54962484Y-43691703D01*
X54953615Y-43703970D01*
X54919487Y-43731109D01*
X54901337Y-43736340D01*
X54879313Y-43721311D01*
X54834626Y-43679740D01*
X54772539Y-43616904D01*
X54698313Y-43538077D01*
X54642706Y-43477049D01*
X54529447Y-43351275D01*
X54441456Y-43253362D01*
X54375967Y-43179451D01*
X54330214Y-43125682D01*
X54301432Y-43088195D01*
X54286855Y-43063129D01*
X54283717Y-43046625D01*
X54289252Y-43034823D01*
X54300695Y-43023863D01*
X54311110Y-43014256D01*
X54322699Y-43003808D01*
X54335066Y-42998436D01*
X54350928Y-43000782D01*
G37*
X54350928Y-43000782D02*
X54373005Y-43013490D01*
X54404011Y-43039203D01*
X54446666Y-43080563D01*
X54503687Y-43140212D01*
X54577791Y-43220794D01*
X54671695Y-43324952D01*
X54788117Y-43455328D01*
X54929775Y-43614565D01*
X54938692Y-43624595D01*
X54965729Y-43662927D01*
X54962484Y-43691703D01*
X54953615Y-43703970D01*
X54919487Y-43731109D01*
X54901337Y-43736340D01*
X54879313Y-43721311D01*
X54834626Y-43679740D01*
X54772539Y-43616904D01*
X54698313Y-43538077D01*
X54642706Y-43477049D01*
X54529447Y-43351275D01*
X54441456Y-43253362D01*
X54375967Y-43179451D01*
X54330214Y-43125682D01*
X54301432Y-43088195D01*
X54286855Y-43063129D01*
X54283717Y-43046625D01*
X54289252Y-43034823D01*
X54300695Y-43023863D01*
X54311110Y-43014256D01*
X54322699Y-43003808D01*
X54335066Y-42998436D01*
X54350928Y-43000782D01*
X81020440Y-58684172D02*
X81083730Y-58695602D01*
X81083730Y-58695602D02*
X81171723Y-58712700D01*
X81171723Y-58712700D02*
X81276813Y-58733871D01*
X81276813Y-58733871D02*
X81391398Y-58757518D01*
X81391398Y-58757518D02*
X81507874Y-58782043D01*
X81507874Y-58782043D02*
X81618635Y-58805851D01*
X81618635Y-58805851D02*
X81716079Y-58827345D01*
X81716079Y-58827345D02*
X81792600Y-58844928D01*
X81792600Y-58844928D02*
X81840596Y-58857003D01*
X81840596Y-58857003D02*
X81853184Y-58861356D01*
X81853184Y-58861356D02*
X81856786Y-58888190D01*
X81856786Y-58888190D02*
X81844437Y-58929170D01*
X81844437Y-58929170D02*
X81824175Y-58964213D01*
X81824175Y-58964213D02*
X81807905Y-58974497D01*
X81807905Y-58974497D02*
X81780115Y-58969515D01*
X81780115Y-58969515D02*
X81717649Y-58956679D01*
X81717649Y-58956679D02*
X81627140Y-58937404D01*
X81627140Y-58937404D02*
X81515217Y-58913107D01*
X81515217Y-58913107D02*
X81388512Y-58885203D01*
X81388512Y-58885203D02*
X81359881Y-58878847D01*
X81359881Y-58878847D02*
X81232172Y-58850144D01*
X81232172Y-58850144D02*
X81119145Y-58824145D01*
X81119145Y-58824145D02*
X81027095Y-58802347D01*
X81027095Y-58802347D02*
X80962319Y-58786247D01*
X80962319Y-58786247D02*
X80931110Y-58777343D01*
X80931110Y-58777343D02*
X80929323Y-58776452D01*
X80929323Y-58776452D02*
X80925150Y-58747443D01*
X80925150Y-58747443D02*
X80943682Y-58710709D01*
X80943682Y-58710709D02*
X80973833Y-58684026D01*
X80973833Y-58684026D02*
X80989457Y-58680007D01*
X80989457Y-58680007D02*
X81020440Y-58684172D01*
X81020440Y-58684172D02*
X81020440Y-58684172D01*
G36*
X81020440Y-58684172D02*
G01*
X81083730Y-58695602D01*
X81171723Y-58712700D01*
X81276813Y-58733871D01*
X81391398Y-58757518D01*
X81507874Y-58782043D01*
X81618635Y-58805851D01*
X81716079Y-58827345D01*
X81792600Y-58844928D01*
X81840596Y-58857003D01*
X81853184Y-58861356D01*
X81856786Y-58888190D01*
X81844437Y-58929170D01*
X81824175Y-58964213D01*
X81807905Y-58974497D01*
X81780115Y-58969515D01*
X81717649Y-58956679D01*
X81627140Y-58937404D01*
X81515217Y-58913107D01*
X81388512Y-58885203D01*
X81359881Y-58878847D01*
X81232172Y-58850144D01*
X81119145Y-58824145D01*
X81027095Y-58802347D01*
X80962319Y-58786247D01*
X80931110Y-58777343D01*
X80929323Y-58776452D01*
X80925150Y-58747443D01*
X80943682Y-58710709D01*
X80973833Y-58684026D01*
X80989457Y-58680007D01*
X81020440Y-58684172D01*
G37*
X81020440Y-58684172D02*
X81083730Y-58695602D01*
X81171723Y-58712700D01*
X81276813Y-58733871D01*
X81391398Y-58757518D01*
X81507874Y-58782043D01*
X81618635Y-58805851D01*
X81716079Y-58827345D01*
X81792600Y-58844928D01*
X81840596Y-58857003D01*
X81853184Y-58861356D01*
X81856786Y-58888190D01*
X81844437Y-58929170D01*
X81824175Y-58964213D01*
X81807905Y-58974497D01*
X81780115Y-58969515D01*
X81717649Y-58956679D01*
X81627140Y-58937404D01*
X81515217Y-58913107D01*
X81388512Y-58885203D01*
X81359881Y-58878847D01*
X81232172Y-58850144D01*
X81119145Y-58824145D01*
X81027095Y-58802347D01*
X80962319Y-58786247D01*
X80931110Y-58777343D01*
X80929323Y-58776452D01*
X80925150Y-58747443D01*
X80943682Y-58710709D01*
X80973833Y-58684026D01*
X80989457Y-58680007D01*
X81020440Y-58684172D01*
X73514888Y-68976738D02*
X73531205Y-68997693D01*
X73531205Y-68997693D02*
X73562918Y-69046085D01*
X73562918Y-69046085D02*
X73604557Y-69112804D01*
X73604557Y-69112804D02*
X73650653Y-69188741D01*
X73650653Y-69188741D02*
X73695738Y-69264784D01*
X73695738Y-69264784D02*
X73734341Y-69331826D01*
X73734341Y-69331826D02*
X73760995Y-69380756D01*
X73760995Y-69380756D02*
X73770267Y-69402116D01*
X73770267Y-69402116D02*
X73750603Y-69406079D01*
X73750603Y-69406079D02*
X73697621Y-69409215D01*
X73697621Y-69409215D02*
X73620333Y-69411120D01*
X73620333Y-69411120D02*
X73561035Y-69411507D01*
X73561035Y-69411507D02*
X73464307Y-69410782D01*
X73464307Y-69410782D02*
X73400898Y-69407419D01*
X73400898Y-69407419D02*
X73361802Y-69399633D01*
X73361802Y-69399633D02*
X73338014Y-69385639D01*
X73338014Y-69385639D02*
X73320677Y-69363882D01*
X73320677Y-69363882D02*
X73291700Y-69315309D01*
X73291700Y-69315309D02*
X73256226Y-69250408D01*
X73256226Y-69250408D02*
X73243937Y-69226705D01*
X73243937Y-69226705D02*
X73198321Y-69137153D01*
X73198321Y-69137153D02*
X73277919Y-69087012D01*
X73277919Y-69087012D02*
X73378685Y-69026988D01*
X73378685Y-69026988D02*
X73454813Y-68989000D01*
X73454813Y-68989000D02*
X73502799Y-68974679D01*
X73502799Y-68974679D02*
X73514888Y-68976738D01*
X73514888Y-68976738D02*
X73514888Y-68976738D01*
G36*
X73514888Y-68976738D02*
G01*
X73531205Y-68997693D01*
X73562918Y-69046085D01*
X73604557Y-69112804D01*
X73650653Y-69188741D01*
X73695738Y-69264784D01*
X73734341Y-69331826D01*
X73760995Y-69380756D01*
X73770267Y-69402116D01*
X73750603Y-69406079D01*
X73697621Y-69409215D01*
X73620333Y-69411120D01*
X73561035Y-69411507D01*
X73464307Y-69410782D01*
X73400898Y-69407419D01*
X73361802Y-69399633D01*
X73338014Y-69385639D01*
X73320677Y-69363882D01*
X73291700Y-69315309D01*
X73256226Y-69250408D01*
X73243937Y-69226705D01*
X73198321Y-69137153D01*
X73277919Y-69087012D01*
X73378685Y-69026988D01*
X73454813Y-68989000D01*
X73502799Y-68974679D01*
X73514888Y-68976738D01*
G37*
X73514888Y-68976738D02*
X73531205Y-68997693D01*
X73562918Y-69046085D01*
X73604557Y-69112804D01*
X73650653Y-69188741D01*
X73695738Y-69264784D01*
X73734341Y-69331826D01*
X73760995Y-69380756D01*
X73770267Y-69402116D01*
X73750603Y-69406079D01*
X73697621Y-69409215D01*
X73620333Y-69411120D01*
X73561035Y-69411507D01*
X73464307Y-69410782D01*
X73400898Y-69407419D01*
X73361802Y-69399633D01*
X73338014Y-69385639D01*
X73320677Y-69363882D01*
X73291700Y-69315309D01*
X73256226Y-69250408D01*
X73243937Y-69226705D01*
X73198321Y-69137153D01*
X73277919Y-69087012D01*
X73378685Y-69026988D01*
X73454813Y-68989000D01*
X73502799Y-68974679D01*
X73514888Y-68976738D01*
X55731139Y-41911146D02*
X55767891Y-41956643D01*
X55767891Y-41956643D02*
X55821532Y-42026199D01*
X55821532Y-42026199D02*
X55888115Y-42114681D01*
X55888115Y-42114681D02*
X55963695Y-42216957D01*
X55963695Y-42216957D02*
X55979676Y-42238799D01*
X55979676Y-42238799D02*
X56057447Y-42345223D01*
X56057447Y-42345223D02*
X56127493Y-42441005D01*
X56127493Y-42441005D02*
X56185676Y-42520493D01*
X56185676Y-42520493D02*
X56227860Y-42578033D01*
X56227860Y-42578033D02*
X56249905Y-42607974D01*
X56249905Y-42607974D02*
X56251326Y-42609877D01*
X56251326Y-42609877D02*
X56255726Y-42641394D01*
X56255726Y-42641394D02*
X56231533Y-42667412D01*
X56231533Y-42667412D02*
X56194649Y-42691423D01*
X56194649Y-42691423D02*
X56176780Y-42698500D01*
X56176780Y-42698500D02*
X56160673Y-42682297D01*
X56160673Y-42682297D02*
X56123757Y-42636572D01*
X56123757Y-42636572D02*
X56069803Y-42566273D01*
X56069803Y-42566273D02*
X56002581Y-42476342D01*
X56002581Y-42476342D02*
X55925862Y-42371727D01*
X55925862Y-42371727D02*
X55892637Y-42325875D01*
X55892637Y-42325875D02*
X55804392Y-42203242D01*
X55804392Y-42203242D02*
X55738593Y-42110196D01*
X55738593Y-42110196D02*
X55692641Y-42042193D01*
X55692641Y-42042193D02*
X55663935Y-41994691D01*
X55663935Y-41994691D02*
X55649878Y-41963146D01*
X55649878Y-41963146D02*
X55647870Y-41943016D01*
X55647870Y-41943016D02*
X55655312Y-41929758D01*
X55655312Y-41929758D02*
X55662545Y-41923709D01*
X55662545Y-41923709D02*
X55698750Y-41900960D01*
X55698750Y-41900960D02*
X55715221Y-41894840D01*
X55715221Y-41894840D02*
X55731139Y-41911146D01*
X55731139Y-41911146D02*
X55731139Y-41911146D01*
G36*
X55731139Y-41911146D02*
G01*
X55767891Y-41956643D01*
X55821532Y-42026199D01*
X55888115Y-42114681D01*
X55963695Y-42216957D01*
X55979676Y-42238799D01*
X56057447Y-42345223D01*
X56127493Y-42441005D01*
X56185676Y-42520493D01*
X56227860Y-42578033D01*
X56249905Y-42607974D01*
X56251326Y-42609877D01*
X56255726Y-42641394D01*
X56231533Y-42667412D01*
X56194649Y-42691423D01*
X56176780Y-42698500D01*
X56160673Y-42682297D01*
X56123757Y-42636572D01*
X56069803Y-42566273D01*
X56002581Y-42476342D01*
X55925862Y-42371727D01*
X55892637Y-42325875D01*
X55804392Y-42203242D01*
X55738593Y-42110196D01*
X55692641Y-42042193D01*
X55663935Y-41994691D01*
X55649878Y-41963146D01*
X55647870Y-41943016D01*
X55655312Y-41929758D01*
X55662545Y-41923709D01*
X55698750Y-41900960D01*
X55715221Y-41894840D01*
X55731139Y-41911146D01*
G37*
X55731139Y-41911146D02*
X55767891Y-41956643D01*
X55821532Y-42026199D01*
X55888115Y-42114681D01*
X55963695Y-42216957D01*
X55979676Y-42238799D01*
X56057447Y-42345223D01*
X56127493Y-42441005D01*
X56185676Y-42520493D01*
X56227860Y-42578033D01*
X56249905Y-42607974D01*
X56251326Y-42609877D01*
X56255726Y-42641394D01*
X56231533Y-42667412D01*
X56194649Y-42691423D01*
X56176780Y-42698500D01*
X56160673Y-42682297D01*
X56123757Y-42636572D01*
X56069803Y-42566273D01*
X56002581Y-42476342D01*
X55925862Y-42371727D01*
X55892637Y-42325875D01*
X55804392Y-42203242D01*
X55738593Y-42110196D01*
X55692641Y-42042193D01*
X55663935Y-41994691D01*
X55649878Y-41963146D01*
X55647870Y-41943016D01*
X55655312Y-41929758D01*
X55662545Y-41923709D01*
X55698750Y-41900960D01*
X55715221Y-41894840D01*
X55731139Y-41911146D01*
G04 #@! TD*
D11*
G04 #@! TO.C,R3*
X63900000Y-56212500D03*
X63900000Y-54387500D03*
G04 #@! TD*
G04 #@! TO.C,R5*
X69900000Y-56212500D03*
X69900000Y-54387500D03*
G04 #@! TD*
D12*
G04 #@! TO.C,D9*
X64725000Y-67100000D03*
X66475000Y-67100000D03*
G04 #@! TD*
D13*
G04 #@! TO.C,D3*
X63894163Y-52100000D03*
X63894163Y-50350000D03*
G04 #@! TD*
D14*
G04 #@! TO.C,SW1*
X67600000Y-60050000D03*
X73800000Y-60050000D03*
X73800000Y-63750000D03*
X67600000Y-63750000D03*
G04 #@! TD*
D13*
G04 #@! TO.C,D4*
X66904368Y-52100000D03*
X66904368Y-50350000D03*
G04 #@! TD*
G04 #@! TO.C,D6*
X72900000Y-52100000D03*
X72900000Y-50350000D03*
G04 #@! TD*
D11*
G04 #@! TO.C,R6*
X72800000Y-56125000D03*
X72800000Y-54300000D03*
G04 #@! TD*
D13*
G04 #@! TO.C,D1*
X57903740Y-52100000D03*
X57903740Y-50350000D03*
G04 #@! TD*
G04 #@! TO.C,D5*
X69887430Y-52100000D03*
X69887430Y-50350000D03*
G04 #@! TD*
D11*
G04 #@! TO.C,R8*
X69700000Y-44612500D03*
X69700000Y-42787500D03*
G04 #@! TD*
G04 #@! TO.C,R4*
X66800000Y-56212500D03*
X66800000Y-54387500D03*
G04 #@! TD*
D13*
G04 #@! TO.C,D2*
X60941569Y-52145000D03*
X60941569Y-50395000D03*
G04 #@! TD*
D15*
G04 #@! TO.C,U1*
X55950000Y-59995000D03*
X55950000Y-61265000D03*
X55950000Y-62535000D03*
X55950000Y-63805000D03*
X63250000Y-63805000D03*
X63250000Y-62535000D03*
X63250000Y-61265000D03*
X63250000Y-59995000D03*
G04 #@! TD*
D13*
G04 #@! TO.C,D8*
X67200000Y-44575000D03*
X67200000Y-42825000D03*
G04 #@! TD*
G04 #@! TO.C,D7*
X64000000Y-44575000D03*
X64000000Y-42825000D03*
G04 #@! TD*
D11*
G04 #@! TO.C,R2*
X60900000Y-56112500D03*
X60900000Y-54287500D03*
G04 #@! TD*
G04 #@! TO.C,R1*
X57900000Y-56012500D03*
X57900000Y-54187500D03*
G04 #@! TD*
D16*
G04 #@! TO.C,R7*
X61600000Y-42810000D03*
X61600000Y-44635000D03*
G04 #@! TD*
M02*
