G04 #@! TF.GenerationSoftware,KiCad,Pcbnew,(6.0.1)*
G04 #@! TF.CreationDate,2022-06-02T08:59:42+05:30*
G04 #@! TF.ProjectId,BCD watch V1.0,42434420-7761-4746-9368-2056312e302e,rev?*
G04 #@! TF.SameCoordinates,Original*
G04 #@! TF.FileFunction,Legend,Bot*
G04 #@! TF.FilePolarity,Positive*
%FSLAX46Y46*%
G04 Gerber Fmt 4.6, Leading zero omitted, Abs format (unit mm)*
G04 Created by KiCad (PCBNEW (6.0.1)) date 2022-06-02 08:59:42*
%MOMM*%
%LPD*%
G01*
G04 APERTURE LIST*
%ADD10C,0.150000*%
%ADD11C,0.254000*%
%ADD12C,0.120000*%
%ADD13C,0.200000*%
G04 APERTURE END LIST*
D10*
X82400000Y-58750000D02*
X65400000Y-58750000D01*
X65400000Y-51750000D02*
X82400000Y-51750000D01*
X65400000Y-58750000D02*
X65400000Y-51750000D01*
X82400000Y-51750000D02*
X82400000Y-58750000D01*
G04 #@! TO.C,R11*
X142652380Y-16257142D02*
X142176190Y-15923809D01*
X142652380Y-15685714D02*
X141652380Y-15685714D01*
X141652380Y-16066666D01*
X141700000Y-16161904D01*
X141747619Y-16209523D01*
X141842857Y-16257142D01*
X141985714Y-16257142D01*
X142080952Y-16209523D01*
X142128571Y-16161904D01*
X142176190Y-16066666D01*
X142176190Y-15685714D01*
X142652380Y-17209523D02*
X142652380Y-16638095D01*
X142652380Y-16923809D02*
X141652380Y-16923809D01*
X141795238Y-16828571D01*
X141890476Y-16733333D01*
X141938095Y-16638095D01*
X142652380Y-18161904D02*
X142652380Y-17590476D01*
X142652380Y-17876190D02*
X141652380Y-17876190D01*
X141795238Y-17780952D01*
X141890476Y-17685714D01*
X141938095Y-17590476D01*
G04 #@! TO.C,D11*
X156552380Y-37885714D02*
X155552380Y-37885714D01*
X155552380Y-38123809D01*
X155600000Y-38266666D01*
X155695238Y-38361904D01*
X155790476Y-38409523D01*
X155980952Y-38457142D01*
X156123809Y-38457142D01*
X156314285Y-38409523D01*
X156409523Y-38361904D01*
X156504761Y-38266666D01*
X156552380Y-38123809D01*
X156552380Y-37885714D01*
X156552380Y-39409523D02*
X156552380Y-38838095D01*
X156552380Y-39123809D02*
X155552380Y-39123809D01*
X155695238Y-39028571D01*
X155790476Y-38933333D01*
X155838095Y-38838095D01*
X156552380Y-40361904D02*
X156552380Y-39790476D01*
X156552380Y-40076190D02*
X155552380Y-40076190D01*
X155695238Y-39980952D01*
X155790476Y-39885714D01*
X155838095Y-39790476D01*
G04 #@! TO.C,C1*
X184157142Y-20233333D02*
X184204761Y-20185714D01*
X184252380Y-20042857D01*
X184252380Y-19947619D01*
X184204761Y-19804761D01*
X184109523Y-19709523D01*
X184014285Y-19661904D01*
X183823809Y-19614285D01*
X183680952Y-19614285D01*
X183490476Y-19661904D01*
X183395238Y-19709523D01*
X183300000Y-19804761D01*
X183252380Y-19947619D01*
X183252380Y-20042857D01*
X183300000Y-20185714D01*
X183347619Y-20233333D01*
X184252380Y-21185714D02*
X184252380Y-20614285D01*
X184252380Y-20900000D02*
X183252380Y-20900000D01*
X183395238Y-20804761D01*
X183490476Y-20709523D01*
X183538095Y-20614285D01*
G04 #@! TO.C,R9*
X43766666Y-85552380D02*
X44100000Y-85076190D01*
X44338095Y-85552380D02*
X44338095Y-84552380D01*
X43957142Y-84552380D01*
X43861904Y-84600000D01*
X43814285Y-84647619D01*
X43766666Y-84742857D01*
X43766666Y-84885714D01*
X43814285Y-84980952D01*
X43861904Y-85028571D01*
X43957142Y-85076190D01*
X44338095Y-85076190D01*
X43290476Y-85552380D02*
X43100000Y-85552380D01*
X43004761Y-85504761D01*
X42957142Y-85457142D01*
X42861904Y-85314285D01*
X42814285Y-85123809D01*
X42814285Y-84742857D01*
X42861904Y-84647619D01*
X42909523Y-84600000D01*
X43004761Y-84552380D01*
X43195238Y-84552380D01*
X43290476Y-84600000D01*
X43338095Y-84647619D01*
X43385714Y-84742857D01*
X43385714Y-84980952D01*
X43338095Y-85076190D01*
X43290476Y-85123809D01*
X43195238Y-85171428D01*
X43004761Y-85171428D01*
X42909523Y-85123809D01*
X42861904Y-85076190D01*
X42814285Y-84980952D01*
G04 #@! TO.C,TP4*
X165861904Y-41752380D02*
X165290476Y-41752380D01*
X165576190Y-42752380D02*
X165576190Y-41752380D01*
X164957142Y-42752380D02*
X164957142Y-41752380D01*
X164576190Y-41752380D01*
X164480952Y-41800000D01*
X164433333Y-41847619D01*
X164385714Y-41942857D01*
X164385714Y-42085714D01*
X164433333Y-42180952D01*
X164480952Y-42228571D01*
X164576190Y-42276190D01*
X164957142Y-42276190D01*
X163528571Y-42085714D02*
X163528571Y-42752380D01*
X163766666Y-41704761D02*
X164004761Y-42419047D01*
X163385714Y-42419047D01*
G04 #@! TO.C,TP1*
X18861904Y-24752380D02*
X18290476Y-24752380D01*
X18576190Y-25752380D02*
X18576190Y-24752380D01*
X17957142Y-25752380D02*
X17957142Y-24752380D01*
X17576190Y-24752380D01*
X17480952Y-24800000D01*
X17433333Y-24847619D01*
X17385714Y-24942857D01*
X17385714Y-25085714D01*
X17433333Y-25180952D01*
X17480952Y-25228571D01*
X17576190Y-25276190D01*
X17957142Y-25276190D01*
X16433333Y-25752380D02*
X17004761Y-25752380D01*
X16719047Y-25752380D02*
X16719047Y-24752380D01*
X16814285Y-24895238D01*
X16909523Y-24990476D01*
X17004761Y-25038095D01*
G04 #@! TO.C,R14*
X157842857Y-42042380D02*
X158176190Y-41566190D01*
X158414285Y-42042380D02*
X158414285Y-41042380D01*
X158033333Y-41042380D01*
X157938095Y-41090000D01*
X157890476Y-41137619D01*
X157842857Y-41232857D01*
X157842857Y-41375714D01*
X157890476Y-41470952D01*
X157938095Y-41518571D01*
X158033333Y-41566190D01*
X158414285Y-41566190D01*
X156890476Y-42042380D02*
X157461904Y-42042380D01*
X157176190Y-42042380D02*
X157176190Y-41042380D01*
X157271428Y-41185238D01*
X157366666Y-41280476D01*
X157461904Y-41328095D01*
X156033333Y-41375714D02*
X156033333Y-42042380D01*
X156271428Y-40994761D02*
X156509523Y-41709047D01*
X155890476Y-41709047D01*
G04 #@! TO.C,R13*
X-6257142Y-96252380D02*
X-5923809Y-95776190D01*
X-5685714Y-96252380D02*
X-5685714Y-95252380D01*
X-6066666Y-95252380D01*
X-6161904Y-95300000D01*
X-6209523Y-95347619D01*
X-6257142Y-95442857D01*
X-6257142Y-95585714D01*
X-6209523Y-95680952D01*
X-6161904Y-95728571D01*
X-6066666Y-95776190D01*
X-5685714Y-95776190D01*
X-7209523Y-96252380D02*
X-6638095Y-96252380D01*
X-6923809Y-96252380D02*
X-6923809Y-95252380D01*
X-6828571Y-95395238D01*
X-6733333Y-95490476D01*
X-6638095Y-95538095D01*
X-7542857Y-95252380D02*
X-8161904Y-95252380D01*
X-7828571Y-95633333D01*
X-7971428Y-95633333D01*
X-8066666Y-95680952D01*
X-8114285Y-95728571D01*
X-8161904Y-95823809D01*
X-8161904Y-96061904D01*
X-8114285Y-96157142D01*
X-8066666Y-96204761D01*
X-7971428Y-96252380D01*
X-7685714Y-96252380D01*
X-7590476Y-96204761D01*
X-7542857Y-96157142D01*
G04 #@! TO.C,D10*
X143252380Y-25285714D02*
X142252380Y-25285714D01*
X142252380Y-25523809D01*
X142300000Y-25666666D01*
X142395238Y-25761904D01*
X142490476Y-25809523D01*
X142680952Y-25857142D01*
X142823809Y-25857142D01*
X143014285Y-25809523D01*
X143109523Y-25761904D01*
X143204761Y-25666666D01*
X143252380Y-25523809D01*
X143252380Y-25285714D01*
X143252380Y-26809523D02*
X143252380Y-26238095D01*
X143252380Y-26523809D02*
X142252380Y-26523809D01*
X142395238Y-26428571D01*
X142490476Y-26333333D01*
X142538095Y-26238095D01*
X142252380Y-27428571D02*
X142252380Y-27523809D01*
X142300000Y-27619047D01*
X142347619Y-27666666D01*
X142442857Y-27714285D01*
X142633333Y-27761904D01*
X142871428Y-27761904D01*
X143061904Y-27714285D01*
X143157142Y-27666666D01*
X143204761Y-27619047D01*
X143252380Y-27523809D01*
X143252380Y-27428571D01*
X143204761Y-27333333D01*
X143157142Y-27285714D01*
X143061904Y-27238095D01*
X142871428Y-27190476D01*
X142633333Y-27190476D01*
X142442857Y-27238095D01*
X142347619Y-27285714D01*
X142300000Y-27333333D01*
X142252380Y-27428571D01*
G04 #@! TO.C,R10*
X126246492Y-63991086D02*
X125674073Y-64092101D01*
X125842431Y-63587025D02*
X125135325Y-64294132D01*
X125404699Y-64563506D01*
X125505714Y-64597178D01*
X125573057Y-64597178D01*
X125674073Y-64563506D01*
X125775088Y-64462491D01*
X125808760Y-64361475D01*
X125808760Y-64294132D01*
X125775088Y-64193117D01*
X125505714Y-63923743D01*
X126919928Y-64664521D02*
X126515867Y-64260460D01*
X126717897Y-64462491D02*
X126010790Y-65169598D01*
X126044462Y-65001239D01*
X126044462Y-64866552D01*
X126010790Y-64765537D01*
X126650554Y-65809361D02*
X126717897Y-65876704D01*
X126818912Y-65910376D01*
X126886256Y-65910376D01*
X126987271Y-65876704D01*
X127155630Y-65775689D01*
X127323989Y-65607330D01*
X127425004Y-65438972D01*
X127458676Y-65337956D01*
X127458676Y-65270613D01*
X127425004Y-65169598D01*
X127357660Y-65102254D01*
X127256645Y-65068582D01*
X127189302Y-65068582D01*
X127088286Y-65102254D01*
X126919928Y-65203269D01*
X126751569Y-65371628D01*
X126650554Y-65539987D01*
X126616882Y-65641002D01*
X126616882Y-65708346D01*
X126650554Y-65809361D01*
G04 #@! TO.C,TP5*
X158561904Y-24352380D02*
X157990476Y-24352380D01*
X158276190Y-25352380D02*
X158276190Y-24352380D01*
X157657142Y-25352380D02*
X157657142Y-24352380D01*
X157276190Y-24352380D01*
X157180952Y-24400000D01*
X157133333Y-24447619D01*
X157085714Y-24542857D01*
X157085714Y-24685714D01*
X157133333Y-24780952D01*
X157180952Y-24828571D01*
X157276190Y-24876190D01*
X157657142Y-24876190D01*
X156180952Y-24352380D02*
X156657142Y-24352380D01*
X156704761Y-24828571D01*
X156657142Y-24780952D01*
X156561904Y-24733333D01*
X156323809Y-24733333D01*
X156228571Y-24780952D01*
X156180952Y-24828571D01*
X156133333Y-24923809D01*
X156133333Y-25161904D01*
X156180952Y-25257142D01*
X156228571Y-25304761D01*
X156323809Y-25352380D01*
X156561904Y-25352380D01*
X156657142Y-25304761D01*
X156704761Y-25257142D01*
G04 #@! TO.C,C2*
X159157141Y-32633334D02*
X159204760Y-32585715D01*
X159252379Y-32442858D01*
X159252379Y-32347620D01*
X159204760Y-32204762D01*
X159109522Y-32109524D01*
X159014284Y-32061905D01*
X158823808Y-32014286D01*
X158680951Y-32014286D01*
X158490475Y-32061905D01*
X158395237Y-32109524D01*
X158299999Y-32204762D01*
X158252379Y-32347620D01*
X158252379Y-32442858D01*
X158299999Y-32585715D01*
X158347618Y-32633334D01*
X158347618Y-33014286D02*
X158299999Y-33061905D01*
X158252379Y-33157143D01*
X158252379Y-33395239D01*
X158299999Y-33490477D01*
X158347618Y-33538096D01*
X158442856Y-33585715D01*
X158538094Y-33585715D01*
X158680951Y-33538096D01*
X159252379Y-32966667D01*
X159252379Y-33585715D01*
G04 #@! TO.C,TP3*
X165461904Y-28352380D02*
X164890476Y-28352380D01*
X165176190Y-29352380D02*
X165176190Y-28352380D01*
X164557142Y-29352380D02*
X164557142Y-28352380D01*
X164176190Y-28352380D01*
X164080952Y-28400000D01*
X164033333Y-28447619D01*
X163985714Y-28542857D01*
X163985714Y-28685714D01*
X164033333Y-28780952D01*
X164080952Y-28828571D01*
X164176190Y-28876190D01*
X164557142Y-28876190D01*
X163652380Y-28352380D02*
X163033333Y-28352380D01*
X163366666Y-28733333D01*
X163223809Y-28733333D01*
X163128571Y-28780952D01*
X163080952Y-28828571D01*
X163033333Y-28923809D01*
X163033333Y-29161904D01*
X163080952Y-29257142D01*
X163128571Y-29304761D01*
X163223809Y-29352380D01*
X163509523Y-29352380D01*
X163604761Y-29304761D01*
X163652380Y-29257142D01*
D11*
G04 #@! TO.C,J1*
X74223333Y-46404523D02*
X74223333Y-47311666D01*
X74283809Y-47493095D01*
X74404761Y-47614047D01*
X74586190Y-47674523D01*
X74707142Y-47674523D01*
X72953333Y-47674523D02*
X73679047Y-47674523D01*
X73316190Y-47674523D02*
X73316190Y-46404523D01*
X73437142Y-46585952D01*
X73558095Y-46706904D01*
X73679047Y-46767380D01*
D10*
G04 #@! TO.C,U3*
X154761904Y-26852380D02*
X154761904Y-27661904D01*
X154714285Y-27757142D01*
X154666666Y-27804761D01*
X154571428Y-27852380D01*
X154380952Y-27852380D01*
X154285714Y-27804761D01*
X154238095Y-27757142D01*
X154190476Y-27661904D01*
X154190476Y-26852380D01*
X153809523Y-26852380D02*
X153190476Y-26852380D01*
X153523809Y-27233333D01*
X153380952Y-27233333D01*
X153285714Y-27280952D01*
X153238095Y-27328571D01*
X153190476Y-27423809D01*
X153190476Y-27661904D01*
X153238095Y-27757142D01*
X153285714Y-27804761D01*
X153380952Y-27852380D01*
X153666666Y-27852380D01*
X153761904Y-27804761D01*
X153809523Y-27757142D01*
G04 #@! TO.C,TP6*
X23561904Y-19952380D02*
X22990476Y-19952380D01*
X23276190Y-20952380D02*
X23276190Y-19952380D01*
X22657142Y-20952380D02*
X22657142Y-19952380D01*
X22276190Y-19952380D01*
X22180952Y-20000000D01*
X22133333Y-20047619D01*
X22085714Y-20142857D01*
X22085714Y-20285714D01*
X22133333Y-20380952D01*
X22180952Y-20428571D01*
X22276190Y-20476190D01*
X22657142Y-20476190D01*
X21228571Y-19952380D02*
X21419047Y-19952380D01*
X21514285Y-20000000D01*
X21561904Y-20047619D01*
X21657142Y-20190476D01*
X21704761Y-20380952D01*
X21704761Y-20761904D01*
X21657142Y-20857142D01*
X21609523Y-20904761D01*
X21514285Y-20952380D01*
X21323809Y-20952380D01*
X21228571Y-20904761D01*
X21180952Y-20857142D01*
X21133333Y-20761904D01*
X21133333Y-20523809D01*
X21180952Y-20428571D01*
X21228571Y-20380952D01*
X21323809Y-20333333D01*
X21514285Y-20333333D01*
X21609523Y-20380952D01*
X21657142Y-20428571D01*
X21704761Y-20523809D01*
G04 #@! TO.C,TP2*
X19861904Y-21652380D02*
X19290476Y-21652380D01*
X19576190Y-22652380D02*
X19576190Y-21652380D01*
X18957142Y-22652380D02*
X18957142Y-21652380D01*
X18576190Y-21652380D01*
X18480952Y-21700000D01*
X18433333Y-21747619D01*
X18385714Y-21842857D01*
X18385714Y-21985714D01*
X18433333Y-22080952D01*
X18480952Y-22128571D01*
X18576190Y-22176190D01*
X18957142Y-22176190D01*
X18004761Y-21747619D02*
X17957142Y-21700000D01*
X17861904Y-21652380D01*
X17623809Y-21652380D01*
X17528571Y-21700000D01*
X17480952Y-21747619D01*
X17433333Y-21842857D01*
X17433333Y-21938095D01*
X17480952Y-22080952D01*
X18052380Y-22652380D01*
X17433333Y-22652380D01*
G04 #@! TO.C,U2*
X-17738095Y-49952380D02*
X-17738095Y-50761904D01*
X-17785714Y-50857142D01*
X-17833333Y-50904761D01*
X-17928571Y-50952380D01*
X-18119047Y-50952380D01*
X-18214285Y-50904761D01*
X-18261904Y-50857142D01*
X-18309523Y-50761904D01*
X-18309523Y-49952380D01*
X-18738095Y-50047619D02*
X-18785714Y-50000000D01*
X-18880952Y-49952380D01*
X-19119047Y-49952380D01*
X-19214285Y-50000000D01*
X-19261904Y-50047619D01*
X-19309523Y-50142857D01*
X-19309523Y-50238095D01*
X-19261904Y-50380952D01*
X-18690476Y-50952380D01*
X-19309523Y-50952380D01*
G04 #@! TO.C,R12*
X127852380Y-28757142D02*
X127376190Y-28423809D01*
X127852380Y-28185714D02*
X126852380Y-28185714D01*
X126852380Y-28566666D01*
X126900000Y-28661904D01*
X126947619Y-28709523D01*
X127042857Y-28757142D01*
X127185714Y-28757142D01*
X127280952Y-28709523D01*
X127328571Y-28661904D01*
X127376190Y-28566666D01*
X127376190Y-28185714D01*
X127852380Y-29709523D02*
X127852380Y-29138095D01*
X127852380Y-29423809D02*
X126852380Y-29423809D01*
X126995238Y-29328571D01*
X127090476Y-29233333D01*
X127138095Y-29138095D01*
X126947619Y-30090476D02*
X126900000Y-30138095D01*
X126852380Y-30233333D01*
X126852380Y-30471428D01*
X126900000Y-30566666D01*
X126947619Y-30614285D01*
X127042857Y-30661904D01*
X127138095Y-30661904D01*
X127280952Y-30614285D01*
X127852380Y-30042857D01*
X127852380Y-30661904D01*
D12*
G04 #@! TO.C,R11*
X67177500Y-45654724D02*
X67177500Y-45145276D01*
X68222500Y-45654724D02*
X68222500Y-45145276D01*
G04 #@! TO.C,D11*
X65165000Y-50760000D02*
X65165000Y-48300000D01*
X66635000Y-48300000D02*
X66635000Y-50760000D01*
X66635000Y-50760000D02*
X65165000Y-50760000D01*
G04 #@! TO.C,C1*
X77690000Y-61853733D02*
X77690000Y-62146267D01*
X78710000Y-61853733D02*
X78710000Y-62146267D01*
G04 #@! TO.C,R9*
X65854724Y-69222500D02*
X65345276Y-69222500D01*
X65854724Y-68177500D02*
X65345276Y-68177500D01*
G04 #@! TO.C,TP4*
X73100000Y-68950000D02*
X73100000Y-67550000D01*
X73100000Y-67550000D02*
X71700000Y-67550000D01*
X71700000Y-68950000D02*
X73100000Y-68950000D01*
X71700000Y-67550000D02*
X71700000Y-68950000D01*
G04 #@! TO.C,TP1*
X60100000Y-68950000D02*
X60100000Y-67550000D01*
X58700000Y-67550000D02*
X58700000Y-68950000D01*
X60100000Y-67550000D02*
X58700000Y-67550000D01*
X58700000Y-68950000D02*
X60100000Y-68950000D01*
G04 #@! TO.C,R14*
X67254724Y-62122500D02*
X66745276Y-62122500D01*
X67254724Y-61077500D02*
X66745276Y-61077500D01*
G04 #@! TO.C,R13*
X66745276Y-62977500D02*
X67254724Y-62977500D01*
X66745276Y-64022500D02*
X67254724Y-64022500D01*
G04 #@! TO.C,D10*
X68435000Y-48300000D02*
X68435000Y-50760000D01*
X66965000Y-50760000D02*
X66965000Y-48300000D01*
X68435000Y-50760000D02*
X66965000Y-50760000D01*
G04 #@! TO.C,R10*
X80049580Y-47110654D02*
X79689346Y-46750420D01*
X79310654Y-47849580D02*
X78950420Y-47489346D01*
G04 #@! TO.C,TP5*
X76200000Y-67550000D02*
X74800000Y-67550000D01*
X74800000Y-67550000D02*
X74800000Y-68950000D01*
X76200000Y-68950000D02*
X76200000Y-67550000D01*
X74800000Y-68950000D02*
X76200000Y-68950000D01*
G04 #@! TO.C,C2*
X70889999Y-61816234D02*
X70889999Y-62108768D01*
X71909999Y-61816234D02*
X71909999Y-62108768D01*
G04 #@! TO.C,TP3*
X68900000Y-68950000D02*
X70300000Y-68950000D01*
X70300000Y-67550000D02*
X68900000Y-67550000D01*
X70300000Y-68950000D02*
X70300000Y-67550000D01*
X68900000Y-67550000D02*
X68900000Y-68950000D01*
D13*
G04 #@! TO.C,J1*
X77275000Y-44495000D02*
X75750000Y-44495000D01*
D12*
G04 #@! TO.C,U3*
X74766666Y-60410000D02*
X76566666Y-60410000D01*
X74766666Y-63530000D02*
X75566666Y-63530000D01*
X74766666Y-63530000D02*
X73966666Y-63530000D01*
X74766666Y-60410000D02*
X73966666Y-60410000D01*
G04 #@! TO.C,TP6*
X61600000Y-67550000D02*
X61600000Y-68950000D01*
X63000000Y-68950000D02*
X63000000Y-67550000D01*
X63000000Y-67550000D02*
X61600000Y-67550000D01*
X61600000Y-68950000D02*
X63000000Y-68950000D01*
G04 #@! TO.C,TP2*
X55900000Y-68950000D02*
X57300000Y-68950000D01*
X57300000Y-67550000D02*
X55900000Y-67550000D01*
X57300000Y-68950000D02*
X57300000Y-67550000D01*
X55900000Y-67550000D02*
X55900000Y-68950000D01*
G04 #@! TO.C,U2*
X58700000Y-45380000D02*
X60235000Y-45380000D01*
X51465000Y-45320000D02*
X63935000Y-45320000D01*
X55165000Y-45380000D02*
X56700000Y-45380000D01*
X60235000Y-45380000D02*
X60235000Y-65820000D01*
X60235000Y-65820000D02*
X55165000Y-65820000D01*
X55165000Y-65820000D02*
X55165000Y-45380000D01*
X63935000Y-65880000D02*
X51465000Y-65880000D01*
X51465000Y-65880000D02*
X51465000Y-45320000D01*
X63935000Y-45320000D02*
X63935000Y-65880000D01*
X56700000Y-45380000D02*
G75*
G03*
X58700000Y-45380000I1000000J0D01*
G01*
G04 #@! TO.C,R12*
X65377500Y-45654724D02*
X65377500Y-45145276D01*
X66422500Y-45654724D02*
X66422500Y-45145276D01*
G04 #@! TD*
M02*
